<?xml version="1.0" standalone="no"?>
<!DOCTYPE svg PUBLIC "-//W3C//DTD SVG 1.1//EN" "http://www.w3.org/Graphics/SVG/1.1/DTD/svg11.dtd" >
<!--
2013-9-30: Created.
-->
<svg>
<metadata>
Created by iconfont
</metadata>
<defs>

<font id="iconfont" horiz-adv-x="1024" >
  <font-face
    font-family="iconfont"
    font-weight="500"
    font-stretch="normal"
    units-per-em="1024"
    ascent="896"
    descent="-128"
  />
    <missing-glyph />
    
    <glyph glyph-name="x" unicode="x" horiz-adv-x="1001"
d="M281 543q-27 -1 -53 -1h-83q-18 0 -36.5 -6t-32.5 -18.5t-23 -32t-9 -45.5v-76h912v41q0 16 -0.5 30t-0.5 18q0 13 -5 29t-17 29.5t-31.5 22.5t-49.5 9h-133v-97h-438v97zM955 310v-52q0 -23 0.5 -52t0.5 -58t-10.5 -47.5t-26 -30t-33 -16t-31.5 -4.5q-14 -1 -29.5 -0.5
t-29.5 0.5h-32l-45 128h-439l-44 -128h-29h-34q-20 0 -45 1q-25 0 -41 9.5t-25.5 23t-13.5 29.5t-4 30v167h911zM163 247q-12 0 -21 -8.5t-9 -21.5t9 -21.5t21 -8.5q13 0 22 8.5t9 21.5t-9 21.5t-22 8.5zM316 123q-8 -26 -14 -48q-5 -19 -10.5 -37t-7.5 -25t-3 -15t1 -14.5
t9.5 -10.5t21.5 -4h37h67h81h80h64h36q23 0 34 12t2 38q-5 13 -9.5 30.5t-9.5 34.5q-5 19 -11 39h-368zM336 498v228q0 11 2.5 23t10 21.5t20.5 15.5t34 6h188q31 0 51.5 -14.5t20.5 -52.5v-227h-327z" />
    

    
    <glyph glyph-name="gerenzhongxin" unicode="&#58882;" d="M512.342016 777.980672c-148.642816 0-269.563904-120.922112-269.563904-269.564928 0-107.645952 63.568896-200.485888 155.005952-243.656704-169.043968-49.646592-292.929536-205.93152-292.929536-390.81984 0-11.77088 9.535488-21.29408 21.293056-21.29408 11.759616 0 21.295104 9.5232 21.295104 21.29408 0 201.21088 163.708928 364.908544 364.899328 364.908544 148.641792 0 269.568 120.925184 269.568 269.568C781.910016 657.05856 660.984832 777.980672 512.342016 777.980672zM512.342016 281.437952c-125.16352 0-226.975744 101.823488-226.975744 226.978816 0 125.15328 101.812224 226.975744 226.975744 226.975744 125.165568 0 226.97984-101.822464 226.97984-226.975744C739.32288 383.260416 637.508608 281.437952 512.342016 281.437952zM759.512064 197.947136c-9.358336 7.131136-22.709248 5.364736-29.840384-3.992576-7.15264-9.356288-5.364736-22.7072 3.991552-29.860864 91.24864-69.728256 143.56992-175.490048 143.56992-290.153472 0-11.77088 9.542656-21.29408 21.29408-21.29408 11.768832 0 21.293056 9.5232 21.293056 21.29408C919.821312 1.993472 861.3888 120.090368 759.512064 197.947136z"  horiz-adv-x="1024" />

    
    <glyph glyph-name="jibie" unicode="&#58965;" d="M264.819364-89.295354c-3.209088 0-6.40692 1.003863-9.102309 2.989077-4.965082 3.65525-7.261381 9.928117-5.828752 15.924691l63.727417 266.890536L102.166891 375.738985c-4.735861 4.013407-6.588045 10.485819-4.690836 16.397459s7.166213 10.099009 13.354146 10.609639l278.67186 22.989597 108.418268 252.863055c2.419096 5.64251 7.968485 9.30083 14.107299 9.30083 0.001023 0 0.002047 0 0.00307 0 6.139837-0.001023 11.689227-3.66139 14.106276-9.305947l108.312868-252.857938 278.720979-22.989597c6.187933-0.51063 11.45796-4.697999 13.354146-10.610662 1.89721-5.91164 0.044002-12.384052-4.692882-16.397459L710.333114 196.508951l63.726394-266.890536c1.431605-5.997598-0.864694-12.270465-5.829775-15.925714-4.967128-3.65525-11.639085-3.984754-16.939811-0.833995L512.024559 55.01231 272.655843-87.143341C270.231631-88.583133 267.521916-89.295354 264.819364-89.295354zM150.283772 375.196633l190.377932-161.367201c4.41352-3.741207 6.348592-9.646708 5.004991-15.273868l-57.492412-240.778832 216.015845 128.285758c4.832052 2.869351 10.844999 2.870374 15.678074-0.002047l215.904305-128.275525L678.282141 198.555563c-1.343601 5.628184 0.591471 11.533684 5.007037 15.274892l190.419887 161.366178-250.992451 20.702508c-5.665023 0.467651-10.608615 4.027733-12.847609 9.253758l-97.848539 228.428549-97.943706-228.433666c-2.238994-5.222955-7.181563-8.782014-12.845563-9.248641L150.283772 375.196633z"  horiz-adv-x="1024" />

    
    <glyph glyph-name="techang" unicode="&#58935;" d="M417.883971-146.318068c-126.826524 0-252.40052 8.429996-273.542027 108.978017-3.095501 14.532995-2.984984 33.32499-2.15099 47.815005-33.347502 28.409027-50.910507 60.85602-52.338019 96.728018-0.176009 4.786003-0.571005 7.858992-0.921999 10.229992-0.394996 3.381004-0.74599 6.587022-0.74599 10.011005-16.72901 24.762987-26.234501 58.966996-25.2685 93.270267 0.899486 31.174 12.579503 50.625004 24.609491 64.807005-0.571005 9.834996 0.306992 20.020986 1.230014 29.989011 0.461511 5.575995 0.966001 11.151991 1.098008 16.376992 1.755993 79.999009 63.137992 142.698003 139.713019 142.698003l125.926014 0.220011c7.04751 0 13.9405 0 20.679995-0.044002-21.317515 78.682014-47.221488 175.760003-12.95301 234.377028 25.51 43.776016 95.893001 43.776016 135.366014 43.776016 58.836013 0 74.553996-16.334014 89.417519-55.411007l3.973498-10.187013c82.282005-203.51002 190.558034-296.242028 256.353552-296.242028 17.759479 0 69.769017-24.237007 81.249489-43.161009 9.485025-15.236006 31.57002-63.576991 31.57002-183.807283 0-87.024006-36.222993-254.574023-85.707011-254.750031l-5.247514-0.042979c-6.848988 0-10.712993 0.130983-16.486486 0.218988l-3.204995-0.088004c-111.151519-7.552-137.847531-16.464997-144.895041-21.952988C667.168524-142.498066 648.661008-146.318068 417.883971-146.318068L417.883971-146.318068zM853.708034-26.232063l3.381004-0.044002c13.348006 28.27702 39.845497 99.845009 39.845497 190.382025 0 96.826256-15.257495 136.343271-20.527522 147.232273-6.959505 4.742001-23.818475 13.216-31.085996 15.542998-108.537995 2.415003-231.040027 133.87301-312.904523 336.373027l-4.435009 11.416004c-1.997494 5.269004-4.499477 11.766998-3.709485 11.855002-0.833995 0.350994-5.840008 2.152013-27.353998 2.152013-62.150502 0-75.433016-8.385994-78.199013-11.899004-21.032012-35.960003 4.697999-130.756019 20.064988-187.352015 3.908006-14.534018 7.552-27.925003 10.361999-39.473013l9.529027-39.912012-41.052998 0.308015c-17.783015 0.174985-39.473013 0.218988-62.129013 0.218988l-125.926014-0.218988c-47.90301 0-74.642001-41.185005-75.498508-79.911004-0.153496-6.497994-0.74599-13.522991-1.339508-20.50501-0.659009-7.201006-1.734504-19.232017-1.184989-21.910009l8.253988-19.627013-14.797008-15.280008c-12.31549-12.687974-17.452487-17.958-17.869996-34.20401-0.74599-27.320229 9.001001-50.679239 18.396999-60.778248l12.777001-14.709003-5.64251-17.827017c0.461511-3.687996 1.075495-8.473999 1.38351-15.893992 0.789992-20.10899 14.423501-39.868009 40.525995-58.704007l15.696494-11.370978-2.700505-19.144012c-1.667989-11.634991-2.547009-34.20401-0.417509-44.566008 7.354502-34.817993 45.971008-58.002019 210.732515-58.002019 222.302015 0 228.318032 4.699022 249.327532 21.032012 20.503986 15.981996 55.080479 26.211988 178.98751 34.555004C849.405031-26.276065 851.556021-26.232063 853.708034-26.232063L853.708034-26.232063zM853.708034-26.232063"  horiz-adv-x="1024" />

    
    <glyph glyph-name="faburenwu" unicode="&#58887;" d="M857.19495 522.013443c-16.954137 0-30.699186-13.745049-30.699186-30.699186l0-581.237921c0-10.156314-8.262174-18.419512-18.419512-18.419512L230.447533-108.343175c-10.156314 0-18.419512 8.263198-18.419512 18.419512l0 738.827075c0 10.156314 8.263198 18.419512 18.419512 18.419512l437.975053 0c16.954137 0 30.699186 13.745049 30.699186 30.699186s-13.745049 30.699186-30.699186 30.699186l-437.975053 0c-44.011376 0-79.817883-35.806507-79.817883-79.817883l0-738.827075c0-44.011376 35.806507-79.817883 79.817883-79.817883l577.62872 0c44.0124 0 79.817883 35.806507 79.817883 79.817883l0 581.237921C887.894136 508.269417 874.149087 522.013443 857.19495 522.013443zM954.500113 781.557664c-11.988032 11.989055-31.426757 11.989055-43.414789 0L504.438791 374.912154c-11.989055-11.989055-11.989055-31.426757 0-43.415812 5.993504-5.994528 13.850449-8.991792 21.707394-8.991792s15.712867 2.997264 21.707394 8.991792L954.500113 738.141852C966.488145 750.130907 966.488145 769.568608 954.500113 781.557664z"  horiz-adv-x="1024" />

    
    <glyph glyph-name="dianzanmw" unicode="&#58891;" d="M512 809.68C230.499 809.68 2.294 581.477 2.294 299.975c0-281.503 228.204-509.653 509.706-509.653 281.501 0 509.704 228.15 509.704 509.653C1021.704 581.477 793.501 809.68 512 809.68zM352.527 50.026c0 0 0.161-14.32-18.137-14.32l-87.717 0c0 0-21.638 0-21.638 21.639L204.14 396.973c0 0 0.318 20.628 21.266 20.628l101.347 0c0 0 25.774 0.319 25.774-25.772L352.527 50.026zM756.961 98.604c0 0-19.517-62.898-43.433-62.898L459.125 35.706c-17.713 0-62.897 11.986-62.897 45.186L396.228 417.708c0 0 125.848 93.073 125.848 211.816 3.555 6.205-6.205 43.435 40.783 43.435 0 0 110.786-12.41 45.186-255.251l169.282 0c0 0 42.533 3.553 42.533-40.783C819.859 376.925 819.859 313.127 756.961 98.604z"  horiz-adv-x="1024" />

    
    <glyph glyph-name="rongyu" unicode="&#59114;" d="M509.699096 600.745598c-103.810321 0-187.963952-84.20889-187.963952-188.076516 0-103.864556 84.153632-188.06833 187.963952-188.06833 103.804181 0 187.965999 84.203774 187.965999 188.06833C697.663048 516.536708 613.503277 600.745598 509.699096 600.745598zM509.699096 278.334561c-74.14979 0-134.260843 60.145845-134.260843 134.334521 0 74.196863 60.111053 134.342708 134.260843 134.342708 74.14979 0 134.25982-60.144822 134.25982-134.342708C643.958916 338.480406 583.84684 278.334561 509.699096 278.334561zM805.639249 266.651474c21.571295 43.24185 34.020838 91.717911 34.020838 143.168724 0 179.63731-147.734716 325.261968-329.96099 325.261968-182.232414 0-329.958944-145.624658-329.958944-325.261968 0-51.451836 12.447497-99.926874 34.020838-143.168724L79.828628 37.967098c0 0 84.937484-17.042141 171.113169-34.778084 57.44227-64.003709 114.638947-127.853923 114.638947-127.853923l123.141598 210.255655c6.969739-0.431835 13.893428-1.040702 20.974707-1.040702 7.078209 0 14.003945 0.608867 20.976754 1.040702l123.143645-210.257701c0 0 57.19463 63.85226 114.63383 127.853923 86.173638 17.735943 171.116239 34.778084 171.116239 34.778084L805.639249 266.651474zM359.19736-41.344249c0 0-41.251519 46.24116-80.010265 83.945901-54.990428 15.639189-124.700093 31.581276-124.700093 31.581276l84.944648 147.109476c44.899606-58.598606 123.516128-108.717074 198.055798-126.889969L359.19736-41.344249zM509.699096 136.694657c-148.156318 0-275.364535 120.408347-275.364535 268.953522 0 148.532895 127.208217 283.157012 275.364535 283.157012 148.158365 0 275.367605-127.521349 275.367605-276.052197C785.066701 264.206796 657.857461 136.694657 509.699096 136.694657zM747.318982 49.705444c-38.767955-37.706787-87.116103-91.050716-87.116103-91.050716l-78.29725 135.746684c74.55195 18.172895 146.060587 68.291362 190.955076 126.889969l92.050486-147.107429C864.909144 74.182928 802.30941 65.350772 747.318982 49.705444z"  horiz-adv-x="1024" />

    
    <glyph glyph-name="shensuzhongxin" unicode="&#58908;" d="M830.592-5.066667l25.941333-33.856c-71.850667-55.04-161.728-87.744-259.2-87.744C361.706667-126.688 170.645333 64.373333 170.645333 300 170.645333 535.626667 361.706667 726.688 597.333333 726.688c235.626667 0 426.688-191.04 426.688-426.688 0-51.861333-9.258667-101.589333-26.218667-147.562667l-40.042667 14.762667c15.658667 42.432 23.594667 87.125333 23.594667 132.8 0 211.733333-172.288 384.021333-384.021333 384.021333S213.312 511.733333 213.312 300 385.6-84.021333 597.333333-84.021333C682.496-84.021333 763.157333-56.714667 830.592-5.066667M630.805333 168.224c-1.28 12.8-1.28 18.56-1.28 26.88 0 8.298667 0 8.298667 1.28 46.08l8.96 217.6c1.258667 27.498667 3.84 60.8 5.76 78.08l-104.96 0c2.538667-17.898667 4.458667-49.92 5.76-78.08l8.96-217.6c1.92-38.4 1.92-38.4 1.92-46.08 0-8.298667 0-14.058667-1.28-26.88L630.805333 168.224 630.805333 168.224zM639.765333 28.064l0 87.68-92.8 0 0-87.68L639.765333 28.064 639.765333 28.064z"  horiz-adv-x="1195" />

    
    <glyph glyph-name="icon" unicode="&#58989;" d="M247.336178 543.566182l16.301268-7.128351-13.247722-30.284747 111.800295-48.8905 23.092951 52.794413-132.763746 58.063417 6.113231 13.973246 148.293441-64.84896-35.31225-80.748069-127.32999 55.682183-21.735024-49.688679c-6.469342-11.968589-2.598174-20.75879 11.606339-26.351158l86.174662-37.686321c14.270005-6.858198 24.781406-4.675486 31.547507 6.554276 5.393847 8.117888 10.30674 15.842827 14.744819 23.152303 5.012154-4.042059 9.653871-8.242731 13.927197-12.56927-1.200338-1.325182-2.862187-3.693112-4.952802-7.085372-4.721535-6.574742-8.03193-11.286044-9.898441-14.167674-11.474332-17.785062-27.716248-21.784142-48.712445-11.995195l-91.614557 40.067554c-23.000853 9.453303-29.832446 24.14798-20.482497 44.102451L247.336178 543.566182zM409.372621 410.733874 585.619718 333.659475l-5.770424-13.201673-60.562331 26.489304-16.980743-38.821167c-4.365424-8.569166-0.995677-14.971993 10.095939-19.212574l16.307408-7.131421c9.318226-4.074805 15.839757-3.231601 19.59836 2.52552 4.206812 6.792707 8.005324 14.072507 11.401678 21.834284 7.438413-6.950296 12.081153-11.144828 13.933337-12.562107-0.231267-0.520863-0.455371-1.041726-0.679475-1.553379-5.347798-9.380648-9.324366-15.664771-11.935843-18.829857-7.207146-12.252045-19.763113-14.158465-37.660738-5.730515l-20.178575 8.830109c-19.374256 7.867178-25.190729 19.960611-17.421788 36.291554l17.995863 41.152259-33.393551 14.59951c-13.458523-33.584909-44.24162-47.552016-92.326778-41.940205-1.01512 4.761444-2.188852 10.524704-3.547803 17.273409 42.665729-8.18338 69.702502 2.192945 81.129762 31.115672l-52.022841 22.750143L409.372621 410.733874zM526.69263 475.967598l16.347317-0.676405c-0.396019-2.295276-0.455371-5.967922-0.191358-11.018961 0.092098-6.831592-0.019443-12.008498-0.336668-15.569604l-11.447726 1.305739 86.181825-37.686321-15.278985-34.936697-14.758122 6.448876 9.502421 21.741163-142.859685 62.47489-9.502421-21.741163-14.744819 6.448876 15.278985 34.936697 81.519642-35.648918c-0.138146 2.51938 0.046049 6.452969 0.528026 11.790534C526.672164 468.882226 526.58723 472.918145 526.69263 475.967598zM449.637674 439.369052l131.992173-57.720609-5.770424-13.201673-131.992173 57.720609L449.637674 439.369052zM750.536768 380.854357l14.751982-6.456039c-5.433756-12.420891-9.931187-23.403013-13.478989-32.945343l65.218374-28.526707-5.776563-13.195533-64.439638 28.183899c-2.037403-4.662183-3.943822-9.699919-5.677303-15.09479-11.190877-28.401864-17.283642-50.104141-18.279319-65.073064 16.980743 9.222035 35.220153 23.442922 54.726415 42.661635l11.250228-12.32163c-19.274996-18.708084-41.834804-35.042097-67.677379-49.019437-0.316202-13.428847 2.638083-24.276916 8.889461-32.559557 4.457522-8.104585 9.318226-8.997931 14.553461-2.663666 6.6607 8.18338 12.509918 17.33276 17.560958 27.468608 1.905396-2.687202 5.770424-6.545066 11.606339-11.550057-6.033413-10.933003-11.763928-19.829628-17.22429-26.693965-8.546653-11.05887-17.092283-14.402011-25.665543-10.042727-7.478322 2.663666-12.958126 8.44023-16.452717 17.369599-5.341658 10.355859-8.163937 20.825304-8.453533 31.434943-17.850553-6.987135-33.795711-11.720949-47.835472-14.220886-0.302899 0.748037-1.055029 3.240811-2.281973 7.471159-1.464351 3.731998-2.479471 6.330172-3.059686 7.810896 19.307741 3.267417 37.113269 8.741082 53.420677 16.406668 0.224104 0.514723 0.448208 1.035586 0.679475 1.556449l-0.442068 1.11438c1.483794 20.307512 7.899924 45.566802 19.255553 75.749218 1.964748 5.91471 4.088108 11.464099 6.350638 16.644075l-71.429843 31.237445-12.562107-28.728298 54.350862-23.769356c-1.813299-4.14746-4.562922-9.720386-8.249895-16.739243-7.247054-16.568351-13.649881-29.79663-19.202341-39.695071-8.902764-18.929118-22.037922-24.284079-39.401382-16.070001-4.371564 1.295506-10.695596 3.755534-18.972097 7.375991 1.608637 7.92346 2.835581 13.554714 3.679809 16.884552 3.396353-2.099824 10.009981-5.301749 19.85521-9.604752 9.093099-4.592598 15.780405-1.974981 20.086477 7.864108 3.448542 6.499018 8.156774 15.859199 14.118556 28.051893 3.448542 6.494924 5.862521 11.305487 7.220449 14.408151l-39.59888 17.316387c-17.752316-43.416835-39.440267-71.842235-65.052598-85.310991-0.817622 0.976234-2.083451 3.685949-3.831258 8.150634-1.971911 3.957125-3.362584 6.41613-4.181229 7.375991 14.751982 8.345062 25.75764 18.012236 33.037441 29.017894 7.339152 9.739828 17.132192 28.586059 29.351492 56.533574l20.369933 46.589085 85.410252-37.350676C743.092215 363.13581 747.589646 374.122025 750.536768 380.854357zM774.513856 357.418598l11.836583 5.921873c3.521197-4.632507 8.43409-11.711739 14.751982-21.249977 3.007497-4.408403 5.209652-7.827269 6.601348-10.284227l-14.072507-6.798846c-0.593518 1.489934-1.826602 3.574409-3.739161 6.258541C784.253684 342.360647 779.13613 351.075123 774.513856 357.418598zM510.556115-58.255543c-245.124813 0-444.546725 199.422935-444.546725 444.546725 0 245.12072 199.422935 444.543655 444.546725 444.543655 245.12072 0 444.543655-199.422935 444.543655-444.543655C955.09977 141.167393 755.676835-58.255543 510.556115-58.255543zM510.556115 797.072897c-226.508827 0-410.783761-184.274934-410.783761-410.780691 0-226.508827 184.274934-410.783761 410.783761-410.783761 226.505757 0 410.780691 184.274934 410.780691 410.783761C921.336806 612.79694 737.061872 797.072897 510.556115 797.072897z"  horiz-adv-x="1024" />

    
    <glyph glyph-name="daqia" unicode="&#58884;" d="M882.823192 524.690423c0 205.066823-166.240713 371.309577-371.305494 371.309577-205.066823 0-371.305494-166.241733-371.305494-371.309577 0 0-16.023669-152.712768 161.61163-386.652408C449.64927-56.640678 513.035547-128 513.035547-128s62.221606 71.679837 209.803084 266.038015C900.476991 371.977655 882.823192 524.690423 882.823192 524.690423zM512.339398 219.934497c-164.612623 0-298.057792 133.444148-298.057792 298.057792 0 164.612623 133.445169 298.057792 298.057792 298.057792 164.613644 0 298.057792-133.445169 298.057792-298.057792C810.39719 353.378645 676.952021 219.934497 512.339398 219.934497zM446.654402 671.964657l40.16635 0 0-278.573795-40.16635 0 0 278.573795ZM446.654402 430.887961l185.716544 0 0-37.49812-185.716544 0 0 37.49812Z"  horiz-adv-x="1024" />

    
    <glyph glyph-name="dingweikaoqin" unicode="&#58967;" d="M570.032206 483.31903c13.148461 13.148461 20.829398 31.626301 20.829398 50.242288 0 18.581194-7.68196 37.023218-20.829398 50.172703-13.149485 13.148461-31.66007 20.829398-50.207495 20.829398-18.614963 0-37.056987-7.68196-50.206472-20.829398-13.149485-13.149485-20.830421-31.591509-20.830421-50.172703 0-18.614963 7.680936-37.093826 20.830421-50.242288 13.149485-13.183254 31.590486-20.795629 50.206472-20.795629C538.371112 462.523401 556.882722 470.135776 570.032206 483.31903zM514.84121 55.625134c13.806447 0 26.816762 6.367011 35.052331 17.231453 76.295664 100.329033 250.618944 342.747201 250.618944 463.853443 0 155.015539-127.922485 280.619212-285.671275 280.619212-157.747767 0-285.635459-125.603673-285.635459-280.619212 0-121.106242 174.322258-363.559203 250.618944-463.853443C488.060263 61.923584 501.070578 55.625134 514.84121 55.625134zM514.84121 766.187469c128.824017 0 233.596246-102.94051 233.596246-229.477438 0-67.957765-81.280188-218.579227-213.941604-398.177652-4.568039-6.161327-11.868305-9.827833-19.654642-9.827833-7.750521 0-15.050788 3.667529-19.584034 9.827833C362.559944 318.130803 281.247011 468.752266 281.247011 536.710031 281.247011 663.247982 386.055055 766.187469 514.84121 766.187469zM868.400664 132.09476c-13.701047 15.986089-32.42141 29.205159-54.255695 38.217417-17.750269 7.370875-37.403888 10.936073-57.817824 12.45773l-35.502585-56.003502c5.641487-0.690732 10.242272-0.344854 14.534018-0.621147l30.172183-1.593288c42.041512-6.226818 62.939471-27.26497 68.408019-33.630958 6.193049-7.268544 10.102079-15.433504 10.102079-21.246907 0-9.896394-17.7165-34.116005-84.704171-54.463426-62.006216-18.754133-149.479453-29.064966-246.328221-29.064966-96.919377 0-184.91143 10.450003-247.74857 29.410843-68.095911 20.555152-86.088704 44.843324-86.088704 54.809303 0 14.18814 3.737114 22.560832 13.356193 30.103622 12.94073 10.17371 34.393321 16.818037 63.286372 19.862373 0.587378 0 2.318812 0.137123 3.632737 0.207731 3.219321 0.205685 10.518564 0.759293 28.339442 1.938142 4.186346 0.483001 8.6848 0.413416 14.013155 1.036609l-35.604916 55.034431c-45.12064-2.871397-78.649268-12.388145-100.828406-29.774117-23.390733-18.409279-35.293831-44.706201-35.293831-78.408791 0-27.542286 13.183254-51.486628 39.169091-71.486124 19.964704-15.362896 48.199769-28.649504 83.838454-39.445384 66.747193-20.138666 159.028946-31.210839 259.927961-31.210839 100.82943 0 192.696744 10.934027 258.543428 30.933523 35.292807 10.656711 63.181995 23.874757 82.97376 39.307238 25.605168 19.860327 38.615483 43.874253 38.615483 71.209832C893.142162 91.680305 884.560716 113.271042 868.400664 132.09476z"  horiz-adv-x="1024" />

    
    <glyph glyph-name="biaoti" unicode="&#58977;" d="M116.181404 762.277854 116.181404 454.866575 201.417293 454.866575 201.417293 762.277854 317.598697 762.277854 317.598697 832 0 832 0 762.277854 116.181404 762.277854ZM412.356282 770.200826 412.356282 832 335.263948 832 335.263948 770.200826 412.356282 770.200826ZM335.263948 727.944979 335.263948 454.866575 412.356282 454.866575 412.356282 727.944979 335.263948 727.944979ZM550.003263 727.944979 550.003263 809.815681 472.91093 809.815681 472.91093 727.944979 426.221206 727.944979 426.221206 677.766163 472.91093 677.766163 472.91093 516.66575C472.91093 502.932531 475.263489 491.840483 479.968678 483.389271 484.673868 474.93806 491.098164 468.423682 499.241762 463.845942 507.385359 459.268203 516.795596 456.187078 527.472757 454.602476 538.149917 453.017874 549.4603 452.225585 561.404242 452.225585 569.004932 452.225585 576.786475 452.401649 584.749103 452.753782 592.711731 453.105916 599.950376 453.810173 606.465253 454.866575L606.465253 512.968363C602.845877 512.264095 599.045588 511.735903 595.064275 511.383769 591.082961 511.031635 586.92074 510.855571 582.577488 510.855571 569.547733 510.855571 560.86136 512.968342 556.518108 517.193948 552.174856 521.419553 550.003263 529.870638 550.003263 542.547455L550.003263 677.766163 606.465253 677.766163 606.465253 727.944979 550.003263 727.944979ZM624.673409 832 624.673409 454.866575 701.765741 454.866575 701.765741 832 624.673409 832ZM930.620557 620.720771 805.209786 620.720771C805.571725 626.002778 806.748006 631.988963 808.738662 638.679505 810.729318 645.370047 814.167674 651.708361 819.05383 657.694636 823.939994 663.68091 830.454771 668.698742 838.598368 672.74828 846.741965 676.79782 856.966547 678.822559 869.272429 678.822559 888.09319 678.822559 902.118061 673.892759 911.347469 664.033012 920.576883 654.173266 927.001178 639.735996 930.620557 620.720771L930.620557 620.720771ZM805.209786 573.182943 1007.71289 573.182943C1009.16064 594.310972 1007.350976 614.558363 1002.283853 633.925722 997.216723 653.293082 988.982765 670.54738 977.581728 685.689133 966.180691 700.830887 951.612922 712.89129 933.877978 721.870701 916.143034 730.850114 895.33193 735.339752 871.444045 735.339752 850.089722 735.339752 830.635866 731.642403 813.081888 724.247593 795.527917 716.852783 780.417248 706.729087 767.749427 693.876204 755.081613 681.02332 745.30944 665.793761 738.432627 648.18707 731.555808 630.58038 728.117453 611.565439 728.117453 591.141678 728.117453 570.013649 731.465325 550.64658 738.161171 533.03989 744.857018 515.433199 754.357741 500.291673 766.663622 487.614856 778.969498 474.938038 793.98969 465.166472 811.724634 458.299862 829.459578 451.433253 849.36585 448 871.444045 448 903.29456 448 930.439475 455.042571 952.87961 469.127923 975.319744 483.213276 991.968627 506.629823 1002.826752 539.378267L934.963782 539.378267C932.430221 530.927055 925.55351 522.916131 914.33344 515.345254 903.113376 507.774378 889.721882 503.988996 874.158566 503.988996 852.442304 503.988996 835.793421 509.446988 824.211418 520.363136 812.629414 531.279284 806.295597 548.885711 805.209786 573.182943ZM0 320 1024 320 1024 256 0 256 0 320ZM0 128 1024 128 1024 64 0 64 0 128ZM0-64 768-64 768-128 0-128 0-64Z"  horiz-adv-x="1024" />

    
    <glyph glyph-name="bianhao" unicode="&#58942;" d="M268.502243 756.258329l691.682335 0 0-102.852506-691.682335 0 0 102.852506ZM268.502243 428.967144l691.682335 0 0-102.852506-691.682335 0 0 102.852506ZM268.502243 106.429217l691.682335 0 0-102.852506-691.682335 0 0 102.852506ZM71.02359 795.108149c7.865131 0 15.509229 0.655939 22.939455 1.965771 7.424086 1.310855 14.142092 3.492544 20.154016 6.554276 6.005784 3.056616 11.141758 6.989181 15.401782 11.796674 4.260024 4.802376 7.045463 10.701736 8.356318 17.696034l30.476105 0L168.351266 603.730447l-40.962947 0L127.388319 765.614417 71.02359 765.614417 71.02359 795.108149zM223.076658 276.607084 66.436108 276.607084c0.214894 19.006889 4.802376 35.606962 13.763468 49.810453 8.954953 14.198374 21.187555 26.543539 36.702923 37.030381 7.424086 5.458315 15.181771 10.758018 23.266913 15.893992 8.080026 5.130857 15.509229 10.650571 22.283516 16.548908 6.769171 5.89936 12.340049 12.288884 16.712637 19.170618 4.367471 6.881734 6.661723 14.797008 6.881734 23.7581 0 4.14746-0.491187 8.572236-1.474584 13.272281-0.983397 4.694929-2.898003 9.063423-5.734608 13.107529-2.841721 4.040013-6.774287 7.424086-11.797697 10.159384-5.028527 2.729158-11.58178 4.096295-19.661805 4.096295-7.429203 0-13.599739-1.474584-18.514679-4.423753-4.91494-2.949168-8.847505-6.994298-11.797697-12.125155-2.949168-5.135974-5.135974-11.19804-6.554276-18.188244-1.423419-6.994298-2.243087-14.530948-2.457981-22.610974L70.696132 422.1069c0 12.668531 1.689479 24.414039 5.079692 35.228339 3.384074 10.8143 8.463766 20.154016 15.238053 28.019147 6.769171 7.865131 15.018042 14.034645 24.741497 18.514679 9.718339 4.474918 21.023826 6.718005 33.917484 6.718005 13.978363 0 25.668613-2.293229 35.06461-6.881734 9.390881-4.587482 16.983813-10.378371 22.775726-17.368576 5.785773-6.994298 9.882068-14.582113 12.288884-22.774703 2.4017-8.192589 3.605108-16.006556 3.605108-23.430642 0-9.175987-1.423419-17.48114-4.260024-24.905226-2.841721-7.430226-6.66684-14.254655-11.469216-20.481474-4.808516-6.225795-10.270924-11.961426-16.385179-17.203824-6.118348-5.243421-12.452613-10.159384-19.006889-14.746866-6.554276-4.587482-13.108552-8.961092-19.661805-13.107529-6.554276-4.152577-12.616342-8.305153-18.187221-12.452613-5.570879-4.152577-10.435677-8.468882-14.583137-12.9438-4.152577-4.480035-6.994298-9.232269-8.520047-14.254655l111.74606 0L223.079728 276.607084zM128.371716 76.496487c6.113231-0.220011 12.232602 0.214894 18.35095 1.310855 6.113231 1.090844 11.576663 3.000334 16.385179 5.734608 4.802376 2.729158 8.683776 6.497994 11.632945 11.305487 2.949168 4.803399 4.423753 10.701736 4.423753 17.696034 0 9.830903-3.332908 17.696034-9.994632 23.594371-6.66684 5.89936-15.238053 8.847505-25.724895 8.847505-6.554276 0-12.237719-1.310855-17.040095-3.932566-4.807493-2.62171-8.79634-6.175653-11.961426-10.650571-3.169179-4.480035-5.519714-9.503445-7.045463-15.074324-1.530866-5.570879-2.186805-11.305487-1.965771-17.203824L68.074422 98.124064c0.434905 11.141758 2.509147 21.464871 6.226818 30.968315 3.712555 9.503445 8.791224 17.747199 15.238053 24.741497 6.441713 6.989181 14.254655 12.452613 23.430642 16.385179 9.175987 3.932566 19.549242 5.898337 31.132044 5.898337 8.954953 0 17.747199-1.310855 26.37981-3.932566 8.627495-2.62171 16.385179-6.446829 23.266913-11.469216 6.881734-5.027503 12.396331-11.418051 16.548908-19.170618 4.14746-7.756661 6.225795-16.661472 6.225795-26.707268 0-11.582803-2.62171-21.684882-7.865131-30.312376-5.243421-8.632611-13.43601-14.910595-24.577768-18.84316l0-0.655939c13.108552-2.62171 23.318078-9.123798 30.639834-19.498076 7.316639-10.378371 10.978029-22.995737 10.978029-37.85005 0-10.926864-2.186805-20.701484-6.554276-29.328979-4.372587-8.632611-10.270924-15.950274-17.696034-21.956058-7.429203-6.011924-16.057721-10.650571-25.888624-13.927197-9.830903-3.27765-20.210297-4.91494-31.132044-4.91494-13.328563 0-24.961508 1.914606-34.899858 5.734608-9.943466 3.820002-18.243503 9.227152-24.905226 16.22145-6.66684 6.989181-11.746532 15.401782-15.238053 25.232684-3.496637 9.830903-5.355985 20.75265-5.570879 32.770358l37.357839 0c-0.440022-13.983479 3.000334-25.617447 10.323113-34.899858 7.316639-9.28855 18.294668-13.927197 32.934087-13.927197 12.452613 0 22.883173 3.547803 31.295773 10.650571 8.407484 7.096628 12.616342 17.203824 12.616342 30.312376 0 8.954953-1.750877 16.057721-5.243421 21.300119-3.497661 5.243421-8.085142 9.227152-13.763468 11.961426-5.683443 2.729158-12.07399 4.423753-19.170618 5.079692-7.101745 0.655939-14.367219 0.870834-21.792329 0.655939L128.370693 76.496487z"  horiz-adv-x="1024" />

    
    <glyph glyph-name="gonggao" unicode="&#58885;" d="M877.955786-68.79048 143.374408-68.79048c-42.703591 0-77.323063 34.55398-77.323063 77.17673L66.051345 548.633594c0 42.62275 34.619472 77.17673 77.323063 77.17673l77.326133 0-1.172709 1.170662L453.767737 829.606871c4.922103 25.844621 27.047006 45.408189 54.041824 46.744627l1.683339 1.457188 1.172709-1.170662c0.636496 0 1.231037-0.166799 1.864464-0.186242l0.189312 0.186242 0.26913-0.232291c27.371394-1.101077 49.805336-20.985964 54.612829-47.189765l233.030357-201.352891-2.053776-2.053776 79.376839 0c42.705638 0 77.326133-34.55398 77.326133-77.17673l0-540.247344C955.281919-34.2365 920.662447-68.79048 877.955786-68.79048zM545.352619 772.622018c-9.695826-7.277754-21.61939-11.749602-34.685987-11.749602-13.008268 0-24.892947 4.428869-34.565237 11.649318l-169.604816-146.71141 408.758638 0L545.352619 772.622018zM897.287063 548.633594c0 10.656711-8.651031 19.293415-19.330254 19.293415L143.374408 567.927009c-10.676154 0-19.330254-8.636704-19.330254-19.293415l0-540.247344c0-10.653641 8.654101-19.293415 19.330254-19.293415l734.581378 0c10.679223 0 19.330254 8.639774 19.330254 19.293415L897.28604 548.633594zM761.971192 104.859465 259.362073 104.859465c-10.676154 0-19.330254 8.639774-19.330254 19.296485l0 19.293415c0 10.656711 8.654101 19.293415 19.330254 19.293415l502.610142 0c10.676154 0 19.328207-8.636704 19.328207-19.293415l0-19.293415C781.299399 113.49924 772.648368 104.859465 761.971192 104.859465zM761.971192 239.921557 259.362073 239.921557c-10.676154 0-19.330254 8.636704-19.330254 19.293415l0 19.293415c0 10.659781 8.654101 19.296485 19.330254 19.296485l502.610142 0c10.676154 0 19.328207-8.636704 19.328207-19.296485l0-19.293415C781.299399 248.558261 772.648368 239.921557 761.971192 239.921557zM529.997909 394.278087 259.362073 394.278087c-10.676154 0-19.330254 8.636704-19.330254 19.293415l0 19.296485c0 10.653641 8.654101 19.293415 19.330254 19.293415l270.635837 0c10.676154 0 19.330254-8.639774 19.330254-19.293415l0-19.296485C549.328164 402.914792 540.674063 394.278087 529.997909 394.278087z"  horiz-adv-x="1024" />

    
    <glyph glyph-name="renwuxuanshang" unicode="&#58933;" d="M64.356063 772.459568l0-47.159226 111.192012 0 0-509.924271L523.089441-4.456483 851.151415 215.273141 851.151415 725.301142l108.489444 0L959.640859 772.459568 64.356063 772.459568zM803.987792 241.35166l-1.287327-0.806853-280.079906-189.610644-1.442822 0.859617-298.465241 190.417497L222.712497 725.301142l581.275295 0L803.987792 241.35166zM298.668599 554.731588l426.659725 0 0-47.159026L298.668599 507.572562C298.668599 507.572562 298.668599 554.731588 298.668599 554.731588zM298.668599 426.43957l426.659725 0 0-47.159226L298.668599 379.280344C298.668599 379.280544 298.668599 426.43957 298.668599 426.43957z"  horiz-adv-x="1024" />

    
    <glyph glyph-name="shangban" unicode="&#59199;" d="M497.502309 605.212194M512.362762 831.978894c-247.632937 0-448.382077-200.74914-448.382077-448.3831 0-247.63703 200.74914-448.381054 448.382077-448.381054 247.638053 0 448.382077 200.744024 448.382077 448.381054C960.744839 631.230778 760.000815 831.978894 512.362762 831.978894zM765.192048 146.158057 259.5345 146.158057l0 43.970444 195.667402 0L455.201901 621.036601l76.94751 0 0-151.696957 193.46934 0 0-48.367591L532.149411 420.972053l0-230.843552 233.041614 0L765.191024 146.158057z"  horiz-adv-x="1024" />

    
    <glyph glyph-name="xiaban" unicode="&#59200;" d="M497.502309 605.212194M512.362762 831.978894c-247.632937 0-448.382077-200.74914-448.382077-448.3831 0-247.63703 200.74914-448.381054 448.382077-448.381054 247.638053 0 448.382077 200.744024 448.382077 448.381054C960.744839 631.230778 760.000815 831.978894 512.362762 831.978894zM736.611106 324.237895c-60.115146 41.015136-120.196523 73.272817-180.2779 96.734158l0 52.764738c63.000869-13.19144 123.117039-37.374212 180.2779-72.550363L736.611106 324.237895zM765.192048 568.271864 534.348496 568.271864l0-419.915745-76.94751 0L457.400986 568.271864 259.5345 568.271864l0 50.565652 505.657548 0L765.192048 568.271864z"  horiz-adv-x="1024" />

    
    <glyph glyph-name="guanli1" unicode="&#59123;" d="M367.563911 141.553497l-257.912926 0c-29.719803 0-53.889036 24.169233-53.889036 53.889036L55.761949 245.694059c0 17.271436 8.325856 33.572869 22.283116 43.623175 7.221131 5.254181 15.978099 10.427528 23.360897 13.768649l182.010219 98.697769 17.217547 24.788957-16.840324-21.016724c-64.181842 51.464029-87.48885 152.640694-87.48885 208.119457l0 118.582824c0 79.594106 107.751127 163.741836 209.601405 163.741836 100.556941 0 206.906954-84.174674 206.906954-163.741836l0-118.582824c0-14.684762-2.317229-145.33873-82.71967-208.523625 1.212503-14.819485-10.211972-28.857579-25.058402-30.097027-14.819485-1.239448-28.264799 8.783913-29.504247 23.603398-1.562782 18.861163 6.358906 37.102601 21.205336 48.850411 49.20069 38.665383 62.187947 125.615343 62.187947 166.193787l0 118.582824c0 41.38678-71.510751 109.8528-153.017918 109.8528-80.294664 0-155.712369-68.519909-155.712369-109.8528l0-118.582824c0-46.560127 20.882001-128.848685 67.307406-166.059064 14.738651-11.855588 22.498673-30.123971 20.801168-48.9043C336.523827 379.958592 325.638241 363.414658 309.094307 354.415189l-183.788557-99.559994c-5.766127-2.694452-11.370587-6.035572-15.681709-9.161136l0-50.251526 257.912926 0c14.873374 0 26.944518-12.0442 26.944518-26.944518S382.437285 141.553497 367.563911 141.553497zM772.755573-76.670154l5.550571 25.139235c0.754447 0.29639 1.535838 0.619724 2.290284 0.943058l20.774223-13.229758c23.522564-16.355322 59.008494-14.954207 78.300769 4.445845l21.420892 21.420892c18.995885 18.995885 20.531723 49.658747 4.068622 75.74104l-13.71476 22.90284c0.215556 0.565835 0.458057 1.104725 0.673613 1.67056l25.139235 6.278073c30.662861 7.059464 51.221529 29.773692 51.221529 56.583488l0 30.312583c0 31.84842-26.917573 53.91598-51.194584 58.307937l-24.465622 5.415848c-0.431112 1.077781-0.862225 2.155561-1.347226 3.233342l13.364481 22.283116c16.732546 26.648128 15.196708 57.284045-3.745288 76.226041l-21.474781 21.474781c-19.373108 19.373108-55.829041 19.992832-77.384656 5.01168l-21.609503-13.768649c-0.862225 0.377223-1.751394 0.727502-2.667507 1.104725l-5.30807 23.926732c-4.526679 25.327847-26.54035 52.272365-58.469604 52.272365L683.919497 411.025621c-26.809795 0-49.550969-20.585612-56.448765-50.709583L621.219604 335.284581C619.522099 334.610968 617.878483 333.910411 616.180979 333.182909L594.733142 346.843779c-23.441731 16.301433-58.927661 14.954207-78.273825-4.418901L495.038426 321.003986c-18.995885-18.968941-20.504778-49.604858-4.068622-75.794929l14.819485-24.735068C505.627621 220.042878 505.43901 219.63871 505.277343 219.234542l-23.441731-5.227236c-25.327847-4.580568-52.218476-26.648128-52.218476-58.496549l0-30.312583c0-26.782851 20.585612-49.524024 50.736527-56.47571l25.381736-6.305017-14.496151-24.169233c-16.678657-26.621184-15.169764-57.230156 3.799177-76.199097l21.367003-21.340058c19.373108-19.480886 55.802097-20.208388 77.465489-5.065569l22.390894 14.280595c1.724449-0.754447 3.475843-1.508893 5.200292-2.182506l6.089461-24.357844c7.059464-30.662861 29.773692-51.221529 56.583488-51.221529L714.447636-127.837794C746.269112-127.891683 768.363616-100.97411 772.755573-76.670154zM599.933434 3.382009 564.016392-19.574721c-1.535838-1.050836-4.526679-2.20945-9.457526-1.697505l-20.962835 20.558667c-0.29639 1.239448 0.377223 5.658349 3.556676 10.750863l22.148394 36.940934c4.715291 7.867799 5.092514 17.567826 1.050836 25.785904-3.583621 7.27502-6.331962 13.984205-8.460579 20.558667-2.856119 8.837802-10.07725 15.573931-19.103663 17.837271l-39.904831 9.942527c-5.388904 1.239448-8.999469 3.906955-9.403637 4.041678l0 30.258694c0.323334 1.455004 4.122511 4.850013 8.999469 5.739182l38.880939 8.622246c9.430581 2.101672 17.028935 9.080303 19.885054 18.322272 2.101672 6.763074 5.065569 14.011149 9.080303 22.121449 4.041678 8.218078 3.664454 17.918104-1.050836 25.785904L536.883262 273.366079C533.973254 278.02748 533.299641 282.473326 533.11103 282.877493l23.792009 21.798115c2.80223 0 5.658349-1.077781 8.002522-2.694452l34.973984-22.283116c8.164189-5.146403 18.510884-5.631404 27.079241-1.077781 8.029466 4.230289 16.436156 7.786966 25.085346 10.535307 8.918635 2.829174 15.708654 10.07725 17.971993 19.130608l9.861694 39.446774C681.090323 353.067963 683.730885 356.678528 683.919497 357.109641L714.178191 357.109641c1.428059-0.323334 4.796124-4.068622 5.685293-8.972524l8.730024-39.365941C730.668236 299.448372 737.512143 291.930852 746.565501 288.993899 754.594968 286.380281 762.570545 283.039161 770.249733 279.051372c8.514468-4.445845 18.780329-3.9339 26.863684 1.185559l35.000929 22.337005c1.508893 1.023892 4.418901 2.155561 9.457526 1.724449l20.962835-20.639501c0.29639-1.212503-0.377223-5.658349-3.583621-10.750863l-21.043669-35.054818c-4.796124-7.975577-5.119458-17.864215-0.889169-26.163127 4.203345-8.164189 7.409742-15.92421 9.861694-23.711176 2.883063-9.188081 10.481417-16.112822 19.85811-18.214494l39.904831-8.810857c3.853066-0.700557 7.652243-4.095567 7.975577-5.496682l0.242501-29.369525c-0.646668-1.104725-4.257234-3.772233-10.131139-5.092514l-39.41983-9.834749c-8.999469-2.26334-16.2206-8.972524-19.076719-17.756437-2.451951-7.463631-5.550571-14.900318-9.215025-22.040616-4.230289-8.271967-3.9339-18.160605 0.83528-26.136182l21.393947-35.674542c2.883063-4.607513 3.556676-8.999469 3.745288-9.430581l-23.765065-21.82506c-2.829174 0-5.631404 1.050836-8.029466 2.721396l-34.219538 21.798115c-8.083355 5.119458-18.349217 5.631404-26.863684 1.185559-7.517521-3.906955-15.358375-7.194186-23.307008-9.753916-9.080303-2.963897-15.897266-10.508362-17.971993-19.804221l-8.918635-40.470666c-0.700557-3.826122-4.068622-7.625299-5.523626-7.975577L685.078111-74.245148c-1.104725 0.646668-3.772233 4.257234-5.092514 10.131139l-9.673082 38.82705c-2.290284 9.134192-9.188081 16.409211-18.18755 19.211441-8.298912 2.586674-16.490045 6.035572-25.112291 10.589196-3.9339 2.074728-8.271967 3.09862-12.58309 3.09862C609.364016 7.612298 604.352335 6.184238 599.933434 3.382009zM817.591251 141.553497c0 65.259623-53.161534 118.367267-118.50199 118.367267-65.394345 0-118.555879-53.107645-118.555879-118.367267 0-65.232678 53.188478-118.313378 118.555879-118.313378C764.429717 23.240118 817.591251 76.320819 817.591251 141.553497zM763.702215 141.553497c0-35.512875-28.992301-64.424342-64.612954-64.424342-35.647597 0-64.666843 28.884523-64.666843 64.424342 0 35.539819 29.019246 64.478232 64.666843 64.478232C734.709913 206.004784 763.702215 177.093316 763.702215 141.553497z"  horiz-adv-x="1024" />

    
    <glyph glyph-name="xialakuangtishitubiao" unicode="&#58938;" d="M797.9584-128 0 683.4752 192.7168 871.2128 806.0608 247.5456 1403.2 896 1600 695.8656Z"  horiz-adv-x="1600" />

    
    <glyph glyph-name="shijian" unicode="&#58939;" d="M512 832c-256 0-460.8-208-460.8-460.8s208-460.8 460.8-460.8 460.8 208 460.8 460.8S768 832 512 832zM512-44.8c-227.2 0-412.8 185.6-412.8 412.8s185.6 412.8 412.8 412.8 412.8-185.6 412.8-412.8S742.4-44.8 512-44.8zM809.6 352l-278.4 0 0 281.6c0 12.8-9.6 22.4-22.4 22.4-12.8 0-22.4-9.6-22.4-22.4l0-307.2c0-12.8 9.6-22.4 22.4-22.4 0 0 3.2 0 3.2 0l297.6 0c12.8 0 22.4 9.6 22.4 22.4C832 342.4 822.4 352 809.6 352z"  horiz-adv-x="1024" />

    
    <glyph glyph-name="duihuanjilu" unicode="&#59136;" d="M531.033077-47.569901C281.863496-47.569901 79.150994 155.1426 79.150994 404.312181S281.863496 856.194264 531.033077 856.194264 982.915159 653.481763 982.915159 404.312181 780.202658-47.569901 531.033077-47.569901zM531.033077 822.016588c-230.341161 0-417.704407-187.363246-417.704407-417.704407s187.363246-417.704407 417.704407-417.704407 417.704407 187.363246 417.704407 417.704407S761.374238 822.016588 531.033077 822.016588zM693.78555 321.562107 404.468072 321.562107 492.706306 233.863496c6.195663-6.155691 6.195663-16.12871 0-22.264415-6.195663-6.155691-16.248626-6.155691-22.444289 0l-116.058759 115.339263c-6.195663 6.155691-6.195663 16.108724 0 22.264415 3.237734 3.217748 7.494754 4.65674 11.751774 4.516838-0.019986 0.219846-0.059958 0.419706-0.059958 0.639552l0 0.179874 327.930449 0c9.053662 0 16.408514-7.354852 16.408514-16.408514l0-0.179874C710.194064 328.876986 702.839213 321.562107 693.78555 321.562107zM693.78555 453.609673c0-0.239832 0.079944-0.479664 0.079944-0.739482L365.855101 452.870191c-9.033676 0-16.348556 7.31488-16.348556 16.32857 0 9.033676 7.31488 16.348556 16.348556 16.348556l289.517338 0-88.478065 87.918457c-6.195663 6.155691-6.195663 16.12871 0 22.264415 6.195663 6.155691 16.248626 6.155691 22.444289 0l116.058759-115.339263c6.195663-6.135705 6.195663-16.108724 0-22.264415C702.19966 454.968722 697.982612 453.509743 693.78555 453.609673z"  horiz-adv-x="1024" />

    
    <glyph glyph-name="zhicheng" unicode="&#59139;" d="M476.277404 786.469398c91.121324 0 165.255765-74.134441 165.255765-165.255765s-74.134441-165.255765-165.255765-165.255765-165.255765 74.134441-165.255765 165.255765S385.15608 786.469398 476.277404 786.469398M476.277404 831.290209c-115.996874 0-210.076576-94.034676-210.076576-210.076576 0-115.996874 94.079702-210.076576 210.076576-210.076576s210.076576 94.079702 210.076576 210.076576C686.35398 737.255533 592.274278 831.290209 476.277404 831.290209M86.786599-50.291151c-12.370749 0-22.410406 10.039657-22.410406 22.410406 0 229.708705 186.858782 416.567487 416.567487 416.567487 48.451502 0 95.961562-8.246825 141.186579-24.517393 11.653411-4.167926 17.704221-17.031908 13.536294-28.685319-4.167926-11.653411-17.166985-17.794271-28.685319-13.446243-40.33873 14.476713-82.739423 21.828145-126.036531 21.828145-204.967208 0-371.746676-166.779468-371.746676-371.746676C109.197004-40.251493 99.157347-50.291151 86.786599-50.291151M814.834166-59.497836c-12.011568 0-24.87555 3.585665-38.321794 10.666944-29.671787 15.553231-86.729294 15.553231-116.490108 0-30.568203-16.135492-60.059887-13.177114-76.599585 6.408967-8.022721 9.591449-16.628726 27.340695-11.474332 57.550741 5.916756 34.512025-10.891048 86.281085-35.991726 110.797455-28.596292 27.833929-26.2652 52.351322-22.321378 64.452941 3.89982 12.146645 16.449647 33.346479 55.982012 39.084157 34.691103 5.02034 78.70555 36.977169 94.213755 68.396763 17.749246 35.856649 41.72838 41.190121 54.457286 41.190121s36.70804-5.333472 54.413284-41.190121c15.553231-31.374568 59.567677-63.377446 94.258781-68.396763 39.532365-5.736655 52.037167-26.937512 55.936987-39.084157 3.943822-12.101619 6.274914-36.619012-22.36538-64.497966-25.054629-24.472368-41.862433-76.240405-35.901675-110.753453 5.154393-30.16502-3.451612-47.958268-11.519358-57.550741C843.833641-53.447027 830.252321-59.497836 814.834166-59.497836M718.28932 8.27164c29.581736 0 57.684794-6.229888 79.109756-17.480116 19.452028-10.219759 20.886703-4.885264 21.423939-4.303003 1.613754 1.882883 3.764744 8.470929 1.568728 21.020756-8.425903 49.392944 12.998035 115.503641 48.854685 150.464897 10.577916 10.308787 11.564383 17.031908 11.026124 18.600637-0.448208 1.523703-5.199419 6.364965-19.766183 8.470929-49.572022 7.216355-105.822141 48.048319-128.009466 93.004207-6.499018 13.222139-12.594853 16.180518-14.208607 16.180518-1.613754 0-7.753591-3.003404-14.252609-16.180518-22.141276-44.910862-78.347392-85.787852-127.96444-93.004207-14.611789-2.106987-19.317974-6.947226-19.811208-8.515954-0.538259-1.523703 0.448208-8.246825 10.981099-18.511609 35.901675-35.005258 57.326637-101.071953 48.944735-150.464897-2.196015-12.639878-0.045025-19.183921 1.523703-21.065781 6.633071-1.210571 12.370749-0.448208 21.468964 4.303003C660.604526 2.041752 688.707584 8.27164 718.28932 8.27164"  horiz-adv-x="1024" />

    
    <glyph glyph-name="leixing" unicode="&#58893;" d="M873.422058 841.133775l0-312.106207-309.03631 0 0 312.106207L873.422058 841.133775M892.875996 895.368624 545.370805 895.368624c-20.842555 0-38.289803-15.92151-38.289803-36.764065l0-347.505191c0-20.842555 17.447249-39.376547 38.289803-39.376547l347.505191 0c20.842555 0 38.874107 18.535016 38.874107 39.376547L931.750103 858.60456c0 20.842555-18.130812 36.764065-38.972344 36.764065L892.875996 895.368624zM373.028827 339.717246l0-308.013011-309.03631 0 0 308.013011L373.028827 339.717246M392.846036 398.045291 45.340846 398.045291c-20.842555 0-38.653075-18.628136-38.653075-39.470691l0-347.505191c0-20.842555 17.81052-38.716519 38.653075-38.716519l347.505191 0c20.842555 0 38.510836 17.873964 38.510836 38.716519L431.356873 358.5746C431.356873 379.416132 413.687568 398.045291 392.846036 398.045291L392.846036 398.045291zM373.028827 841.133775l0-312.106207-309.03631 0 0 312.106207L373.028827 841.133775M392.846036 895.368624 45.340846 895.368624c-20.842555 0-38.653075-15.92151-38.653075-36.764065l0-347.505191c0-20.842555 17.81052-39.376547 38.653075-39.376547l347.505191 0c20.842555 0 38.510836 18.533992 38.510836 39.376547L431.356873 858.60456c0 20.842555-17.651908 36.764065-38.49344 36.764065L392.846036 895.368624zM1007.92346-79.674703 880.320117 47.928641c31.361046 36.893 50.294125 84.677996 50.294125 136.893876l0 0c0 116.803446-94.686883 211.490329-211.490329 211.490329l0 0c-116.803446 0-211.490329-94.686883-211.490329-211.490329l0 0c0-116.803446 94.687907-211.490329 211.490329-211.490329l0 0c44.155354 0 85.143597 13.53927 119.057773 36.681177l129.71441-129.71441c5.525815-5.525815 12.769749-8.290769 20.013683-8.290769s14.487868 2.763931 20.013683 8.290769C1018.976113-108.649415 1018.976113-90.728379 1007.92346-79.674703zM719.122889 29.93802c-85.403515 0-154.883473 69.480982-154.883473 154.883473 0 85.402491 69.480982 154.883473 154.883473 154.883473s154.883473-69.479958 154.883473-154.883473C874.006362 99.419002 804.526403 29.93802 719.122889 29.93802z"  horiz-adv-x="1024" />

    
    <glyph glyph-name="jifen" unicode="&#59679;" d="M507.334155 209.554514c-76.558977 0-134.477099 14.312893-173.757436 42.940727v-42.940727c0-6.670613 2.161422-12.996176 6.486314-18.98181 4.322844-5.987681 10.150799-11.483898 17.478746-16.486602 7.326923-5.007823 16.315613-9.505751 26.967092-13.484569 10.649431-3.983938 22.30227-7.480506 34.955445-10.479467 12.653175-3.006127 26.466412-5.337514 41.443806-6.99928 14.977395-1.66279 30.449326-2.492137 46.426033-2.492137 47.929096 0 88.867103 6.656278 122.827331 19.970884 33.94999 13.315629 50.92908 29.621002 50.92908 48.917145V252.464524c-39.276241-28.631929-97.201529-42.944822-173.756411-42.944822v0.034812z m0 102.820612c-76.558977 0-134.477099 14.314941-173.757436 42.942774v-42.942774c0-18.635737 16.978066-34.782408 50.932152-48.443086 33.955109-13.649415 74.896188-20.47873 122.825284-20.478731s88.867103 6.829315 122.827331 20.478731c33.94999 13.660678 50.92908 29.806326 50.92908 48.443086v42.942774c-39.277265-28.627834-97.201529-42.942774-173.756411-42.942774zM333.607436 456.162414v-39.940743c0-19.301262 16.977043-35.605612 50.934199-48.921241 33.955109-13.311533 74.899259-19.970883 122.827332-19.970883 47.923977 0 88.867103 6.65935 122.821188 19.970883 33.956133 13.315629 50.935223 29.621002 50.935223 48.921241v39.940743c-38.621978-28.629881-96.542147-42.945846-173.756411-42.945846a765.815029 765.815029 0 0 0-27.959237 0.511942 269.622794 269.622794 0 0 0-27.958213 2.494185 620.065977 620.065977 0 0 0-27.450365 4.503048c-8.969235 1.683267-17.628234 3.687011-25.979042 6.008159-8.348761 2.322172-16.338138 4.985298-23.964037 7.988353a229.554066 229.554066 0 0 0-21.981794 9.999264c-7.029997 3.665509-13.185595 7.489721-18.469867 11.471611v-0.030716z m173.726719 170.754379c-23.300558 0-45.76665-1.832755-67.388037-5.49724-21.62241-3.662438-40.089206-8.660022-55.404483-14.985586-15.316301-6.325564-27.628522-13.654535-36.937687-21.981794-9.308141-8.330331-13.973987-17.150079-13.995488-26.45822v-41.953702c0-18.639832 16.977043-34.78548 50.934199-48.441038 33.955109-13.654535 74.899259-20.481802 122.827332-20.481802 47.923977 0 88.867103 6.827267 122.821188 20.481802 33.956133 13.654535 50.935223 29.800182 50.935223 48.441038v41.953702c0 18.639832-16.97909 34.78548-50.935223 48.440014-33.954085 13.654535-74.897212 20.481802-122.821188 20.481802h-0.035836z m3.993152-688.959124c-60.584319 0-118.500392 11.811541-173.756411 35.431551-55.258067 23.62513-102.857472 55.40653-142.798215 95.348297-39.939719 39.940743-71.720095 87.535028-95.346249 142.792072-23.621034 55.259091-35.433599 113.008271-35.433599 173.248564 0 60.242341 11.812565 117.989473 35.434623 173.24754 23.62513 55.258067 55.405507 102.8544 95.346249 142.795143 39.941767 39.940743 87.541171 71.723167 142.798215 95.345225 55.254995 23.626154 113.001104 35.438719 173.241397 35.438719 60.245413 0 117.989473-11.812565 173.246516-35.437695 55.259091-23.622058 102.857472-55.404483 142.799239-95.345225 39.940743-39.940743 71.724191-87.368135 95.347273-142.2832 23.62513-54.916089 35.432576-112.665269 35.432575-173.247541 0-48.58643-7.484602-95.686179-22.461996-141.294127-14.978418-45.606924-36.276257-86.704657-63.904778-123.306509-27.629545-36.594685-59.7519-68.71704-96.367063-96.366039-36.620283-27.654119-77.724159-48.952981-123.307534-63.905803-45.581327-14.952821-92.351385-22.441519-140.306078-22.460972h0.035836z m0 860.702577c-56.579903 0-110.329787-10.98117-161.26501-32.94351-50.931128-21.96234-94.866047-51.423617-131.803734-88.380758-36.935639-36.957141-66.395892-80.89206-88.37871-131.803734-21.984866-50.911674-32.966036-104.334938-32.94351-160.274913 0-75.212568 18.46782-144.614587 55.405507-208.199913 36.937687-63.58635 87.19817-113.845809 150.783496-150.786568 63.58635-36.935639 132.818404-55.401411 207.688995-55.401411 74.878782 0 144.110836 18.465772 207.697186 55.401411 63.585326 36.939735 113.844785 87.200218 150.780424 150.786568 36.940759 63.585326 55.407554 132.987345 55.407555 208.199913 0 55.917449-10.979122 109.343785-32.945558 160.274913-21.957221 50.932152-51.42464 94.867071-88.37871 131.803734-36.955093 36.937687-80.890012 66.398963-131.803734 88.380758s-104.33801 32.963988-160.279009 32.94351h0.034812z"  horiz-adv-x="1024" />

    
    <glyph glyph-name="gongzuoribao" unicode="&#58916;" d="M284.706 894.952c8.523 0-113.647 19.888-113.647-113.647v-681.882H29v-113.647c0-62.506 51.141-113.647 113.646-113.647h738.706c62.507 0 113.647 51.142 113.647 113.647V894.952H284.706zM171.059-19.907c0-31.252-19.888-51.141-42.618-53.982-19.888 0-42.617 25.57-42.617 53.982V42.6h85.235v-62.507z m767.118 5.682c0-31.253-25.571-56.823-56.824-56.823h-653.47V752.894s-14.206 85.235 85.235 85.235h625.059v-852.354zM369.941 269.894h454.588c17.048 0 28.411 11.364 28.411 28.411 0 17.048-11.363 28.412-28.411 28.412H369.941c-17.047 0-28.411-11.364-28.411-28.412 0-17.047 11.364-28.411 28.411-28.411z m113.647 142.058h340.941c17.048 0 28.411 11.365 28.411 28.412 0 17.047-11.363 28.412-28.411 28.412H483.588c-17.047 0-28.412-11.364-28.412-28.412 0-17.047 11.366-28.412 28.412-28.412z"  horiz-adv-x="1024" />

    
    <glyph glyph-name="dongtai" unicode="&#59059;" d="M512 661.504l77.824-157.696 14.336-28.672 31.744-5.12 174.08-25.6-125.952-122.88-23.552-22.528 5.12-31.744 29.696-174.08-155.648 81.92-27.648 15.36-28.672-15.36-155.648-81.92 29.696 174.08 5.12 31.744-23.552 22.528-125.952 122.88 174.08 25.6 31.744 5.12 14.336 28.672L512 661.504m0 100.352c-11.264 0-21.504-6.144-27.648-17.408L378.88 530.432 142.336 496.64c-25.6-4.096-34.816-34.816-17.408-52.224L296.96 277.504l-39.936-235.52c-3.072-19.456 12.288-35.84 30.72-35.84 5.12 0 9.216 1.024 14.336 4.096L512 120.832l210.944-110.592c5.12-2.048 9.216-4.096 14.336-4.096 17.408 0 33.792 16.384 30.72 35.84l-39.936 235.52 171.008 166.912c18.432 17.408 8.192 49.152-17.408 52.224L645.12 530.432 539.648 744.448c-6.144 11.264-16.384 17.408-27.648 17.408z"  horiz-adv-x="1024" />

    
    <glyph glyph-name="wujiaoxing" unicode="&#58940;" d="M992 496.8l-331.2 50.4-148.8 316.8-148.8-316.8-331.2-50.4 240-244.8-57.6-348 297.6 163.2 297.6-163.2-57.6 348 240 244.8zM512 139.2l-223.2-124.8 43.2 249.6-192 194.4 259.2 33.6 112.8 240 112.8-240 259.2-36-192-192 40.8-252-220.8 127.2z"  horiz-adv-x="1024" />

    
    <glyph glyph-name="mg-star" unicode="&#58941;" d="M405.486 522.907c4.406 0.513 9.578 4.275 11.494 8.339 1.891 4.062 17.87 38.793 35.483 77.148l42.042 91.646c17.61 38.359 46.427 38.359 64.036 0l42.070-91.646c17.607-38.356 33.537-73.058 35.401-77.096 1.836-4.041 7.009-7.798 11.444-8.345 4.433-0.542 42.12-5.12 83.718-10.152l99.126-12.023c41.594-5.030 50.491-32.676 19.759-61.42l-73.247-68.518c-30.703-28.759-58.496-54.763-61.75-57.808-3.254-3.046-5.225-9.121-4.386-13.504 0.842-4.38 8.163-41.902 16.274-83.383l19.342-99.141c8.108-41.481-15.222-58.573-51.804-37.987l-87.446 49.173c-36.585 20.591-69.677 39.216-73.539 41.418-3.882 2.194-10.181 2.194-14.038 0-3.859-2.202-36.952-20.827-73.539-41.418l-87.39-49.173c-36.585-20.586-59.891-3.494-51.809 37.987l19.397 99.218c8.111 41.481 15.429 78.99 16.271 83.373 0.868 4.386-1.102 10.434-4.356 13.467-3.254 3.031-31.074 29.020-61.804 57.754l-73.326 68.554c-30.732 28.73-21.835 56.363 19.762 61.407l99.199 12.035c41.6 5.035 79.235 9.573 83.617 10.094z"  horiz-adv-x="1076" />

    
    <glyph glyph-name="zhiwei" unicode="&#58906;" d="M838.144 44.032 187.392 44.032c-57.344 0-104.448 46.592-104.448 104.448L82.944 619.52c0 57.344 46.592 104.448 104.448 104.448l650.752 0c57.344 0 104.448-46.592 104.448-104.448l0-471.04C942.592 91.136 895.488 44.032 838.144 44.032zM187.392 681.984c-34.304 0-62.464-28.16-62.464-62.464l0-471.04c0-34.304 28.16-62.464 62.464-62.464l650.752 0c34.304 0 62.464 28.16 62.464 62.464L900.608 619.52c0 34.304-28.16 62.464-62.464 62.464L187.392 681.984zM375.296 337.408c-68.096 0-123.904 55.296-123.904 123.904 0 68.096 55.296 123.904 123.904 123.904 68.096 0 123.904-55.296 123.904-123.904C498.688 393.216 443.392 337.408 375.296 337.408zM375.296 543.744c-45.056 0-81.92-36.864-81.92-81.92s36.864-81.92 81.92-81.92c45.056 0 81.92 36.864 81.92 81.92S420.352 543.744 375.296 543.744zM530.432 182.272c-11.264 0-20.992 9.216-20.992 20.992 0 74.24-60.416 134.144-134.144 134.144-74.24 0-134.144-60.416-134.144-134.144 0-11.264-9.216-20.992-20.992-20.992-11.264 0-20.992 9.216-20.992 20.992 0 97.28 78.848 176.128 176.128 176.128 97.28 0 176.128-78.848 176.128-176.128C550.912 192 541.696 182.272 530.432 182.272zM809.984 496.64l-225.28 0c-11.264 0-20.992 9.216-20.992 20.992 0 11.264 9.216 20.992 20.992 20.992l225.28 0c11.264 0 20.992-9.216 20.992-20.992C830.464 505.856 821.248 496.64 809.984 496.64zM809.984 371.712l-204.288 0c-11.264 0-20.992 9.216-20.992 20.992 0 11.264 9.216 20.992 20.992 20.992l204.288 0c11.264 0 20.992-9.216 20.992-20.992C830.464 380.928 821.248 371.712 809.984 371.712zM809.984 246.272l-183.296 0c-11.264 0-20.992 9.216-20.992 20.992s9.216 20.992 20.992 20.992l183.296 0c11.264 0 20.992-9.216 20.992-20.992S821.248 246.272 809.984 246.272z"  horiz-adv-x="1024" />

    
    <glyph glyph-name="jifen1" unicode="&#59676;" d="M867.512 477.284c-35.869 35.869-78.732 62.2-125.512 77.731V703.25c0 27.974-18.967 67.616-109.324 97.606C570.747 821.41 488.899 832.73 402.211 832.73S233.675 821.41 171.746 800.855c-90.358-29.99-109.325-69.632-109.325-97.606v-600.636c0-27.975 18.967-67.616 109.325-97.606 61.929-20.554 143.776-31.874 230.465-31.874 24.141 0 48.154 0.893 71.519 2.644 49.747-30.348 107.001-46.58 166.757-46.58 46.299 0 90.986 9.65 132.819 28.682 40.401 18.38 76.004 44.485 105.82 77.592 9.239 10.26 8.413 26.067-1.847 35.308-10.258 9.237-26.065 8.413-35.308-1.847-51.359-57.027-124.798-89.734-201.485-89.734-149.464 0-271.062 121.599-271.062 271.063S491.022 521.32 640.486 521.32c149.465 0 271.063-121.598 271.063-271.062 0-13.645-1.021-27.345-3.035-40.72-2.056-13.652 7.347-26.388 20.999-28.443 13.654-2.047 26.388 7.346 28.444 20.999a324.635 324.635 0 0 1 3.592 48.164c0 85.76-33.397 166.385-94.037 227.026zM187.497 753.401c56.983 18.913 133.237 29.329 214.714 29.329s157.731-10.416 214.714-29.329C668.507 736.281 692 715.403 692 703.25s-23.493-33.031-75.075-50.152c-56.982-18.913-133.236-29.329-214.714-29.329s-157.731 10.416-214.714 29.329c-51.582 17.121-75.075 37.999-75.075 50.152s23.493 33.031 75.075 50.151z m-75.076-431.692c46.597-30.096 125.667-48.865 207.368-56.127a327.855 327.855 0 0 1-0.365-15.323c0-33.135 5.006-65.496 14.623-96.242-61.382 4.586-117.099 15.317-159.506 30.906-29.521 10.852-51.355 23.944-62.12 36.676v100.11zM323.313 300.4c-60.472 5.297-114.962 16.653-155.331 32.521-26.404 10.38-45.678 22.356-55.562 34.074V467.163c16.143-10.429 36.755-19.869 61.688-28.144C225.382 422 290.58 411.394 360.912 408.403c-18.927-33.34-31.645-69.822-37.599-108.003z m90.148-277.167l0.026-0.025c-3.754-0.046-7.513-0.075-11.276-0.075-81.478 0-157.731 10.416-214.714 29.329-51.582 17.12-75.075 37.998-75.075 50.151v73.562c12.779-8.274 29.153-16.423 50.044-24.103 49.128-18.059 114.329-29.981 185.275-34.021 15.763-34.863 37.856-66.953 65.72-94.818z m0 454.051a325.678 325.678 0 0 1-30.018-34.574c-146.204 2.783-244.137 37.776-271.021 69.717V632.069c15.126-9.242 34.533-18.197 59.325-26.426 61.929-20.555 143.776-31.875 230.465-31.875s168.536 11.32 230.465 31.875c24.791 8.229 44.198 17.184 59.324 26.425v-64.857a325.148 325.148 0 0 1-51.514 4.109c-85.759 0-166.385-33.396-227.026-94.036zM777.71 428.588c-32.906 25.356-72.092 41.062-113.319 45.419-9.617 1.021-18.227-5.952-19.243-15.563-1.016-9.611 5.952-18.227 15.563-19.242 70.606-7.463 130.641-53.234 156.677-119.451 2.71-6.893 9.308-11.102 16.291-11.102 2.13 0 4.297 0.392 6.398 1.219 8.995 3.536 13.42 13.695 9.883 22.689-14.893 37.88-39.877 71.086-72.25 96.031z"  horiz-adv-x="1024" />

    
    <glyph glyph-name="tongji" unicode="&#59594;" d="M148.58406 12.325979h726.83188V-20.711462H148.58406zM214.659965 524.40989h132.150785v-462.529285H214.659965zM445.924095 788.712485h132.150786v-726.83188H445.924095zM677.188226 326.1832h132.150786v-264.302595H677.188226z"  horiz-adv-x="1024" />

    
    <glyph glyph-name="paiming" unicode="&#58959;" d="M909.542178 743.097588l-492.524436 0c-28.061103 0-51.02-22.958898-51.02-51.02l0 0c0-28.061103 22.958898-51.02 51.02-51.02l492.524436 0c28.060079 0 51.018977 22.958898 51.018977 51.02l0 0C960.562179 720.13869 937.602258 743.097588 909.542178 743.097588zM258.547521 731.900571l-43.597961 6.330172c-3.469008 0.730641-6.474458 2.977821-7.710612 5.870708l-19.295462 41.210587c-7.382131 16.055674-29.025057 16.055674-36.423561-0.034792l-19.204387-41.007973c-1.855254-3.458775-4.647857-5.706979-7.589862-6.012947l-43.694151-6.338359c-16.841573-2.801812-23.486924-23.799032-11.476379-36.293601l31.41857-31.631418c2.52859-2.631944 3.727904-6.180769 3.108804-9.393951l-7.608282-44.842301c-2.695389-17.523095 14.814404-30.794353 29.65746-22.37152l38.85596 20.99722c3.149736 1.817392 6.349615 1.817392 9.374508 0.069585l39.070854-21.11797c14.754029-8.372691 32.263821 4.89959 29.581736 22.338774l-7.600095 44.808532c-0.323365 3.5038 0.810459 7.141654 3.14769 9.570983l31.299867 31.509644C281.934161 708.117912 275.28881 729.115132 258.547521 731.900571zM909.542178 461.840856l-492.524436 0c-28.061103 0-51.02-22.958898-51.02-51.02l0 0c0-28.061103 22.958898-51.02 51.02-51.02l492.524436 0c28.060079 0 51.018977 22.958898 51.018977 51.02l0 0C960.562179 438.881958 937.602258 461.840856 909.542178 461.840856zM258.547521 453.713758l-43.597961 6.330172c-3.469008 0.730641-6.474458 2.977821-7.710612 5.870708l-19.295462 41.210587c-7.382131 16.055674-29.025057 16.055674-36.423561-0.034792l-19.204387-41.007973c-1.855254-3.458775-4.647857-5.706979-7.589862-6.012947l-43.694151-6.338359c-16.841573-2.801812-23.486924-23.799032-11.476379-36.293601l31.41857-31.631418c2.52859-2.631944 3.727904-6.180769 3.108804-9.393951l-7.608282-44.842301c-2.695389-17.523095 14.814404-30.794353 29.65746-22.37152l38.85596 20.99722c3.149736 1.817392 6.349615 1.817392 9.374508 0.069585l39.070854-21.11797c14.754029-8.372691 32.263821 4.89959 29.581736 22.338774l-7.600095 44.808532c-0.323365 3.5038 0.810459 7.141654 3.14769 9.570983l31.299867 31.509644C281.934161 429.931099 275.28881 450.928319 258.547521 453.713758zM909.542178 166.322305l-492.524436 0c-28.061103 0-51.02-22.958898-51.02-51.02l0 0c0-28.061103 22.958898-51.02 51.02-51.02l492.524436 0c28.060079 0 51.018977 22.958898 51.018977 51.02l0 0C960.562179 143.363408 937.602258 166.322305 909.542178 166.322305zM258.547521 164.335045l-43.597961 6.330172c-3.469008 0.730641-6.474458 2.977821-7.710612 5.870708l-19.295462 41.210587c-7.382131 16.055674-29.025057 16.055674-36.423561-0.034792l-19.204387-41.007973c-1.855254-3.458775-4.647857-5.706979-7.589862-6.012947l-43.694151-6.338359c-16.841573-2.801812-23.486924-23.799032-11.476379-36.293601l31.41857-31.631418c2.52859-2.631944 3.727904-6.180769 3.108804-9.393951l-7.608282-44.842301c-2.695389-17.523095 14.814404-30.794353 29.65746-22.37152l38.85596 20.99722c3.149736 1.817392 6.349615 1.817392 9.374508 0.069585l39.070854-21.11797c14.754029-8.372691 32.263821 4.89959 29.581736 22.338774l-7.600095 44.808532c-0.323365 3.5038 0.810459 7.141654 3.14769 9.570983l31.299867 31.509644C281.934161 140.552385 275.28881 161.549605 258.547521 164.335045z"  horiz-adv-x="1024" />

    
    <glyph glyph-name="lianmengkeyongjifen" unicode="&#58929;" d="M567.838233 892.800911c-281.119914 30.791228-533.847916-171.951014-564.639144-453.070928-30.791228-281.119914 171.951014-533.847916 453.070928-564.639144 281.119914-30.791228 533.847916 171.951014 564.639144 453.070928 12.796355 115.167191-14.795785 225.135863-70.37995 317.909433-3.598975 3.998861-8.397608 6.798063-13.996013 7.19795-12.396468 1.199658-23.593279-7.597836-24.792937-19.994304-0.799772-6.398177 1.199658-12.396468 5.198519-17.195102v-0.399886c47.98633-82.376532 71.179722-180.348622 59.982912-282.319572-27.992026-254.327546-256.726863-438.275143-511.454296-410.283117-254.327546 27.992026-438.275143 256.726863-410.283117 511.454295 27.992026 254.327546 256.726863 438.275143 511.454295 410.283118 77.577899-8.397608 148.757622-34.790089 209.540306-75.978355h0.399886c1.99943-0.799772 3.998861-1.599544 6.398177-1.999431 12.396468-1.199658 23.593279 7.597836 25.192823 19.994304 1.199658 9.597266-4.398747 18.39476-12.396468 22.793507-66.780975 43.987469-143.958989 73.978925-227.935065 83.176304zM778.578196 442.929072v-164.353178h-1.599544c-4.398747-72.37938-127.163773-128.363431-257.126749-128.363432s-232.333812 55.984051-236.732559 128.363432h-1.599544v164.353178c-1.199658 5.598405 0 11.596696 0 17.594988 0 76.378241 103.570495 136.361153 238.332103 136.361153s258.726293-59.982912 258.726293-136.361153c-0.399886-5.998291 1.199658-11.596696 0-17.594988z m-259.126179 113.967533c-116.766735 0-204.341787-52.385076-204.341786-96.372545 0-43.987469 87.575051-93.173456 204.341786-93.173457 116.766735 0 225.535749 49.185988 225.535749 93.173457s-108.769014 96.372545-225.535749 96.372545z m227.535179-169.151812c-42.78781-36.389633-143.159216-61.18257-227.535179-61.18257-84.775849 0-163.953293 24.792937-206.341217 61.18257v-27.192253c11.19681-47.186557 106.369697-87.974937 206.341217-87.974938 100.371406 0 216.338369 41.188266 227.535179 87.974938v27.192253z m0-86.775279c-41.588152-37.189405-131.962406-62.782114-227.535179-62.782114-92.77357 0-164.753065 25.992595-206.341217 62.782114v-21.193962c11.19681-47.186557 95.572773-90.374254 206.341217-90.374254 108.769014 0 216.338369 43.187697 227.535179 90.374254v21.193962z"  horiz-adv-x="1024" />

    
    <glyph glyph-name="xueli" unicode="&#58912;" d="M260.391 135.447c-13.693 0-24.773 11.965-24.773 26.755V386.675c0 14.796 11.08 26.763 24.773 26.763 13.699 0 24.78-11.967 24.78-26.763v-224.473c0-14.79-11.081-26.755-24.78-26.755z m260.592-82.81c-95.057 0-223.884 40.066-265.855 74.496-12.267 10.068-18.49 20.729-18.49 31.714 0 14.07 13.507 25.455 30.199 25.455 14.483 0 26.571-8.598 29.526-20.055 18.99-18.79 140.299-62.817 230.343-60.629 92.996 2.16 212.12 42.133 232.085 60.897 3.038 11.331 15.07 19.787 29.442 19.787 16.694 0 30.198-11.386 30.198-25.455 0-57.416-203.53-104.126-290.074-106.135-2.418-0.051-4.894-0.075-7.374-0.075z m6.548 198.3a30.698 30.698 0 0 0-14.246 3.51L96.647 472.542C86.538 477.82 80.18 488.317 80.18 499.74a30.69 30.69 0 0 0 16.466 27.204L513.285 745.28a30.658 30.658 0 0 0 28.493 0l416.608-218.336c10.108-5.308 16.47-15.775 16.47-27.173 0-11.395-6.3-21.895-16.408-27.203L541.752 254.446a30.517 30.517 0 0 0-14.22-3.509zM154.063 499.734L527.527 304.26l373.599 195.407-373.599 195.8-373.464-195.734zM794.165 139.54c-13.675 0-24.742 12.022-24.742 26.884V391.97c0 14.866 11.066 26.891 24.742 26.891 13.673 0 24.733-12.025 24.733-26.891v-225.548c0-14.86-11.06-26.883-24.733-26.883z m154.579 18.427c-14.14 0-25.59 11.443-25.59 25.597v313.03c0 14.15 11.448 25.6 25.59 25.6 14.149 0 25.6-11.45 25.6-25.6v-313.03c0-14.154-11.451-25.597-25.6-25.597z"  horiz-adv-x="1024" />

    
    <glyph glyph-name="shouye" unicode="&#59008;" d="M81.264365 396.951633C48.354864 363.25958 59.924842 335.946775 107.152702 335.946775L179.680605 335.946775 179.680605 93.590776 180.211432-10.77939C180.211432-39.818019 203.754799-63.366212 232.798255-63.366212L369.227799-63.366212C398.271255-63.366212 421.814622-39.818019 421.814622-10.77939L421.814622 166.665984C421.814622 178.410622 431.310436 187.931533 443.051795 187.931533L568.260486 187.931533C579.989453 187.931533 589.497658 178.347292 589.497658 166.665984L589.497658-10.77939C589.497658-39.818019 613.041024-63.366212 642.08448-63.366212L778.514027-63.366212C807.557481-63.366212 831.100849-39.818019 831.100849-10.77939L831.100849 93.590776 831.62685 335.946775 904.156969 335.946775C951.365647 335.946775 962.925602 363.292154 930.047917 396.951633L565.244064 770.430103C532.334562 804.122157 478.945901 804.089583 446.068215 770.430103L81.264365 396.951633Z"  horiz-adv-x="1024" />

    
    <glyph glyph-name="jia" unicode="&#59018;" d="M60.509091 449.163636h902.981818c32.581818 0 60.509091-27.927273 60.509091-60.509091 0-32.581818-27.927273-60.509091-60.509091-60.50909H60.509091c-32.581818 0-60.509091 27.927273-60.509091 60.50909 0 34.909091 27.927273 60.509091 60.509091 60.509091zM572.509091 835.490909v-902.981818c0-32.581818-27.927273-60.509091-60.509091-60.509091-32.581818 0-60.509091 27.927273-60.509091 60.509091V835.490909C451.490909 868.072727 479.418182 896 512 896c32.581818 0 60.509091-27.927273 60.509091-60.509091z"  horiz-adv-x="1024" />

    
    <glyph glyph-name="sousuo" unicode="&#58889;" d="M966.4-28.8L736 198.4c60.8 67.2 96 156.8 96 256C832 672 656 844.8 441.6 844.8c-217.6 0-390.4-176-390.4-390.4 0-217.6 176-390.4 390.4-390.4 99.2 0 188.8 35.2 256 96L928-67.2c9.6-9.6 28.8-9.6 38.4 0 12.8 12.8 12.8 28.8 0 38.4z m-864 483.2c0 185.6 150.4 339.2 339.2 339.2s339.2-150.4 339.2-339.2c0-89.6-35.2-172.8-92.8-233.6-3.2 0-3.2-3.2-6.4-3.2-3.2-3.2-3.2-3.2-3.2-6.4-60.8-57.6-144-92.8-233.6-92.8-188.8-3.2-342.4 150.4-342.4 336z"  horiz-adv-x="1024" />

    
    <glyph glyph-name="yuangongnianling" unicode="&#59135;" d="M0-128V896h1024v-1024H0zM938.666667 810.666667H85.333333v-853.333334h853.333334V810.666667zM388.113067 411.912533C359.185067 442.496 341.333333 483.652267 341.333333 529.066667c0 94.2592 76.407467 170.666667 170.666667 170.666666s170.666667-76.407467 170.666667-170.666666c0-45.4144-17.860267-86.570667-46.779734-117.154134C763.127467 362.308267 853.333333 238.660267 853.333333 93.866667H469.333333V273.066667h85.333334v-93.866667h198.4512C717.934933 278.562133 623.419733 349.866667 512 349.866667c-141.3888 0-256-114.6112-256-256H170.666667c0 144.7936 90.205867 268.4416 217.4464 318.045866zM512 614.4c-47.1296 0-85.333333-38.203733-85.333333-85.333333s38.203733-85.333333 85.333333-85.333334 85.333333 38.203733 85.333333 85.333334-38.203733 85.333333-85.333333 85.333333z"  horiz-adv-x="1024" />

    
    <glyph glyph-name="gonggao1" unicode="&#59055;" d="M526.432-28.064c-20.96 0-44.16 12.576-68.96 37.344L274.752 192H192c-52.928 0-96 43.072-96 96V480c0 52.928 43.072 96 96 96h82.752l182.624 182.624c24.576 24.576 47.744 37.024 68.864 37.024C549.184 795.648 576 780 576 736v-704c0-44.352-26.72-60.064-49.568-60.064zM192 512c-17.632 0-32-14.368-32-32v-192c0-17.664 14.368-32 32-32h96c8.48 0 16.64-3.36 22.624-9.376l192.064-192.096c3.392-3.36 6.496-6.208 9.312-8.576V721.984a145.824 145.824 0 0 1-9.376-8.608l-192-192C304.64 515.36 296.48 512 288 512h-96zM687.584 165.632a31.898 31.898 0 0 0-18.656 6.016c-14.336 10.304-17.632 30.304-7.328 44.672l12.672 17.344C707.392 278.56 736 317.376 736 384c0 69.024-25.344 102.528-57.44 144.928-5.664 7.456-11.328 15.008-16.928 22.784-10.304 14.336-7.04 34.336 7.328 44.672 14.368 10.368 34.336 7.04 44.672-7.328 5.248-7.328 10.656-14.464 15.968-21.504C764.224 521.792 800 474.496 800 384c0-87.648-39.392-141.12-74.144-188.32l-12.224-16.736c-6.272-8.704-16.064-13.312-26.048-13.312zM796.448 56.992a31.906 31.906 0 0 0-21.088 7.936c-13.28 11.648-14.624 31.872-2.976 45.152C836.608 183.328 896 267.136 896 384s-59.392 200.704-123.616 273.888c-11.648 13.312-10.304 33.504 2.976 45.184 13.216 11.648 33.44 10.336 45.152-2.944C889.472 621.44 960 522.4 960 384s-70.528-237.472-139.488-316.096c-6.368-7.232-15.2-10.912-24.064-10.912z"  horiz-adv-x="1024" />

    
    <glyph glyph-name="caidanlanrijihuise" unicode="&#58960;" d="M874.146341-128H149.853659c-53.522732 0-99.902439 46.379707-99.902439 99.902439V796.097561C49.95122 849.620293 74.52722 892.028878 149.853659 896h624.390243l199.804878-199.804878v-724.292683c0-53.522732-46.379707-99.902439-99.902439-99.902439z m24.97561 124.878049V646.243902l-174.829268 174.829269H174.829268c-31.51922 0-49.95122-18.432-49.951219-49.95122v-774.243902c0-31.51922 18.432-49.95122 49.951219-49.95122l670.695025-1.573463C877.043512-54.646634 899.121951-34.641171 899.121951-3.121951zM274.731707 396.487805h474.536586v-74.926829H274.731707v74.926829z m0 174.829268h474.536586v-74.926829H274.731707v74.926829z m249.756098-424.585366H274.731707v74.92683h249.756098v-74.92683z"  horiz-adv-x="1024" />

    
    <glyph glyph-name="manage" unicode="&#58886;" d="M217.868 620.176zM222.31 618.898zM223.893 618.808zM223.893 653.617zM215.238 650.643zM219.29 652.834zM217.868 470.558zM215.238 501.025zM222.31 469.28zM223.893 469.19zM223.893 503.999zM219.29 503.216zM219.29 353.599zM215.238 351.408zM223.893 354.381zM354.16 48.726h-160.53c-21.125 0-38.316 15.194-38.316 33.853v613.837c0 18.678 17.19 33.873 38.316 33.873h587.685c21.125 0 38.296-15.194 38.296-33.873v-88.436c0-10.656 8.623-19.28 19.28-19.28s19.28 8.624 19.28 19.28v88.436c0 39.935-34.474 72.432-76.856 72.432h-587.685c-42.382 0-76.876-32.497-76.876-72.432v-613.836c0-39.935 34.494-72.413 76.876-72.413h160.53c10.656 0 19.28 8.623 19.28 19.28s-8.624 19.28-19.28 19.28zM906.823 24.325c-22.354 105.020-86.954 177.76-174.69 201.519 52.403 24.584 88.87 77.71 88.87 139.328 0 84.877-69.061 153.94-153.938 153.94-84.897 0-153.959-69.063-153.959-153.94 0-61.64 36.495-114.785 88.938-139.357-88.394-23.939-153.050-97.414-174.776-203.523-2.147-10.43 4.594-20.617 15.025-22.745 1.3-0.264 2.599-0.395 3.879-0.395 8.962 0 17.002 6.288 18.865 15.42 22.877 111.728 100.374 181.146 202.217 181.146 100.957 0 178.303-68.742 201.839-179.414 2.222-10.413 12.445-16.965 22.876-14.856 10.411 2.222 17.057 12.465 14.854 22.877zM551.667 365.172c0 63.621 51.76 115.379 115.399 115.379 63.62 0 115.378-51.759 115.378-115.379 0-63.64-51.758-115.398-115.378-115.398-63.64 0-115.399 51.759-115.399 115.398zM263.802 575.935c-10.657 0-19.28-8.623-19.28-19.28s8.623-19.28 19.28-19.28h220.893c10.657 0 19.28 8.624 19.28 19.28s-8.623 19.28-19.28 19.28h-220.893zM384.284 455.36h-120.482c-10.657 0-19.28-8.624-19.28-19.28 0-10.658 8.623-19.281 19.28-19.281h120.482c10.657 0 19.28 8.623 19.28 19.28 0 10.657-8.623 19.28-19.28 19.28zM324.034 296.223c10.657 0 19.28 8.623 19.28 19.28s-8.623 19.28-19.28 19.28h-60.232c-10.657 0-19.28-8.623-19.28-19.28s8.623-19.28 19.28-19.28h60.232z"  horiz-adv-x="1024" />

    
    <glyph glyph-name="gouxuan" unicode="&#58898;" d="M787.864848 514.901154L441.929066 168.589297c-6.823085-6.823085-18.669465-6.044071-26.432739 1.746065l-23.182371 23.209234-154.996852 155.158027a19.958867 19.958867 0 0 0 0 28.205667l42.281637 42.308499a19.905142 19.905142 0 0 0 28.178804 0l121.821616-121.955929L717.43127 585.469045c6.823085 6.823085 18.669465 6.044071 26.432738-1.746065L786.145645 541.414481c7.897587-7.816999 8.542288-19.663379 1.719203-26.513327zM511.986569 896C229.500105 896 0.52382 666.781952 0.52382 384s228.976285-512 511.462749-512 511.462749 229.218048 511.462749 512S794.473033 896 511.986569 896z"  horiz-adv-x="1024" />

    
    <glyph glyph-name="kaohe" unicode="&#59000;" d="M91.429-109.68v987.429h841.143v-987.429h-841.143zM859.429 804.606h-694.858v-841.143h694.857v841.143zM347.429 585.143v-109.678h36.571v-36.608h-109.714v36.608h36.571v109.678h-36.571v36.608h73.143v-36.608zM347.429 365.751h36.571v-73.18h-36.571v36.571h-36.572v-36.571h-36.571v73.179h73.143zM347.429 256h-36.572v36.571h36.571v-36.571zM384 219.429v-36.571h-109.714v73.143h36.571v-36.571h73.143zM749.714 548.572h-329.143v36.571h329.143v-36.571zM749.714 402.323h-329.143v36.534h329.143v-36.535zM749.714 256.001h-329.143v36.571h329.143v-36.571z"  horiz-adv-x="1024" />

    
    <glyph glyph-name="xiala" unicode="&#58936;" d="M23.627 586.233c0 13.015 4.978 26.020 14.893 35.941 19.869 19.869 52.002 19.869 71.872 0l391.948-391.95 397.636 397.633c19.866 19.873 51.999 19.873 71.872 0 19.873-19.869 19.873-51.999 0-71.872l-433.574-433.567c-19.873-19.873-51.999-19.873-71.872 0l-427.881 427.878c-9.2 9.182-14.893 21.877-14.893 35.902 0 0.014 0 0.025 0 0.038z"  horiz-adv-x="1024" />

    
    <glyph glyph-name="gongzuotai" unicode="&#59193;" d="M374.784 430.08h-184.32c-50.688 0-92.16 41.472-92.16 92.16V706.56c0 50.688 41.472 92.16 92.16 92.16h184.32c50.688 0 92.16-41.472 92.16-92.16v-184.32c0-50.688-41.472-92.16-92.16-92.16z m-184.32 322.56c-25.6 0-46.08-20.48-46.08-46.08v-184.32c0-25.6 20.48-46.08 46.08-46.08h184.32c25.6 0 46.08 20.48 46.08 46.08V706.56c0 25.6-20.48 46.08-46.08 46.08h-184.32z m184.32-783.36h-184.32c-50.688 0-92.16 41.472-92.16 92.16v184.32c0 50.688 41.472 92.16 92.16 92.16h184.32c50.688 0 92.16-41.472 92.16-92.16v-184.32c0-50.688-41.472-92.16-92.16-92.16z m-184.32 322.56c-25.6 0-46.08-20.48-46.08-46.08v-184.32c0-25.6 20.48-46.08 46.08-46.08h184.32c25.6 0 46.08 20.48 46.08 46.08v184.32c0 25.6-20.48 46.08-46.08 46.08h-184.32z m552.96-322.56h-92.16c-50.688 0-92.16 41.472-92.16 92.16v184.32c0 50.688 41.472 92.16 92.16 92.16h184.32c50.688 0 92.16-41.472 92.16-92.16v-92.16c0-12.8-10.24-23.04-23.04-23.04s-23.04 10.24-23.04 23.04v92.16c0 25.6-20.48 46.08-46.08 46.08h-184.32c-25.6 0-46.08-20.48-46.08-46.08v-184.32c0-25.6 20.48-46.08 46.08-46.08h92.16c12.8 0 23.04-10.24 23.04-23.04s-10.24-23.04-23.04-23.04z m92.16 460.8h-184.32c-50.688 0-92.16 41.472-92.16 92.16V706.56c0 50.688 41.472 92.16 92.16 92.16h184.32c50.688 0 92.16-41.472 92.16-92.16v-184.32c0-50.688-41.472-92.16-92.16-92.16z m-184.32 322.56c-25.6 0-46.08-20.48-46.08-46.08v-184.32c0-25.6 20.48-46.08 46.08-46.08h184.32c25.6 0 46.08 20.48 46.08 46.08V706.56c0 25.6-20.48 46.08-46.08 46.08h-184.32z"  horiz-adv-x="1024" />

    
    <glyph glyph-name="tongji1" unicode="&#59067;" d="M994.56 381.866667C994.56 644.394667 779.434667 857.088 514.218667 857.088h-32V349.866667H994.56v32z m-448.341333 32V516.522667 791.893333c204.373333-15.36 367.36-176.341333 383.146666-378.026666h-383.146666zM429.141333 852.565333C202.154667 807.424 33.877333 608.256 33.877333 381.866667c0-262.570667 215.125333-475.264 480.341334-475.264 229.973333 0 429.824 166.528 472.832 394.368h-64.512c-38.528-190.72-208.810667-330.368-408.32-330.368-230.016 0-416.341333 184.234667-416.341334 411.264 0 195.754667 139.52 363.349333 331.264 402.645333V852.565333z"  horiz-adv-x="1024" />

    
    <glyph glyph-name="xiala1" unicode="&#58888;" d="M112.897 556.418l47.834 47.837 407.043-407.043-47.837-47.834zM520.888 149.37l-47.834 47.834 410.067 410.07 47.837-47.834z"  horiz-adv-x="1024" />

    
    <glyph glyph-name="dingwei" unicode="&#58641;" d="M511.99-62.796c-15.48 0-29.911 7.62-38.663 20.398l-258.599 362.523c-33.297 52.876-50.897 113.341-50.897 174.858 0 185.169 156.184 335.814 348.158 335.814 191.986 0 348.177-150.653 348.177-335.833 0-61.44-17.378-121.56-50.258-173.861l-0.63-0.942-258.598-362.545c-8.728-12.788-23.168-20.412-38.691-20.412zM247.332 341.306l258.043-361.699c1.494-2.208 3.967-3.527 6.616-3.527 2.667 0 5.138 1.306 6.612 3.494l0.298 0.431 258.395 362.263c28.785 45.984 43.997 98.773 43.997 152.698 0 163.743-138.752 296.956-309.301 296.956-170.539 0-309.283-133.207-309.283-296.939 0-53.993 15.43-107.122 44.624-153.676zM511.99 298.802c-101.345 0-183.796 82.46-183.796 183.818 0 101.355 82.451 183.814 183.796 183.814 101.356 0 183.815-82.459 183.815-183.814 0-101.357-82.459-183.818-183.815-183.818zM511.99 627.558c-79.909 0-144.921-65.019-144.921-144.939 0-79.921 65.012-144.943 144.921-144.943 79.92 0 144.939 65.022 144.939 144.943 0 79.92-65.019 144.939-144.939 144.939z"  horiz-adv-x="1024" />

    
    <glyph glyph-name="money" unicode="&#58890;" d="M499.4 4.6c-2.1-4.6-6.9-10.6-17.8-13.6l-74.5-48.2c-5.3-5.6-12.1-5.6-17.1-5.6-4.8 0-17.5 0-23.9 12.7-5.6 11.2-1.3 27.6 10.2 39l15.3 10.3c-167.6 50.9-283.4 206.7-283.4 384 0 175.7 114.2 329.8 284.2 383.5 16.9 5.6 34.4-1.9 39.6-17.7 5.9-17.7-1.5-34.4-17.6-39.7-148.1-43.5-243.6-171.5-243.6-326 0-149.5 96.2-281.1 235.9-325.7l-9.3 16.3c-5.7 11.5-1.5 27.9 10 39.3l1.8 1.3c11 5.5 27.9 0.9 38.9-10.2l49.7-76.5c4.2-8.4 4.6-16.5 1.6-23.2zM547.7 188c0-11.8-11.3-29.1-29.1-29.1-17.1 0-29 11.9-29 29v81.8h-64.1c-17.1 0-29.1 12-29.1 29.1s11.9 29 29.1 29h64.1v43.9h-64.1c-17.1 0-29.1 11.9-29.1 29.1 0 17.1 11.9 29.1 29.1 29.1h41.1l-72.5 72.5c-5.6 5.6-8.7 12.8-8.7 20.3 0 7.6 3.1 14.8 8.7 20.4 11.1 11.2 29.6 11.2 40.7 0l81.6-81.6 81.6 81.6c11.1 11.2 29.5 11.2 40.8 0 5.6-5.6 8.7-12.9 8.7-20.4 0-7.5-3.1-14.8-8.7-20.4l-72.5-72.5h50c17.1 0 29-11.9 29-29l-0.7-3.1c-8.4-16.8-20-26-32.8-26h-64.1v-43.9h68.6c17.1 0 29-11.9 29-29l-0.3-2.2c-5.7-17.1-17.8-26.9-33.2-26.9h-64.1v-81.7zM627-4.9l-0.9-0.2h-5.4c-12.1 0-23 10.8-28.3 21.5l-0.7 3.1c0 19.1 8.2 32.8 22.4 37.6 148.5 43.7 248 176.5 248 330.5 0 149-98 280.6-240.3 325.7l9.3-16.3c5.7-11.5 1.5-27.8-9.9-39.3-6.5-6.5-13.2-6.5-18.2-6.5-4.8 0-17.5 0-23.9 12.6l-48.4 74.8c-6 11.7-1.7 28.1 9.7 39.6l76.5 49.7c4 2 7.6 2.8 11.6 2.8 9.5 0 20.2-4.8 28-12.6l1.3-1.8c5.5-11.2 1.2-27.5-10.2-39l-15.2-10.2c167.5-49.8 283.3-205.6 283.3-384 0.1-179.2-118.7-338.7-288.7-388z"  horiz-adv-x="1024" />

    
    <glyph glyph-name="leixing1" unicode="&#59006;" d="M338.463642 69.111287v102.770641h565.208852v-102.770641H338.463642z m0 359.677802h565.208852v-102.770642H338.463642v102.770642z m0 256.913301h565.208852v-102.760409H338.463642v102.760409z m-205.53105-513.821485h102.760408v-102.770642h-102.760408v102.770642z m0 256.908184h102.760408v-102.770642h-102.760408v102.770642z m0 256.913301h102.760408v-102.760409h-102.760408v102.760409z"  horiz-adv-x="1024" />

    
    <glyph glyph-name="liang-huangjin" unicode="&#58975;" d="M512 832C262.4 832 64 633.6 64 384s198.4-448 448-448 448 198.4 448 448-198.4 448-448 448z m0-857.6c-230.4 0-416 185.6-416 416S281.6 806.4 512 806.4s416-185.6 416-416-185.6-416-416-416zM512 384m-416 0a416 416 0 1 1 832 0 416 416 0 1 1-832 0ZM96 384c32-6.4 64-12.8 96-12.8 230.4 0 416 185.6 416 416v6.4c-32 0-64 6.4-96 6.4-230.4 0-416-185.6-416-416zM672 128L512 211.2 332.8 128l38.4 192-128 128 192 19.2L512 646.4l83.2-172.8 192-25.6-140.8-134.4 25.6-185.6zM326.4 416l83.2-83.2-25.6-128 128 51.2 108.8-57.6-12.8 128 89.6 89.6-128 19.2L512 550.4l-57.6-121.6-128-12.8z"  horiz-adv-x="1024" />

    
    <glyph glyph-name="daiban" unicode="&#58892;" d="M237.005 204.186h273.561a288.768 288.768 0 0 0 20.173 42.29H237.056v-42.29h-0.051z m380.672 295.987H237.056v-42.24h380.62v42.24z m-507.495-570.88a42.291 42.291 0 0 0-42.29 42.291V796.364c0 23.348 18.943 42.24 42.29 42.24h655.463c23.398 0 42.291-18.892 42.291-42.24v-402.892c14.387-1.024 28.467-2.867 42.291-5.888V796.467c0 46.643-37.837 84.583-84.582 84.583H110.13A84.48 84.48 0 0 1 25.6 796.467v-824.832a84.48 84.48 0 0 1 84.531-84.531h469.76a287.795 287.795 0 0 0-35.737 42.24l-433.972-0.051z m507.495 411.904V373.35H237.056v-42.29h367.053c4.352 3.532 8.909 6.962 13.568 10.137z m168.857-31.283a211.354 211.354 0 0 1-211.2-211.61 211.251 211.251 0 0 1 211.2-211.302A211.558 211.558 0 0 1 998.4 98.304a211.558 211.558 0 0 1-211.866 211.61z m0.103-380.621c-93.184 0-168.96 75.673-168.96 169.011a169.165 169.165 0 1 0 168.96-169.011z m-168.96 697.753H237.056v-42.24h380.62v42.24z m190.259-422.86h-42.291v-126.874H892.57v42.291h-84.583v84.583h-0.051z"  horiz-adv-x="1024" />

    
    <glyph glyph-name="aixin-copy" unicode="&#58626;" d="M993.882 537.6v12.047c-9.035 135.529-117.459 240.941-256 240.941-96.376 0-183.718-54.212-225.882-135.529-42.165 81.318-129.506 135.529-225.882 135.529-135.529 3.012-246.965-105.412-256-237.929v-30.118c0-6.024 0-9.035 3.012-15.059 48.188-246.965 478.871-533.082 478.871-533.082s427.671 283.106 475.859 530.071c3.012 9.035 6.024 21.082 6.024 33.129z"  horiz-adv-x="1024" />

    
    <glyph glyph-name="renwu" unicode="&#58625;" d="M239.495 63.023c0 0.539 0.023 1.078 0.078 1.615 13.246 138.764 129.185 245.342 270.382 245.342 141.229 0 257.197-106.636 270.389-245.459 0.044-0.459 0.067-0.921 0.076-1.379l0.227-13.481c0.123-7.601 6.323-13.699 13.925-13.699h0.718c7.911 0 14.236 6.582 13.917 14.492v0c-5.308 132.714-95.433 241.68-217.183 276.029 83.308 35.021 139.783 121.65 129.123 219.652-10.629 97.721-89.198 176.543-186.888 187.446-127.991 14.284-236.786-85.953-236.786-211.121 0-88.083 53.887-163.806 130.414-195.976-121.758-34.348-211.883-143.315-217.191-276.029v0c-0.321-7.91 6.004-14.492 13.917-14.492h0.955c7.689 0 13.927 6.236 13.927 13.932l0 13.13zM325.344 522.458c0 101.796 82.818 184.616 184.611 184.616 101.794 0 184.614-82.819 184.614-184.616 0-101.795-82.82-184.612-184.614-184.612-101.792-0.001-184.611 82.816-184.611 184.612v0zM325.344 522.458z"  horiz-adv-x="1024" />

    
    <glyph glyph-name="guanli" unicode="&#58966;" d="M361.6 476.602h300.8v-76.8H361.6v76.8z m0 128h300.8v-76.8H361.6v76.8z m0-256h172v-76.8h-172v76.8zM896 226.227c-26.202 43.667-25.78 44.493-25.78 44.493s-90.45-25.363-107.295 61.338h-52.403s-14.452-86.836-106.868-61.127C576.934 226.4 576.026 225.005 576 224.98c0.038-0.025 72.34-50.54 0-119.142l28.077-46.163S683.949 94.13 710.112 0h53.024s16.634 86.502 106.458 60.928c25.574 43.66 25.99 44.083 25.99 44.083S827.77 163.47 896 226.227zM735.584 104.902c-33.754 0-61.133 27.367-61.133 61.133s27.373 61.14 61.133 61.14c33.76 0 61.14-27.373 61.14-61.14s-27.38-61.133-61.14-61.133z m-428.634-28.48c-28.313 0-51.264 22.95-51.264 51.264V640.314c0 28.313 22.95 51.264 51.264 51.264h410.1c28.32 0 51.264-22.95 51.264-51.264V368H832V704c0 35.347-28.653 64-64 64H256c-35.347 0-64-28.653-64-64v-640c0-35.34 28.653-64 64-64h294.4v76.422H306.95z"  horiz-adv-x="1024" />

    
    <glyph glyph-name="tong" unicode="&#58883;" d="M486.909367 762.381698h50.181266v-183.677473h-50.181266V762.381698zM780.884895-17.198301l-161.776586 9.767643-108.268217-120.493032-107.520381 121.179819-161.868157-8.699307 9.752381 161.547657L130.558283 254.235338l121.332439 107.367762-8.752724 161.623966 161.776586-9.691333 108.268217 120.416722 107.520381-121.103509 161.868157 8.699306-9.752381-161.623966L893.472241 251.793427l-121.332439-107.367762zM520.348282 244.696624m-200.79374 0a200.79374 200.79374 0 1 1 401.587481 0 200.79374 200.79374 0 1 1-401.587481 0ZM616.437469 108.86534l-91.472449 25.182205-91.525867-25.029585-4.219927 94.62404-52.150055 79.209479L465.931828 316.046203l59.292645 74.020419 59.140025-74.096729 88.793979-33.423653-52.302676-79.056859zM302.911394 895.92369h401.389075v-183.601162H302.911394V895.92369zM353.107922 895.92369h50.173634v-183.601162h-50.173634V895.92369zM603.991356 895.92369h50.173634v-183.601162h-50.173634V895.92369z"  horiz-adv-x="1024" />

    
    <glyph glyph-name="yin" unicode="&#58894;" d="M486.909367 762.305388h50.181266v-183.677472h-50.181266V762.305388zM780.884895-17.274611l-161.776586 9.767643-108.268217-120.493032-107.520381 121.17982-161.868157-8.699307 9.752381 161.547656L130.558283 254.235338l121.332439 107.291452-8.752724 161.700276 161.776586-9.767643 108.268217 120.493032 107.520381-121.179819 161.868157 8.699307-9.752381-161.547657L893.472241 251.793427l-121.332439-107.367762zM520.394068 445.085923a200.351144 200.351144 0 1 0-200.694537-200.389299 200.55718 200.55718 0 0 0 200.694537 200.389299zM616.437469 108.78903l-91.472449 25.258515-91.525867-25.105895-4.219927 94.70035-52.150055 79.13317L465.931828 316.046203l59.292645 73.944109 59.140025-74.096728 88.793979-33.423653-52.302676-79.05686zM302.911394 895.92369h401.389075v-183.677472H302.911394V895.92369zM353.107922 895.92369h50.173634v-183.677472h-50.173634V895.92369zM603.991356 895.92369h50.173634v-183.677472h-50.173634V895.92369z"  horiz-adv-x="1024" />

    
    <glyph glyph-name="jin" unicode="&#58895;" d="M780.884895-17.121991l-161.776586 9.691333-108.268217-120.416723-107.520381 121.17982-161.868157-8.775617 9.752381 161.623966L130.558283 254.311648l121.332439 107.367762-8.752724 161.623966 161.776586-9.767643 108.268217 120.493032 107.520381-121.179819 161.868157 8.699306-9.752381-161.547656L893.472241 251.869737l-121.332439-107.367762zM520.394068 445.162233a200.351144 200.351144 0 1 0-200.694537-200.312989 200.496132 200.496132 0 0 0 200.694537 200.312989zM616.437469 108.86534l-91.472449 25.258514-91.525867-25.029585-4.219927 94.624041-52.150055 79.133169 88.862657 33.271034 59.292645 73.944109 59.140025-74.096729 88.793979-33.423653-52.302676-79.056859zM486.909367 762.458007h50.181266v-183.677472h-50.181266V762.458007zM302.911394 896h401.389075v-183.677472H302.911394V896zM353.107922 896h50.173634v-183.677472h-50.173634V896zM603.991356 896h50.173634v-183.677472h-50.173634V896z"  horiz-adv-x="1024" />

    
    <glyph glyph-name="shanchu" unicode="&#58896;" d="M406.023014 896c-212.915851 0-384.751468-171.835616-384.751468-384.751468s171.835616-384.751468 384.751468-384.751467 384.751468 171.835616 384.751467 384.751467S618.938865 896 406.023014 896m161.615655-546.367123c-10.219961-10.219961-28.255186-10.219961-38.475146 0L406.023014 472.773386l-123.140509-123.140509c-10.219961-10.219961-28.255186-10.219961-38.475147 0s-10.219961 28.255186 0 38.475146L367.547867 511.248532l-123.140509 123.140509c-10.219961 10.219961-10.219961 28.255186 0 38.475147s28.255186 10.219961 38.475147 0L406.023014 549.723679l123.140509 123.140509c10.219961 10.219961 28.255186 10.219961 38.475146 0s10.219961-28.255186 0-38.475147L444.49816 511.248532l123.140509-123.140509c12.825049-10.219961 12.825049-28.15499 0-38.475146"  horiz-adv-x="1990" />

    
    <glyph glyph-name="fuli" unicode="&#58627;" d="M934.7543640136719 395.2541389465331v100.40416145324707c0 26.422147750854492-10.568859100341797 47.559865951538086-36.99100685119629 58.12872505187988-15.853288650512692 10.568859100341797-31.706577301025384 10.568859100341797-36.99100685119629 10.568859100341797h-52.844295501708984l10.568859100341797 10.568859100341797s26.422147750854492 36.99100685119629 21.137718200683594 68.69758415222168c-5.284429550170898 15.853288650512692-10.568859100341797 31.706577301025384-31.706577301025384 47.559865951538086-21.137718200683594 10.568859100341797-47.559865951538086 21.137718200683594-68.69758415222168 21.137718200683594-58.12872505187988 0-116.25745010375977-36.99100685119629-153.24845695495603-63.41315460205077-42.27543640136719-31.706577301025384-68.69758415222168-63.41315460205077-68.69758415222168-63.41315460205077l-5.284429550170898-5.284429550170898-5.284429550170898 5.284429550170898s-26.422147750854492 31.706577301025384-68.69758415222168 63.41315460205077c-36.99100685119629 26.422147750854492-95.11973190307617 63.41315460205077-153.24845695495603 63.41315460205077-26.422147750854492 0-47.559865951538086-5.284429550170898-68.69758415222168-21.137718200683594-15.853288650512692-10.568859100341797-26.422147750854492-26.422147750854492-31.706577301025384-47.559865951538086-5.284429550170898-36.99100685119629 21.137718200683594-68.69758415222168 21.137718200683594-68.69758415222168l10.568859100341797-10.568859100341797h-52.844295501708984s-21.137718200683594 0-36.99100685119629-10.568859100341797c-21.137718200683594-10.568859100341797-36.99100685119629-31.706577301025384-36.99100685119629-58.12872505187988v-100.40416145324707s0-10.568859100341797 5.284429550170898-26.422147750854492c10.568859100341797-15.853288650512692 26.422147750854492-31.706577301025384 47.559865951538086-36.99100685119629h10.568859100341797l-5.284429550170898-5.284429550170898s-5.284429550170898-10.568859100341797-5.284429550170898-21.137718200683594v-301.2124843597412c0-5.284429550170898 0-63.41315460205077 73.98201370239258-63.41315460205077h586.5716800689697c31.706577301025384 0 52.844295501708984 10.568859100341797 63.41315460205077 31.706577301025384 10.568859100341797 15.853288650512692 10.568859100341797 31.706577301025384 10.568859100341797 31.706577301025384v301.2124843597412c0 15.853288650512692-5.284429550170898 21.137718200683594-5.284429550170898 21.137718200683594l-5.284429550170898 5.284429550170898h10.568859100341797c21.137718200683594 5.284429550170898 42.27543640136719 21.137718200683594 47.559865951538086 36.99100685119629 10.568859100341797 15.853288650512692 10.568859100341797 26.422147750854492 10.568859100341797 26.422147750854492zM226.64080429077148 643.6223278045655c5.284429550170898 10.568859100341797 15.853288650512692 21.137718200683594 36.99100685119629 26.422147750854492h21.137718200683594c36.99100685119629 0 79.26644325256348-15.853288650512692 121.54187965393066-47.559865951538086 31.706577301025384-26.422147750854492 52.844295501708984-47.559865951538086 58.12872505187988-47.559865951538086l10.568859100341797-10.568859100341797h-206.092752456665c-26.422147750854492 26.422147750854492-31.706577301025384 42.27543640136719-31.706577301025384 47.559865951538086-10.568859100341797 0-15.853288650512692 15.853288650512692-10.568859100341797 31.706577301025384zM490.8622817993164-32.78465461730923h-274.7903366088867c-26.422147750854492 0-36.99100685119629 15.853288650512692-36.99100685119629 26.422147750854492v290.6436252593994c0 36.99100685119629 26.422147750854492 42.27543640136719 31.706577301025384 42.27543640136719h280.0747661590576v-359.34120941162104zM496.1467113494873 363.5475616455078h-332.9190616607666c-21.137718200683594 0-31.706577301025384 26.422147750854492-31.706577301025384 26.422147750854492v105.68859100341797c5.284429550170898 21.137718200683594 21.137718200683594 31.706577301025384 31.706577301025384 31.706577301025384h332.9190616607666v-163.81731605529785zM564.844295501709 574.9247436523435s21.137718200683594 26.422147750854492 58.12872505187988 47.559865951538086c42.27543640136719 31.706577301025384 84.55087280273438 47.559865951538086 121.54187965393066 47.559865951538086h21.137718200683594c21.137718200683594-5.284429550170898 31.706577301025384-15.853288650512692 36.99100685119629-26.422147750854492 5.284429550170898-15.853288650512692 0-26.422147750854492-5.284429550170898-31.706577301025384 0-5.284429550170898-5.284429550170898-21.137718200683594-31.706577301025384-47.559865951538086h-206.092752456665l5.284429550170898 10.568859100341797zM839.6346321105957 289.56554794311546v-290.6436252593994c0-10.568859100341797-10.568859100341797-26.422147750854492-36.99100685119629-26.422147750854492h-274.7903366088867v359.34120941162104h280.0747661590576c5.284429550170898-5.284429550170898 36.99100685119629-10.568859100341797 31.706577301025384-42.27543640136719zM897.7633571624756 389.9697093963622s-5.284429550170898-26.422147750854492-31.706577301025384-26.422147750854492h-332.9190616607666v163.81731605529785h332.9190616607666c10.568859100341797 0 26.422147750854492-10.568859100341797 31.706577301025384-31.706577301025384v-105.68859100341797z"  horiz-adv-x="1025" />

    
    <glyph glyph-name="choujiang" unicode="&#59085;" d="M956.21 644.2733333333333H718.94c24.57 24.51 42.06 54 49.9 84.94C779 769.3333333333334 772 807.1033333333334 749.17 835.5333333333333S691 878.9333333333333 649.58 877.6133333333333c-38.71-1.21-78.5-16.7-112-43.65s-57.25-62.47-66.75-100.08c-8.28-32.73-5.16-63.91 8.65-89.65h-75.93a25.39 25.39 0 0 1-3.2 1.47 155.86 155.86 0 0 0-38.41 20.81c-25.85 19-44.48 44.17-52.44 70.79-7.23 24.12-4.57 46.28 7.38 62.53 19.06 26 60.06 33 102 17.67a25.32 25.32 0 0 1 17.41 47.56c-29.93 11-60.47 13.93-88.31 8.59-30.25-5.8-55.12-20.92-71.9-43.73-21.61-29.4-27-67.38-15.11-107.05 8.6-28.76 25.67-55.94 49.05-78.57H67.79A51.85 51.85 0 0 1 16 592.4933333333333v-148.9a51.85 51.85 0 0 1 51.79-51.79H78.5v-377.86a113.11 113.11 0 0 1 113-113h642.7a113.11 113.11 0 0 1 113 113V391.81333333333333h9a51.85 51.85 0 0 1 51.8 51.78V592.4833333333333a51.85 51.85 0 0 1-51.79 51.79z m-408 0.14A57.32 57.32 0 0 0 529.87 659.3333333333334c-12.64 15.68-16.21 37.81-10 62.17 6.82 26.95 24.36 52.86 49.38 73s54.1 31.65 81.89 32.56c25.12 0.8 45.91-7.46 58.54-23.19s16.21-37.81 10-62.17c-6.82-26.95-24.36-52.86-49.38-73a155.27 155.27 0 0 0-39.3-23.19 25.53 25.53 0 0 1-2.54-1.21h-80zM66.64 443.5933333333333V592.4833333333333a1.21 1.21 0 0 0 1.15 1.15h418.89v-151.18H67.79a1.21 1.21 0 0 0-1.15 1.14z m62.5-429.64V391.81333333333333h357.54v-440.2H191.47a62.4 62.4 0 0 0-62.33 62.33z m767.42 0a62.4 62.4 0 0 0-62.34-62.33h-296.9V391.81333333333333h359.23z m60.8 429.64a1.21 1.21 0 0 0-1.15-1.15H537.32V593.6333333333333h418.89a1.21 1.21 0 0 0 1.15-1.15z"  horiz-adv-x="1024" />

    
    <glyph glyph-name="shaixuan" unicode="&#58902;" d="M579 49.88a21.32 21.32 0 0 0-21.33 21.33V490.55a21.3 21.3 0 0 0 6.85 15.67l183.33 169.24H276.14l183.27-169.21a21.3 21.3 0 0 0 6.85-15.67v-285.33a21.33 21.33 0 0 0-42.67 0v276L207.1 681.13a21.33 21.33 0 0 0 14.48 37h580.83a21.33 21.33 0 0 0 14.48-37L600.33 481.21v-410A21.32 21.32 0 0 0 579 49.88z"  horiz-adv-x="1024" />

    
    <glyph glyph-name="weizhizhengque" unicode="&#58927;" d="M197.546667 448a298.666667 298.666667 0 1 0 597.333333 0 21.333333 21.333333 0 0 1 42.666667 0 341.333333 341.333333 0 1 1-682.666667 0c0-231.68 315.733333-456.106667 328.96-465.493333a21.333333 21.333333 0 0 1 29.866667 5.12 21.333333 21.333333 0 0 1-5.12 29.866666c-2.986667 2.133333-311.04 221.013333-311.04 430.506667zM364.8 497.066667a21.333333 21.333333 0 0 1-23.466667-17.066667 163.413333 163.413333 0 0 1-3.413333-32A160 160 0 1 1 441.173333 597.333333a21.333333 21.333333 0 0 1 14.506667-40.106666 116.053333 116.053333 0 0 0 40.533333 7.253333 116.906667 116.906667 0 1 0-114.773333-92.586667 21.333333 21.333333 0 0 1-16.64 25.173334zM892.16 234.666667a21.333333 21.333333 0 0 1-30.293333 0l-154.453334-154.453334-79.36 79.36A21.333333 21.333333 0 0 1 597.333333 128l94.72-94.72a21.333333 21.333333 0 0 1 30.293334 0l170.666666 170.666667a21.333333 21.333333 0 0 1-0.853333 30.72z"  horiz-adv-x="1024" />

    
    <glyph glyph-name="renwu1" unicode="&#58930;" d="M833.164 793.6H700.509V823.855c0 16.29-13.964 30.254-30.254 30.254H351.418c-16.29 0-30.254-13.964-30.254-30.254V793.6H190.836c-48.872 0-88.436-39.564-88.436-88.436v-702.837c0-48.872 39.564-88.436 88.436-88.436h644.655c48.873 0 88.436 39.564 88.436 88.436V705.164c-2.327 48.872-41.89 88.436-90.763 88.436z m-453.819 0h262.982v-58.182H379.345V793.6z m484.073-788.945c0-16.291-13.963-30.255-30.254-30.255H190.836c-16.29 0-30.254 13.964-30.254 30.255V705.164c0 16.29 13.963 30.254 30.254 30.254h132.655v-30.254c0-16.291 13.964-30.255 30.254-30.255H674.91c16.291 0 30.255 13.964 30.255 30.255v30.254h132.654c16.291 0 30.255-13.963 30.255-30.254v-700.51zM681.891 463.127L479.418 235.05499999999995 356.073 346.764c-11.637 11.636-30.255 11.636-41.891 0s-11.637-30.255 0-41.891L460.8 172.21799999999996a29.498 29.498 0 0 1 41.89 0l218.765 249.018a29.498 29.498 0 0 1 0 41.891c-9.31 11.637-27.928 11.637-39.564 0z"  horiz-adv-x="1024" />

    
    <glyph glyph-name="zuzhijiagou" unicode="&#59013;" d="M924.3136 127.7952v229.632H537.856v162.2784h123.904V818.5344H362.9312v-298.8288H489.1136v-162.2784H100.352v-229.5808a124.544 124.544 0 0 1-100.3776-121.984c0-68.608 55.808-124.416 124.416-124.416s124.416 55.808 124.416 124.416a124.5952 124.5952 0 0 1-99.6608 121.9072v180.8896H489.1136v-180.6848c-57.6768-10.8032-101.5296-61.3376-101.5296-122.0864 0-68.608 55.808-124.416 124.416-124.416s124.416 55.808 124.416 124.416a124.5696 124.5696 0 0 1-98.5088 121.6v181.1712h337.6896v-180.8128a124.544 124.544 0 0 1-100.3776-121.984c0-68.608 55.808-124.416 124.416-124.416s124.416 55.808 124.416 124.416a124.7232 124.7232 0 0 1-99.7376 121.9328zM411.6992 769.7664h201.3184v-201.2928h-201.3184V769.7664zM200.0384 5.888c0-41.7024-33.92-75.648-75.648-75.648S48.7424-35.84 48.7424 5.888s33.92 75.648 75.648 75.648 75.648-33.92 75.648-75.648z m387.584 0a75.7248 75.7248 0 0 0-75.648-75.648c-41.7024 0-75.648 33.92-75.648 75.648s33.92 75.648 75.648 75.648a75.7248 75.7248 0 0 0 75.648-75.648z m311.9616-75.648c-41.7024 0-75.648 33.92-75.648 75.648s33.92 75.648 75.648 75.648c41.7024 0 75.648-33.92 75.648-75.648s-33.9456-75.648-75.648-75.648z"  horiz-adv-x="1024" />

    


  </font>
</defs>
</svg>
