<?xml version="1.0" standalone="no"?>
<!DOCTYPE svg PUBLIC "-//W3C//DTD SVG 1.1//EN" "http://www.w3.org/Graphics/SVG/1.1/DTD/svg11.dtd" >
<!--
2013-9-30: Created.
-->
<svg>
<metadata>
Created by iconfont
</metadata>
<defs>

<font id="iconfont" horiz-adv-x="1024" >
  <font-face
    font-family="iconfont"
    font-weight="500"
    font-stretch="normal"
    units-per-em="1024"
    ascent="896"
    descent="-128"
  />
    <missing-glyph />
    
    <glyph glyph-name="x" unicode="x" horiz-adv-x="1001"
d="M281 543q-27 -1 -53 -1h-83q-18 0 -36.5 -6t-32.5 -18.5t-23 -32t-9 -45.5v-76h912v41q0 16 -0.5 30t-0.5 18q0 13 -5 29t-17 29.5t-31.5 22.5t-49.5 9h-133v-97h-438v97zM955 310v-52q0 -23 0.5 -52t0.5 -58t-10.5 -47.5t-26 -30t-33 -16t-31.5 -4.5q-14 -1 -29.5 -0.5
t-29.5 0.5h-32l-45 128h-439l-44 -128h-29h-34q-20 0 -45 1q-25 0 -41 9.5t-25.5 23t-13.5 29.5t-4 30v167h911zM163 247q-12 0 -21 -8.5t-9 -21.5t9 -21.5t21 -8.5q13 0 22 8.5t9 21.5t-9 21.5t-22 8.5zM316 123q-8 -26 -14 -48q-5 -19 -10.5 -37t-7.5 -25t-3 -15t1 -14.5
t9.5 -10.5t21.5 -4h37h67h81h80h64h36q23 0 34 12t2 38q-5 13 -9.5 30.5t-9.5 34.5q-5 19 -11 39h-368zM336 498v228q0 11 2.5 23t10 21.5t20.5 15.5t34 6h188q31 0 51.5 -14.5t20.5 -52.5v-227h-327z" />
    

    
    <glyph glyph-name="xiezilou" unicode="&#983210;" d="M784.527328-7.432017 784.527328 787.337161c0 26.104541 38.135068 47.254234 11.99671 47.254234L243.402329 834.591395c-26.073887 0 11.995687-21.149693 11.995687-47.254234l0-794.769178-66.732531 0 0-59.216683 646.499156 0 0 59.216683L784.527328-7.432017zM645.505485 713.188394l66.794956 0 0-71.65497-66.794956 0L645.505485 713.188394zM645.505485 518.867664l66.794956 0 0-71.65497-66.794956 0L645.505485 518.867664zM645.505485 324.516234l66.794956 0 0-71.592548-66.794956 0L645.505485 324.516234zM516.206472 713.188394l66.795979 0 0-71.65497-66.795979 0L516.206472 713.188394zM516.206472 518.867664l66.795979 0 0-71.65497-66.795979 0L516.206472 518.867664zM516.206472 324.516234l66.795979 0 0-71.592548-66.795979 0L516.206472 324.516234zM328.31771 772.4368l123.744279 0 0-130.903376L328.31771 641.533424 328.31771 772.4368zM328.31771 578.117093l123.744279 0 0-130.904399L328.31771 447.212694 328.31771 578.117093zM328.31771 383.796362l123.744279 0 0-125.505435L328.31771 258.290927 328.31771 383.796362zM328.31771 194.842873l123.744279 0 0-130.871653L328.31771 63.97122 328.31771 194.842873z"  horiz-adv-x="1024" />

    
    <glyph glyph-name="icon" unicode="&#58922;" d="M366.657 146.348l194.14 55.128-138.672 137.809-55.467-192.936zM885.179 523.865l-138.677 137.811-305.077-303.182 138.672-137.812 305.082 303.183zM844.764 13.499c0-47.905-38.834-86.736-86.735-86.736h-520.45c-47.905 0-86.746 38.83-86.746 86.736l-0 520.448c0 47.905 38.84 86.741 86.746 86.741h346.96l86.746 86.741-462.62-0c-79.839 0-144.57-64.726-144.57-144.566v-578.279c0-79.839 64.73-144.566 144.57-144.566l578.272 0c79.843 0 144.574 64.726 144.574 144.566v462.622l-86.746-86.746v-346.962zM949.622 639.632l-86.672 86.131c-14.358 14.273-38.419 13.502-53.739-1.72l-41.595-41.344 138.672-137.811 41.606 41.344c15.312 15.222 16.090 39.131 1.728 53.4z"  horiz-adv-x="1024" />

    
    <glyph glyph-name="gouwudai" unicode="&#58906;" d="M511.936 718.752c68.608 0 126.784-53.376 147.328-127.488l68.096 0c-13.568 106.816-104.832 189.504-215.424 189.504-110.528 0-201.792-82.688-215.36-189.504l68.16 0C385.216 665.376 443.456 718.752 511.936 718.752zM852.416-109.28l-53.184 641.92-72.384 0-59.84 0-310.08 0-59.904 0-74.816 0-50.752-642.624c-0.384-2.816-0.64-5.696-0.64-8.64 0-34.432 30.528-62.208 68.224-62.208l546.048 0c37.568 0 68.224 27.776 68.224 62.208C853.248-115.552 852.992-112.416 852.416-109.28z"  horiz-adv-x="1024" />

    
    <glyph glyph-name="yingsaitong" unicode="&#58880;" d="M870.85 404.759l-290.752 302.625c-18.065 18.788-42.218 29.128-68.1 29.128-25.884 0-50.035-10.339-68.099-29.128l-290.75-302.625c-30.002-31.237-26.139-58.236-21.179-69.513 3.536-8.002 15.47-29.997 49.847-29.997h42.617v-232.804c0-52.856 37.957-102.622 91.9-102.622h123.774v54.703l-0 191.674c0 26.413-4.001 41.132 22.982 41.132h97.82c26.984 0 22.98-14.72 22.98-41.132v-246.379h123.773c53.944 0 91.904 49.766 91.904 102.622l0 232.805h42.614c34.379 0 46.315 21.995 49.848 29.997 4.959 11.278 8.822 38.277-21.179 69.514z"  horiz-adv-x="1024" />

    
    <glyph glyph-name="meirong" unicode="&#59377;" d="M95.123986 555.541047l0.398066-624.765273c0 0 180.783413 31.762401 330.438874 336.792583 23.323195 59.734476 45.532009 110.937648 90.813309 154.775063-50.993394-49.368384-50.082652-102.418624-71.863724-165.219949-39.96113-115.222231-58.563814-204.240661-164.795277-263.874853 86.645382 48.635697 107.412358 103.393835 155.328671 194.597023 19.894096 37.859259 29.861098 79.593779 43.427068 119.884414 10.348696 30.729885 25.397437 59.688427 44.757367 84.911902 35.687804 46.503127 85.60468 88.179318 145.129378 97.632621 24.676006 3.917216 69.37095 10.534937 85.655845-12.157901-8.067746 59.453067-73.532737 73.631998-123.691113 59.688427C530.571473 509.958896 465.344912 404.823394 412.170852 322.518876c29.653367 45.905516 48.470945 96.934726 87.340207 137.672546 29.529547 30.952966 65.820078 57.190537 105.445564 73.40073 21.517059 8.804527 59.988256 14.58416 83.139535 13.608949 11.889795-0.503467 62.405305-17.382902 61.847603-33.284057 5.935176 168.809707-196.697871 246.609631-339.161536 230.308363-38.036291-4.353145-60.71685-5.299703-118.265544-35.30611S120.659569 546.566652 95.123986 555.541047M718.071867 281.845525c0.704035 0.521886 0.717338 0.559748 0.044002 0.115634-42.045605-27.452235-116.417453-1.584078-160.316266-28.135804-15.578814-9.423627-31.637558-24.069185-39.702234-36.960797 19.438725 31.083949 103.211686-17.582447 138.594545-1.063215-13.796214-0.146333-27.604708-0.072655-41.406039-0.072655 28.40391 1.88493 57.922201 6.694469 77.844949 20.874423-13.95585-2.153036-27.734668-7.107885-41.455157-8.150634 24.853038 7.225565 37.999452 16.432251 58.637492 26.894534-14.47262-5.555529-29.517267-10.683317-45.62513-13.447267C691.730942 252.49608 698.476577 267.967446 718.071867 281.845525zM908.734278-9.23597c-23.399943 24.251334-55.450916 21.565155-82.019015 4.574179 22.034852 11.468193 56.202023 13.896498 76.071559-10.734482 33.82027-41.923832 13.900591-85.283362-33.103956-96.129384-47.004547-10.848069-93.063559 4.189416-121.846092 53.111638s17.610076 201.737654 17.610076 201.737654-19.792788-93.456508-11.032264-157.711951 58.316174-96.896864 116.474758-77.854159c-128.358413 12.655228-61.781088 144.832619-36.541241 195.997929s70.950935 125.526925 70.267367 267.424702c-0.683569 141.897777-64.257489 158.62781-78.252225 193.426361C801.263591 626.991356 693.582103 699.462924 624.926444 704.834258c38.380122-10.666944 71.587432-42.638099 99.957573-69.023026 34.485419-32.073486 42.753733-91.62786 44.941562-136.553049 0.505513-10.343579-3.837398-21.811772-1.845021-31.967062 2.01489-10.3006 8.014534-13.395078 11.154038-21.88852 24.12342-65.23577 8.037047-96.243995-37.279045-176.649256-45.315068-80.405261-82.833567-284.383956-38.491663-349.19403s135.974881-84.3542 189.597149-47.266513C931.395394-101.11147 942.564781-44.286254 908.734278-9.23597zM665.707242 343.702338c-43.886533-9.245572-80.592526-0.053212-114.687042-21.98778-8.757454-5.636371-26.77583-12.737092-31.689746-21.364587-6.0416-10.599406 0.01535-26.723641-4.384867-37.814234 30.775934 53.337789 97.66332 39.281655 151.122883 65.951061 30.704302 15.315824 54.172807 10.736529 85.375459 8.989745C716.554304 339.430034 709.593775 352.947909 665.707242 343.702338zM385.793088-17.043796c8.366551-9.017374 14.3488-20.405749 22.680559-29.595039 23.150256-25.511024 66.281589-25.747407 97.395214-18.454304 13.178137 3.084245 27.322275 11.308557 37.039591 20.649296 6.079462 5.842055 10.387581 13.249769 14.648628 20.420075 4.29277 7.219425 11.209296 13.669324 17.105586 19.718087 6.500041 6.67605 13.920034 12.511965 22.182208 16.84055-6.27082-2.702552-15.854083-1.907443-23.99653-0.590448-2.852978 0.467651-5.526877 0.998747-7.820106 1.462305-11.697413 2.384303-23.594371 8.146541-33.478486 14.791891-8.993838 6.04774-16.010649 12.614296-27.91784 12.230556-8.9263-0.292666-28.368094-8.615215-25.867134-22.340821-2.800789 15.371082-18.077727 22.231327-31.250748 19.138896-15.767102-3.694135-30.349215-14.175861-43.087331-23.820522-13.956873-10.56666-29.755698-13.023618-47.072085-13.053294C366.635773 0.368782 379.171274-9.917492 385.793088-17.043796z"  horiz-adv-x="1024" />

    
    <glyph glyph-name="shangcheng" unicode="&#58993;" d="M789.929452-53.904309c-31.277354 0-56.721863-25.387203-56.721863-56.709583s25.442462-56.735166 56.721863-56.735166c31.292704 0 56.70856 25.413809 56.70856 56.735166S821.222155-53.904309 789.929452-53.904309M426.988326-53.904309c-31.252795 0-56.737212-25.387203-56.737212-56.709583s25.485441-56.735166 56.737212-56.735166c31.278377 0 56.665581 25.413809 56.665581 56.735166S458.267726-53.904309 426.988326-53.904309M294.629809 134.160951l-55.886845 347.461573C203.044928 686.18041 29.348933 688.431683 27.638989 688.431683l-0.165776-54.082756c5.293563-0.068562 130.23004-3.375887 157.798932-161.703869l55.611575-344.391654c2.847861-46.216601 34.739199-133.689838 135.27494-133.689838l531.385513 0 0 54.191226L376.157637 48.754792C302.955428 48.755816 295.535435 123.237157 294.629809 134.160951M920.618956 505.495234c-101.508905 0-539.820626 54.081733-539.820626 54.081733s-108.330264 22.038946-89.975221-94.79704c18.232247-116.821659 45.786813-281.986349 45.786813-281.986349s22.150486-89.013313 115.249861-89.013313l379.062292 0c84.654029 0 114.166179 102.186334 114.166179 102.186334l47.397496 222.748177C992.485751 418.715799 1022.169817 505.495234 920.618956 505.495234"  horiz-adv-x="1024" />

    
    <glyph glyph-name="ren" unicode="&#59108;" d="M652.639111 373.909178c48.095391 42.647309 78.850859 107.351983 78.850859 179.918719 0 128.572284-96.559173 232.67834-215.598336 232.67834-119.143541 0-215.70169-104.158245-215.70169-232.67834 0-64.496943 24.363897-122.968659 63.708997-165.04087C368.771925 384.12689 505.938957 257.332089 652.639111 373.909178L652.639111 373.909178zM797.244556 212.954369 680.040181 319.734324c-44.010353-36.048007-168.653141-112.068402-341.028047 2.726088-51.869345-39.925315-190.499705-154.563238-175.097924-231.894488 0 0 2.726088-80.633459 149.322887-84.562954 0 0 436.903651-32.274054 509.574764 42.911322C822.707484 48.965457 902.082276 100.103138 797.244556 212.954369L797.244556 212.954369zM797.244556 212.954369"  horiz-adv-x="1024" />

    
    <glyph glyph-name="meirongguwenyuekaoqin48" unicode="&#58931;" d="M750.20931 270.960481c0.344854 0.255827 0.352017 0.275269 0.021489 0.057305-20.605294-13.452383-57.053414-0.774643-78.565357-13.788028-7.635911-4.618181-15.504112-11.793604-19.456121-18.114566 9.525957 15.232936 50.579979-8.616238 67.918879-0.518816-6.759961-0.072655-13.527085-0.036839-20.291139-0.036839 13.919011 0.924045 28.386514 3.28072 38.148855 10.229992-6.838755-1.055029-13.591553-3.483334-20.315698-3.992941 12.180414 3.538593 18.622126 8.051373 28.736485 13.179161-7.092535-2.723018-14.464433-5.236258-22.35924-6.590092C737.300302 256.578935 740.607628 264.159588 750.20931 270.960481L750.20931 270.960481zM750.20931 270.960481M843.644329 128.313643c-11.467169 11.885701-27.173896 10.56666-40.193421 2.242064 10.79895 5.618974 27.542286 6.811126 37.279045-5.26184 16.575514-20.544919 6.812149-41.793872-16.22145-47.108924-23.035646-5.316076-45.607734 2.053776-59.711963 26.027793-14.105253 23.976064 8.628518 98.862635 8.628518 98.862635s-9.698896-45.799092-5.405103-77.287247c4.291746-31.490202 28.577872-47.486524 57.078996-38.153972-62.903655 6.202259-30.27656 70.976518-17.907858 96.052636 12.368702 25.072025 34.770921 61.516052 34.4363 131.051755-0.334621 69.539796-31.490202 77.737502-38.3484 94.7909-12.301164 30.571273-65.071018 66.086138-98.715279 68.720128 18.808368-5.228071 35.082006-20.895913 48.984644-33.825386 16.898879-15.719007 20.952194-44.903699 22.023596-66.919109 0.246617-5.070482-1.880837-10.691503-0.904603-15.665795 0.988514-5.048993 3.926426-6.566556 5.465478-10.727319 11.82328-31.968086 3.938706-47.165206-18.267039-86.568634-22.207791-39.403428-40.59558-139.365094-18.862603-171.126472 21.728884-31.760354 66.633606-41.3385 92.913133-23.162536C854.749248 83.289194 860.223936 111.137449 843.644329 128.313643L843.644329 128.313643zM843.644329 128.313643M724.545814 301.274904c-21.50785-4.532223-39.494503-0.026606-56.201-10.775414-4.29277-2.76395-13.121855-6.243191-15.531741-10.471492-2.960425-5.194302 0.010233-13.096273-2.148943-18.530029 15.08251 26.137287 47.862078 19.25146 74.059739 32.320103 15.048741 7.503904 26.548656 5.259794 41.838897 4.405333C749.465366 299.181219 746.05264 305.80508 724.545814 301.274904L724.545814 301.274904zM724.545814 301.274904M587.372641 124.487501c4.101411-4.419659 7.033184-9.999748 11.115152-14.503319 11.344373-12.502755 32.480762-12.617365 47.730071-9.045003 6.456039 1.512447 13.387915 5.542226 18.150382 10.119475 2.978844 2.864234 5.091972 6.494924 7.178493 10.006911 2.103918 3.538593 5.494131 6.699586 8.384971 9.665127 3.184529 3.270487 6.819313 6.129604 10.868535 8.251941-3.072989-1.325182-7.766894-0.935302-11.757788-0.288572-1.397836 0.227174-2.708692 0.488117-3.833305 0.715291-5.731538 1.167592-11.562337 3.992941-16.405645 7.250124-4.408403 2.962471-7.846712 6.180769-13.682627 5.991458-4.374634-0.144286-13.900591-4.221138-12.675694-10.94733-1.373277 7.532557-8.858762 10.894118-15.314801 9.379625-7.725962-1.811252-14.873756-6.949272-21.116947-11.673877-6.838755-5.178953-14.582113-6.382361-23.067368-6.396687C577.985854 133.020852 584.127737 127.979022 587.372641 124.487501L587.372641 124.487501zM587.372641 124.487501M446.037682 405.087271c1.954515-0.686638 72.935126 62.756299 96.734158 75.16491 28.202319 14.70491 39.317471 15.168468 57.956993 17.303085 69.814042 7.987928 169.117722-30.138414 166.208463-112.863511 0.273223 7.791453-24.480554 16.062837-30.30726 16.309454-11.347442 0.478907-30.200836-2.354628-40.74396-6.668886-19.420305-7.944949-37.204343-20.800745-51.67594-35.969213-19.047822-19.963681-28.269857-44.971238-42.800805-67.468624 26.058492 40.333614 58.024531 91.857081 107.104343 105.503892 24.579815 6.833639 56.661488-0.11461 60.616566-29.250184-7.982812 11.120268-29.884634 7.878434-41.978067 5.958712-29.169343-4.632507-53.631478-25.058722-71.120804-47.845705-9.488095-12.361539-16.863063-26.552749-21.935592-41.611723-6.647397-19.74674-11.531638-40.198537-21.279652-58.753125-23.483854-44.693922-33.660634-71.529103-76.121701-95.361905 52.05968 29.224602 61.175291 72.847122 80.759325 129.312134 10.67513 30.776957 10.228969 56.776098 35.218106 80.96808-22.191418-21.48022-33.07428-46.574758-44.50461-75.849502-73.339332-149.482523-164.848489 135.834688-164.848489 135.834688L446.037682 405.087271M452.003558 462.404698l-127.784338 0c2.070148 18.700921 3.116991 39.98262 3.116991 63.894216l0 3.116991 188.56668 0 0-26.155706c11.94096 4.688789 24.452925 8.238638 37.401842 10.522658l0 149.655462-263.370363 0 0-134.022413c0-54.032614-3.653203-94.03877-10.908444-119.996978-7.280824-25.981744-22.353101-50.404993-45.193295-73.244164 14.537088-12.467963 25.445532-22.329565 32.726356-29.610388 31.16786 39.495526 49.332569 80.501452 54.544267 123.113969l103.362112 0C432.444083 441.571207 441.685561 452.546166 452.003558 462.404698zM327.33621 629.154489l188.56668 0 0-65.452711-188.56668 0L327.33621 629.154489z"  horiz-adv-x="1024" />

    
    <glyph glyph-name="comiisfariji" unicode="&#58985;" d="M902.125 831.587h-718.357v-119.357h-87.303c-16.435 0-32.054-11.658-32.054-28.091v-59.677c0-16.435 15.62-31.588 32.054-31.588h87.303v-59.677h-87.303c-16.435 0-32.054-11.656-32.054-28.090v-59.678c0-16.435 15.62-31.588 32.054-31.588h87.303v-59.678h-87.303c-16.435 0-32.054-11.655-32.054-28.090v-59.679c0-16.433 15.62-31.586 32.054-31.586h87.303v-59.679h-87.303c-16.435 0-32.054-11.654-32.054-28.089v-59.679c0-16.433 15.62-31.586 32.054-31.586h87.303v-119.36h718.357c32.927 0 57.464 28.556 57.464 61.426v775.82c0.001 32.985-24.536 57.929-57.464 57.929zM362.803-3.912h-119.358v59.679h32.054c16.376 0 27.624 15.154 27.624 31.586v59.679c0 16.434-11.19 28.089-27.624 28.089h-32.054v59.679h32.054c16.376 0 27.624 15.153 27.624 31.586v59.679c0 16.434-11.19 28.090-27.624 28.090h-32.054v59.678h32.054c16.376 0 27.624 15.153 27.624 31.587v59.679c0 16.433-11.19 28.090-27.624 28.090h-32.054v59.677h32.054c16.376 0 27.624 15.154 27.624 31.587v59.678c0 16.435-11.19 28.090-27.624 28.090h-32.054v59.678h119.358v-775.813z"  horiz-adv-x="1024" />

    
    <glyph glyph-name="yundongyuqie1" unicode="&#58982;" d="M845.897472 118.202059c-1.125612 4.604777-3.581493 8.595583-7.162986 12.074748 11.972419 4.502448 20.261017 16.270211 19.851704 29.777556-0.511642 16.884181-14.735285 30.186869-31.721795 29.572899-0.61397 0-1.330269 0-2.046567 0-29.470571 0-59.04347 22.0006-87.797742 65.490157C702.740082 306.895573 670.608974 387.734986 641.34306 495.486759c-4.40012 16.372539-21.284301 25.991406-37.65684 21.591286-2.046567-0.511642-3.990806-1.330269-5.935045-2.251224-7.981613 7.162986-18.521435 11.460777-30.493854 11.358449l-12.381733-0.102328c-17.395823-6.139702-35.610273-9.311882-54.234036-9.311882-17.702808 0-34.893974 2.762866-51.47117 8.288598l-16.065554-0.102328c-11.358449-0.102328-21.284301-4.093135-28.958929-10.744479-2.046567 1.125612-4.40012 2.046567-6.753672 2.762866-16.372539 4.40012-33.25672-5.218747-37.65684-21.591286-29.265914-107.751774-61.397022-188.693515-95.677026-240.369341-29.368242-44.410513-59.65744-66.411112-89.844309-65.387829-16.884181 0.61397-31.107825-12.58639-31.721795-29.572899-0.511642-13.507345 7.879285-25.275107 19.954032-29.777556-3.479165-3.376836-5.935045-7.367643-7.060658-11.972419l-3.172179-13.507345c-2.558209-11.051464 3.376836-22.512241 14.939942-32.847407 3.78615-5.01409 9.004897-9.004897 15.04227-10.949136 17.293495-10.437494 40.215049-18.726092 64.876187-22.512241 42.159288-1.330269 75.620666-1.534926 105.807535-3.888478 5.62806-0.818627 11.256121-1.330269 16.884181-1.534926 36.838213-3.990806 70.29959-12.177076 111.435595-30.493854 6.856001-1.023284 13.405016-0.61397 19.237734 1.023284 5.832717-1.637254 12.484061-2.148896 19.44239-1.125612 42.773259 19.033077 77.155591 27.117018 115.733387 30.903168 2.660538 0.204657 5.423404 0.409313 8.083941 0.716299 31.41481 2.660538 66.104127 2.865194 110.412311 4.297792 25.070451 3.888478 48.401319 12.381733 65.797142 23.023883 5.321075 1.944239 9.925852 5.423404 13.405016 9.823524 12.074748 10.539822 18.316778 22.205256 15.656241 33.461377L845.897472 118.202059zM685.855901 221.246727c24.45648-37.04287 50.959528-63.034276 79.304487-77.974218-1.637254-0.204657-3.274508-0.409313-4.809433-0.716299l-100.691116 18.316778c-18.112122 3.888478-37.247527 5.423404-55.154992 4.502448L584.755471 241.405416c-0.204657 0.920955-0.61397 1.841911-1.023284 2.762866l20.363346 160.757869C629.268312 326.440292 656.283002 265.964225 685.855901 221.246727zM315.324873 221.246727c29.982212 45.331468 57.201559 106.72849 82.681323 186.44229l23.023883-158.404317c-2.148896-2.455881-3.683821-5.116419-4.40012-7.879285l-19.851704-76.132307c-17.907465 0.920955-37.04287-0.61397-55.154992-4.502448l-100.077146-18.21445c-1.841911 0.306985-3.581493 0.511642-5.423404 0.818627C264.365344 158.31478 290.868392 184.306186 315.324873 221.246727zM500.641551 679.677826m-101.509743 0a99.2 99.2 0 1 0 203.019486 0 99.2 99.2 0 1 0-203.019486 0Z"  horiz-adv-x="1024" />

    
    <glyph glyph-name="xiala" unicode="&#58907;" d="M1011.2 648.96c-16.64 16.64-43.52 16.64-60.16 0L514.56 208.64 72.96 647.68c-16.64 16.64-43.52 16.64-60.16 0-16.64-16.64-16.64-43.52 0-60.16l469.76-465.92c1.28-1.28 1.28-1.28 2.56-1.28 0 0 0 0 0 0 7.68-7.68 19.2-12.8 29.44-12.8 11.52 0 21.76 3.84 30.72 12.8L1011.2 588.8C1027.84 605.44 1027.84 632.32 1011.2 648.96L1011.2 648.96 1011.2 648.96zM1011.2 648.96"  horiz-adv-x="1024" />

    
    <glyph glyph-name="shouye" unicode="&#58916;" d="M936.741146 433.586348c-0.412392 14.641465-3.319605 25.442462-13.707187 40.293705-1.973958 3.010567-319.019801 341.836459-319.019801 341.836459-22.017456 23.469528-51.064003 34.71157-80.242556 34.738176L523.771603 850.688002c-0.418532 0.025583-0.938372-0.130983-1.457188-0.130983s-1.037632 0.156566-1.557472 0.130983l0-0.233314c-29.076222-0.025583-58.151421-11.268648-80.272231-34.738176 0 0-316.939419-338.825892-318.912353-341.836459-10.384511-14.851243-13.291724-25.65224-13.70821-40.293705 0 0 0-5.088902 0-5.504364 0-46.210461 37.488823-83.755566 83.70133-83.755566l20.041452 0 0-300.375162c0-48.91199 43.925419-88.529289 98.032734-88.529289 54.105269 0 97.927333 39.616276 97.927333 88.529289L407.566998 344.327442l113.190969 0 3.01466 0 113.162316 0 0-300.375162c0-48.91199 43.929512-88.529289 98.03478-88.529289s97.924263 39.616276 97.924263 88.529289L832.893986 344.327442l20.045545 0c46.314839 0 83.802638 37.543058 83.802638 83.755566 0 0.416486-0.102331 0.830925-0.102331 1.245364L936.741146 433.586348zM811.918255 736.378559l0.520863-0.649799 63.035662-66.618257c8.930393-9.397021 23.679305-9.813506 33.023114-0.933255 0.103354 0.051165 0.103354 0.155543 0.314155 0.258896l0.827855 0.778736c2.802836 2.90619 4.466732 5.502317 5.506411 10.488889 0.206708 0.934279 0.310062 1.973958 0.411369 2.959402 0.207731 1.090844 0.414439 2.128477 0.51984 3.428076l7.272637 123.629715c0.518816 9.009188-2.804882 17.029862-8.306176 22.949688l0 0.052189c-0.107447 0.077771-0.211824 0.181125-0.316202 0.258896-0.104377 0.104377-0.205685 0.207731-0.312108 0.338714l0-0.025583c-5.605671 5.865591-13.397125 9.605775-22.428825 9.578146l-123.889635-0.311085c-1.348718-0.052189-2.284019-0.130983-3.427052-0.234337-1.041726-0.076748-1.977028-0.104377-2.908236-0.284479-5.088902-0.75213-7.788383-2.232854-10.905374-4.958942l-0.831948-0.831948c0-0.051165-0.207731-0.128937-0.207731-0.181125-9.340739-8.905834-9.762341-23.651676-0.936325-33.04972L811.918255 736.378559z"  horiz-adv-x="1024" />

    
    <glyph glyph-name="meitishoushen" unicode="&#58908;" d="M862.52032 164.23424l-1.16736-3.33312c-3.59936-9.13408-8.6272-21.08928-14.53056-35.07712-26.73664-63.31904-76.47232-181.23776-76.47232-251.30496l-87.77216 0c0 87.82848 52.1728 211.51232 83.37408 285.43488 5.23264 12.38528 9.728 23.05536 13.07648 31.45216 26.56768 88.4992 24.66304 152.18688 9.32864 205.31712-118.31808-23.14752-202.74688-75.28448-252.09344-129.70496l0-390.54848-48.53248 0 0 395.2896c-50.57024 53.42208-134.99904 103.94112-252.38016 125.93664-15.06304-52.92544-16.7936-116.3776 9.62048-204.35968 3.36384-8.41728 7.86432-19.15392 13.1328-31.58016 31.1552-73.88672 83.29216-197.49376 83.29216-285.29152L253.62944-123.53536c0 70.03136-49.68448 187.8784-76.3904 251.17696-5.93408 14.05952-10.99264 26.0608-14.592 35.2256l-1.15712 3.30752c-61.60896 203.14112 5.20704 312.40704 58.9056 400.21504 51.16928 83.6352 91.58144 149.68832 27.9808 291.13856L328.44288 893.4912c76.17536-169.46176 29.73696-268.1088-20.49024-352.01024 74.22976-24.91392 167.41888-39.90528 204.0576-39.90528 35.9424 0 128.9728 14.42816 203.7248 38.49216-50.10432 83.79392-96.17408 182.35392-20.1728 351.47776l80.06144-35.97312c-63.57504-141.45536-23.18336-207.51872 27.96032-291.1488C857.28768 476.6208 924.12416 367.33952 862.52032 164.23424z"  horiz-adv-x="1024" />

    
    <glyph glyph-name="baojia" unicode="&#58911;" d="M852.811294 653.071059c0 9.276235-4.457412 17.950118-11.926588 23.371294L528.986353 882.266353c-10.119529 7.348706-23.853176 7.348706-34.032941 0L182.633412 676.502588c-7.469176-5.421176-11.926588-14.155294-11.926588-23.431529l0-730.232471c0-15.962353 12.950588-28.912941 28.912941-28.912941l624.700235 0c15.962353 0 28.912941 12.950588 28.912941 28.973176L852.811294 653.071059zM457.487059 696.500706c30.117647 30.117647 78.908235 30.117647 109.025882 0 30.117647-30.117647 30.117647-78.908235 0-109.025882-30.117647-30.117647-78.908235-30.117647-109.025882 0C427.369412 617.592471 427.369412 666.383059 457.487059 696.500706zM648.131765 298.646588l0-58.548706L548.562824 240.097882l0-31.744 99.508706 0 0-58.548706L548.562824 149.805176l0-72.222118L474.172235 77.583059l0 72.222118-98.183529 0 0 58.548706 98.183529 0 0 31.744-98.183529 0L375.988706 298.646588l69.029647 0L362.736941 465.618824l81.558588 0 52.946824-112.760471c6.686118-14.095059 11.444706-26.563765 14.336-37.285647 3.312941 11.625412 8.071529 24.033882 14.215529 37.285647l53.970824 112.760471 81.558588 0L577.957647 298.646588 648.131765 298.646588z"  horiz-adv-x="1024" />

    
    <glyph glyph-name="rexiaobang" unicode="&#58882;" d="M799.656089 479.650609c27.325729-138.164515-84.025015-196.719648-84.025015-196.719648C740.716988 527.774609 422.407447 815.622681 389.77016 896c145.331919-357.922248-15.99867-461.273657-15.99867-461.273657 13.630867 183.21677-108.598973 212.20636-108.598973 212.20636C336.334602 500.512875 204.569555 459.172311 149.150162 295.793892c-53.371563-157.23493 120.054021-590.542911 576.400087-355.170476C1032.276752 98.818266 799.656089 479.650609 799.656089 479.650609L799.656089 479.650609zM799.656089 479.650609"  horiz-adv-x="1024" />

    
    <glyph glyph-name="huiyuanzhuanqu" unicode="&#59007;" d="M486.4 803.84 232.448 803.84 336.896 628.736ZM182.272 803.84 171.008 803.84 0 593.92 308.224 593.92ZM1024 593.92 855.04 803.84 828.416 803.84 703.488 593.92ZM32.768 551.936 503.808-35.84 327.68 551.936ZM778.24 803.84 528.384 803.84 674.816 629.76ZM514.048-35.84 990.208 551.936 690.176 551.936ZM377.856 551.936 508.928 96.256 651.264 551.936ZM654.336 593.92 513.024 762.88 368.64 593.92Z"  horiz-adv-x="1024" />

    
    <glyph glyph-name="huodong" unicode="&#58881;" d="M638.15677-63.783443c-13.368472 0-26.284643 3.051499-38.393425 9.072633l-148.016125 70.110801 13.156648 17.542538c8.964162 11.952216 65.163115 77.916581 136.312572 161.428599 89.240487 104.746646 200.304002 235.107669 225.231741 267.705088l0.401136 0.505513c40.652885 49.368384 33.552164 89.193415 33.469276 89.582271l-0.096191 0.475837L822.631248 754.709043l40.845267-40.887222c4.742001-4.747117 9.725502-13.037944 11.403724-20.924565l73.435523-156.88205 0.191358-0.477884c8.444323-21.12104 8.444323-52.976562 0.001023-74.098625l-0.543376-1.223874L714.814684-16.209938C700.144566-45.554266 670.770562-63.783443 638.15677-63.783443zM507.544013 28.600641l108.058065-51.186799c7.141654-3.570315 14.730493-5.381567 22.554692-5.381567 18.934235 0 36.011168 10.612709 44.587498 27.702945l232.722342 475.55802c4.78498 12.595876 4.768607 33.987069-0.049119 46.5195l-21.624507 46.196135 1.63422-8.786107c1.093914-5.721305 9.359158-58.163701-40.723493-119.15889-25.843598-33.723056-132.283816-158.65851-226.223325-268.921799C578.639235 112.642732 530.915303 56.626951 507.544013 28.600641zM420.049287 34.379251c-20.583804 0-39.801495 7.753591-54.212716 21.850657L99.394243 278.822542l-0.154519 0.135076c-18.280342 15.998369-29.224602 39.013549-30.026874 63.145156-0.720408 21.673625 7.02602 41.879829 21.827121 56.993039L432.246073 804.48982l0.543376 0.543376c16.062837 16.061814 43.963281 32.267914 70.085218 32.267914l0.344854-0.00307 175.48985-3.375887c31.339776-0.046049 62.86477-12.384052 88.790232-34.750455 24.642237-21.261233 42.402739-49.726541 50.006927-80.152505l0.199545-0.896416 33.782408-172.274622c4.539386-22.700001-4.259-55.157227-20.476357-75.435063l-0.340761-0.412392L485.953276 64.455243C469.478046 45.622316 444.840926 34.379251 420.049287 34.379251zM122.683668 306.034301l267.304975-223.314065 0.566912-0.566912c9.885138-9.884115 21.494547-11.960403 29.493731-11.960403 14.57802 0 29.100782 6.637164 38.874379 17.759479l344.268858 405.018453c10.517541 13.297864 15.380292 34.822087 13.162788 45.917796l-33.703613 171.871439c-12.461823 49.01125-58.112536 87.343277-104.122429 87.343277l-0.344854 0.00307L502.723218 801.485393c-14.667048-0.074701-33.474392-10.902304-44.098357-21.273513L117.485273 374.894621l-0.543376-0.543376c-10.370185-10.369162-12.212136-22.614044-11.93175-31.05939C105.474728 329.30326 112.078123 315.389366 122.683668 306.034301zM652.910798 579.619306c-0.001023 0-0.002047 0-0.004093 0-19.555381 0.001023-38.476313 7.065929-53.334719 19.902282-17.250896 13.583366-27.856441 32.670074-29.879518 53.80237-2.136663 22.318308 5.53404 45.285393 21.046339 63.013149 15.948227 18.228153 38.818097 28.683273 62.742996 28.683273 19.72832 0 38.810934-7.188726 53.730739-20.243043 16.662495-14.580067 26.76355-34.623565 28.441772-56.43943 1.693572-22.036899-5.41022-43.358507-20.005636-60.035328C699.702498 590.074426 676.834674 579.619306 652.910798 579.619306zM653.482827 709.20364c-13.596669 0-26.640754-5.996574-35.789111-16.451694-9.05012-10.341532-13.549597-23.468504-12.348236-36.014238 1.105171-11.546987 6.852058-21.664416 16.619516-29.261441l0.799202-0.659009c8.508791-7.445576 18.933211-11.382235 30.144554-11.382235 13.594623 0 26.638707 5.995551 35.787064 16.452717 8.204869 9.374508 12.198833 21.343097 11.248182 33.703613-0.954745 12.413727-6.748704 23.860431-16.314571 32.231075C675.11859 705.268004 664.694169 709.20364 653.482827 709.20364z"  horiz-adv-x="1024" />

    
    <glyph glyph-name="xiala1" unicode="&#59299;" d="M512 64 70.4 499.2 12.8 441.6 512-57.6 1011.2 441.6 953.6 499.2Z"  horiz-adv-x="1024" />

    
    <glyph glyph-name="shouye1" unicode="&#58897;" d="M445.167872 716.396459c-87.502913-98.206696-195.765639-205.984375-283.493679-304.428477-45.367257-51.570539-1.140986-85.160565 17.134239-85.160565 56.756655 0 83.226516 0 83.226516 0s0-141.447523 0-246.503207c0-30.807656 22.193465-65.376986 53.851489-65.376986 51.832506 0 122.392538 0 122.392538 0l-0.933255 223.797066 166.149111 0-0.720408-223.797066c0 0 70.564126 0 122.388445 0 23.826662 0 53.854559 21.800515 53.854559 83.404572 0 107.769492 0 228.474598 0 228.474598s15.296381 0 65.038272 0c31.330566 0 49.511647 37.074384 24.789593 71.345931-81.013105 95.699596-186.992835 212.231659-274.380114 315.481208C538.76662 768.854205 487.87658 761.534496 445.167872 716.396459z"  horiz-adv-x="1024" />

    
    <glyph glyph-name="shangcheng1" unicode="&#58930;" d="M872.879164 664.181237 153.058978 664.181237l-65.432245-195.437158c0-60.249199 47.604204-109.081371 106.334817-109.081371 58.736752 0 106.334817 48.832172 106.334817 109.081371 0-60.249199 47.604204-109.081371 106.33584-109.081371 58.72345 0 106.339934 48.832172 106.339934 109.081371 0-60.249199 47.604204-109.081371 106.334817-109.081371 58.725496 0 106.339934 48.832172 106.339934 109.081371 0-60.249199 47.599088-109.081371 106.334817-109.081371 58.731636 0 106.33584 48.832172 106.33584 109.081371L872.879164 664.181237zM225.046522 698.352501l575.84919 0c21.685905 0 39.264259 14.737656 39.264259 32.942273 0 18.202571-17.578354 32.960693-39.264259 32.960693L225.046522 764.255467c-21.677719 0-39.262212-14.759145-39.262212-32.960693C185.78431 713.090157 203.368804 698.352501 225.046522 698.352501zM725.642798 354.380402c-28.849048-27.761274-66.412572-42.98807-106.33584-42.98807-39.927361 0-77.489862 15.226796-106.337887 42.990117-28.850072-27.761274-66.413596-42.990117-106.336864-42.990117-39.925315 0-77.486792 15.226796-106.334817 42.986023-28.845978-27.758204-66.408479-42.986023-106.33584-42.986023-2.738367 0-5.464455 0.075725-8.17724 0.218988L185.78431 71.068871c0-40.086997 35.232432-65.891709 65.432245-65.891709l523.500938 0c39.398312 0 65.442478 29.910217 65.442478 65.891709L840.159972 311.610296c-2.714831-0.14224-5.438872-0.218988-8.178263-0.218988C792.053324 311.391309 754.490823 326.617082 725.642798 354.380402z"  horiz-adv-x="1024" />

    
    <glyph glyph-name="shouye2" unicode="&#58901;" d="M939.897 433.887l-359.09 359.09c-29.547 29.547-77.45 29.547-106.995 0l-359.09-359.09c-29.546-29.546-37.54-88.647 0-106.994 20.87-10.2 45.096-19.099 71.913-26.756v-224.42c0-49.402 32.006-89.426 71.439-89.426h326.212v0.699h-0.043V92.606c0 59.496 30.53 107.743 68.21 107.743 37.624 0 68.198-48.248 68.198-107.743V-13.01h-0.043v-0.699h75.935c39.432 0 71.442 40.025 71.442 89.426V303.249c26.655 7.03 50.862 14.926 71.912 23.644 38.603 15.99 29.545 77.45 0 106.994z"  horiz-adv-x="1024" />

    
    <glyph glyph-name="jia" unicode="&#58665;" d="M858.476 336.773h-299.249v-299.249c0-17.404-21.153-47.25-47.25-47.25-26.081 0-47.25 29.846-47.25 47.25v299.249h-299.249c-17.388 0-47.25 21.153-47.25 47.25s29.862 47.25 47.25 47.25h299.249v299.249c0 17.388 21.168 47.25 47.25 47.25 26.097 0 47.25-29.862 47.25-47.25v-299.249h299.249c17.388 0 47.25-21.153 47.25-47.25s-29.862-47.25-47.25-47.25z"  horiz-adv-x="1024" />

    
    <glyph glyph-name="fuwu" unicode="&#58884;" d="M275 813.1c-111 0-200.9-90-200.9-200.9 0-111 90-200.9 200.9-200.9h201V612.2c0 111-90 200.9-201 200.9z m664.7-200.9c0 111-90 200.9-200.9 200.9s-201-90-201-200.9v-200.9h201c110.9 0 200.9 89.9 200.9 200.9zM74.1 148.5c0-111 90-200.9 200.9-200.9 111 0 200.9 89.9 200.9 200.9V349.4H275c-110.9 0-200.9-89.9-200.9-200.9z m664.6 200.9h-201v-200.9c0-111 90-200.9 201-200.9s200.9 90 200.9 200.9c0.1 111-89.9 200.9-200.9 200.9z"  horiz-adv-x="1024" />

    
    <glyph glyph-name="jizhuanhuan" unicode="&#58625;" d="M-461.946 380.83c0-541.243 438.825-980.068 980.068-980.068s980.068 438.825 980.068 980.068-438.825 980.068-980.068 980.068-980.068-438.825-980.068-980.068zM-363.936 380.83c0 487.095 394.969 882.062 882.062 882.062s882.062-394.969 882.062-882.062-394.969-882.062-882.062-882.062-882.062 394.969-882.062 882.062zM40.343 123.562h465.534v-72.77c0-33.567-17.151-50.226-51.207-49.738h-144.806v-71.542c54.64-1.225 105.602-1.962 152.339-1.962 44.839 0 74.976 8.819 91.149 25.973 17.151 14.948 25.973 44.779 25.973 89.673v80.365h416.53v73.504h-416.53v24.503l196.011 96.782v74.733h-539.038v-73.504h419.716l-150.132-73.504v-49.003h-465.534v-73.504zM64.844 589.096h334.693c-87.471-58.068-207.287-109.031-359.196-153.135 19.111-22.542 34.055-45.085 45.085-67.379 173.472 61.988 305.476 134.271 395.947 217.087v-168.084h73.504v166.61c96.533-92.372 228.782-164.405 396.867-215.615 13.966 24.013 28.913 46.798 44.105 67.379-147.011 33.322-268.047 84.287-362.625 153.135h338.123v73.504h-416.53v84.531c112.463 3.92 226.641 8.575 343.025 13.477l-12.191 73.504c-230.069-12.987-479.252-21.071-747.306-24.503 7.351-26.705 12.253-51.207 14.454-73.504 107.316 2.205 216.839 4.9 328.569 8.819v-82.325h-416.53v-73.504z"  horiz-adv-x="1024" />

    
    <glyph glyph-name="tongji" unicode="&#58912;" d="M524-12c-192 0-354 144-378 336h378c24 0 48 24 48 54v372c186-24 330-186 330-384 0-204-168-378-378-378zM122 396c0 210 168 384 384 384v-330c0-30-24-54-54-54h-330z"  horiz-adv-x="1024" />

    
    <glyph glyph-name="house-5" unicode="&#58640;" d="M774.6 84v675h-525v-675h-112.6v-75h750v75h-112.4zM437 159h-75v75h75v-75zM437 346.4h-75v75h75v-75zM437 534h-75v75h75v-75zM662 159h-75v450h75v-450z"  horiz-adv-x="1024" />

    
    <glyph glyph-name="yuebao" unicode="&#59065;" d="M402.773333 769.706667h204.8c17.066667 0 30.72 17.066667 30.72 34.133333 0 20.48-13.653333 34.133333-30.72 34.133333h-204.8c-17.066667 0-30.72-17.066667-30.72-34.133333 0-20.48 13.653333-34.133333 30.72-34.133333zM709.973333 732.16c20.48 0 34.133333 13.653333 34.133334 27.306667V868.693333c0 17.066667-13.653333 27.306667-34.133334 27.306667s-34.133333-13.653333-34.133333-27.306667V759.466667c0-17.066667 17.066667-27.306667 34.133333-27.306667zM832.853333 841.386667h-20.48c-20.48 0-34.133333-17.066667-34.133333-34.133334 0-20.48 17.066667-34.133333 34.133333-34.133333h20.48c64.853333 0 122.88-51.2 122.88-119.466667V76.8c0-64.853333-54.613333-119.466667-122.88-119.466667H191.146667C126.293333-42.666667 68.266667 11.946667 68.266667 76.8V650.24c0 64.853333 54.613333 119.466667 119.466666 119.466667 20.48 0 34.133333 17.066667 34.133334 34.133333 0 20.48-13.653333 34.133333-34.133334 34.133333C85.333333 841.386667 0 756.053333 0 650.24v-576.853333c0-105.813333 85.333333-191.146667 191.146667-191.146667h645.12c105.813333 0 191.146667 85.333333 191.146666 191.146667V650.24c-3.413333 105.813333-88.746667 191.146667-194.56 191.146667zM300.373333 732.16c20.48 0 34.133333 13.653333 34.133334 27.306667V868.693333c0 17.066667-17.066667 27.306667-34.133334 27.306667-20.48 0-34.133333-13.653333-34.133333-27.306667V759.466667c0-17.066667 17.066667-27.306667 34.133333-27.306667zM310.613333 121.173333l17.066667-13.653333c3.413333-3.413333 6.826667-3.413333 10.24-3.413333 3.413333 0 10.24 3.413333 10.24 6.826666 37.546667 44.373333 61.44 102.4 68.266667 174.08h235.52v-116.053333c0-10.24-3.413333-10.24-6.826667-10.24h-75.093333c-6.826667 0-10.24-3.413333-13.653334-6.826667-3.413333-3.413333-3.413333-10.24-3.413333-13.653333l6.826667-17.066667c3.413333-6.826667 10.24-10.24 17.066666-10.24h75.093334c34.133333 0 51.2 20.48 51.2 54.613334V592.213333c0 10.24-6.826667 17.066667-17.066667 17.066667h-303.786667c-10.24 0-17.066667-6.826667-17.066666-17.066667v-266.24c0-75.093333-20.48-133.12-58.026667-180.906666-3.413333-6.826667-3.413333-17.066667 3.413333-23.893334z m112.64 436.906667h232.106667v-85.333333h-232.106667V558.08z m0-136.533333h232.106667v-85.333334h-232.106667v85.333334z"  horiz-adv-x="1027" />

    
    <glyph glyph-name="zhoubao" unicode="&#59066;" d="M430.08 206.506667h163.84c13.653333 0 20.48 10.24 20.48 20.48V315.733333c0 13.653333-10.24 20.48-20.48 20.48h-163.84c-13.653333 0-20.48-10.24-20.48-20.48v-88.746666c0-13.653333 10.24-20.48 20.48-20.48z m23.893333 85.333333h122.88v-47.786667h-122.88v47.786667zM283.306667 114.346667c3.413333 0 6.826667-3.413333 13.653333-3.413334h3.413333c6.826667 0 10.24 3.413333 10.24 10.24 34.133333 64.853333 51.2 146.773333 51.2 249.173334v177.493333h310.613334v-375.466667c0-6.826667 0-6.826667-6.826667-6.826666h-68.266667c-6.826667 0-10.24-3.413333-13.653333-6.826667-3.413333-3.413333-3.413333-10.24-3.413333-13.653333l3.413333-17.066667c3.413333-6.826667 10.24-13.653333 17.066667-13.653333h71.68c27.306667 0 44.373333 13.653333 51.2 34.133333V581.973333c0 10.24-6.826667 17.066667-17.066667 17.066667H327.68c-10.24 0-17.066667-10.24-17.066667-17.066667v-215.04c0-88.746667-17.066667-163.84-44.373333-218.453333-3.413333-6.826667 0-13.653333 3.413333-20.48l13.653334-13.653333zM402.773333 411.306667c-10.24 0-17.066667-6.826667-17.066666-17.066667v-13.653333c0-10.24 10.24-17.066667 17.066666-17.066667h221.866667c10.24 0 17.066667 10.24 17.066667 17.066667v13.653333c0 10.24-6.826667 17.066667-17.066667 17.066667h-85.333333v23.893333h68.266666c10.24 0 17.066667 6.826667 17.066667 17.066667v13.653333c0 10.24-6.826667 17.066667-17.066667 17.066667h-68.266666v27.306666c0 10.24-10.24 17.066667-17.066667 17.066667h-13.653333c-10.24 0-17.066667-6.826667-17.066667-17.066667v-27.306666h-71.68c-10.24 0-17.066667-6.826667-17.066667-17.066667v-13.653333c0-10.24 10.24-17.066667 17.066667-17.066667h71.68v-23.893333h-88.746667zM709.973333 732.16c20.48 0 34.133333 13.653333 34.133334 27.306667V868.693333c0 17.066667-13.653333 27.306667-34.133334 27.306667s-34.133333-13.653333-34.133333-27.306667V759.466667c0-17.066667 17.066667-27.306667 34.133333-27.306667zM300.373333 732.16c20.48 0 34.133333 13.653333 34.133334 27.306667V868.693333c0 17.066667-17.066667 27.306667-34.133334 27.306667s-34.133333-13.653333-34.133333-27.306667V759.466667c0-17.066667 17.066667-27.306667 34.133333-27.306667zM402.773333 769.706667h204.8c17.066667 0 30.72 17.066667 30.72 34.133333 0 20.48-13.653333 34.133333-30.72 34.133333h-204.8c-17.066667 0-30.72-17.066667-30.72-34.133333 3.413333-20.48 17.066667-34.133333 30.72-34.133333zM836.266667 841.386667h-20.48c-20.48 0-34.133333-17.066667-34.133334-34.133334s17.066667-34.133333 34.133334-34.133333h20.48c64.853333 0 119.466667-51.2 119.466666-119.466667V76.8c0-64.853333-54.613333-119.466667-119.466666-119.466667H191.146667c-64.853333 0-119.466667 54.613333-119.466667 119.466667V650.24c0 64.853333 54.613333 119.466667 119.466667 119.466667 20.48 0 34.133333 17.066667 34.133333 34.133333s-17.066667 34.133333-34.133333 34.133333C85.333333 841.386667 0 756.053333 0 650.24v-576.853333c0-105.813333 85.333333-191.146667 191.146667-191.146667h645.12c105.813333 0 187.733333 85.333333 187.733333 191.146667V650.24c0 105.813333-85.333333 191.146667-187.733333 191.146667z"  horiz-adv-x="1024" />

    
    <glyph glyph-name="zuanshi" unicode="&#58626;" d="M344.318 429.646l400.1 1.798-192.408-483.716zM390.172 604.97l304.795-2.697 53.947-117.782-395.604 2.697zM302.959 490.784l-240.959 100.699 129.471 96.204 154.645-80.020zM62 533.042l228.371-101.598 245.454-480.12zM801.96 432.343l213.986 110.589-450.449-588.911zM797.464 491.683l-60.239 124.076 137.562 76.423 118.681-99.8zM385.677 664.311l-52.148 13.487-98.002 54.846 115.085 41.359h375.824l114.186-47.652-109.69-53.048-36.863-8.992h-308.392z"  horiz-adv-x="1086" />

    
    <glyph glyph-name="huodong1" unicode="&#58909;" d="M2.862-127.985h181.192V60.612h68.894v-86.154h68.698v86.154h68.893v-188.597h63.193a112.432 112.432 0 0 0-26.671 72.862c0 62.34 50.56 112.897 112.901 112.897S652.86 7.218 652.86-55.123a112.432 112.432 0 0 0-26.671-72.862h99.698V10.634h-52.388v48.26h173.669v-48.26h-52.388v-138.619h237.197c2.208 480.45-183.431 355.666-85.256 643.305-211.02-61.108-40.969-355.186-169.654-335.863-102.474 84.4 6.315 229.375 0.867 340.754C753.64 660.883 534.493 698.188 654.783 895.964 361.825 809.707 610.528 557.5 503.214 524.794c-138.711-8.453-114.48 141.75-96.633 238.795-276.246-160.934-3.622-462.706-108.33-491.988-83.197-17.662-56.206 198.839-143.814 202.383 84.518-183.446-184.799-295.522-151.57-601.969z m250.086 0h68.698V-68.13h-68.698v-59.854z m287.014 9.918c34.757 0 62.945 28.188 62.945 62.95 0 34.75-28.188 62.939-62.945 62.939s-62.95-28.188-62.95-62.945 28.194-62.95 62.95-62.95z m-501.244-9.918h145.336V60.612h68.894v-86.154h68.698v86.154h68.893v-188.597h63.193a112.432 112.432 0 0 0-26.671 72.862c0 62.34 50.56 112.897 112.901 112.897S652.86 7.218 652.86-55.123a112.432 112.432 0 0 0-26.671-72.862h99.698V10.634h-52.388v48.26h173.669v-48.26h-52.388v-138.619h201.156c5.21 447.939-158.231 329.222-95.493 565.933-92.727-60.457 7.822-199.658-64.972-256.313-49.911-38.853-98.852-25.66-127.401 28.369-48.337 91.467 46.505 216.082 42.305 301.874C727.78 642.731 522.156 672.916 600.89 832.576c-183.823-108.346 64.095-211.46-84.76-347.395-129.02-7.863-137.787 110.224-150.708 186.873-186.872-198.931 116.266-278.805-51.959-428.367-77.381-16.43-81.576 70.111-119.264 105.213-5.675-162.198-186.387-191.846-155.485-476.885z m214.23 0h68.698V-68.13h-68.698v-59.854z m287.014 9.918c34.757 0 62.945 28.188 62.945 62.95 0 34.75-28.188 62.939-62.95 62.939-34.751 0-62.94-28.188-62.94-62.945s28.189-62.95 62.945-62.95z"  horiz-adv-x="1032" />

    
    <glyph glyph-name="huodongguanli" unicode="&#58902;" d="M132.992 57.585v-55.375c0-12.108 9.815-21.925 21.925-21.925H471.69v414.11H132.992v-336.81zM793.982-19.714h51.556c12.11 0 21.924 9.816 21.924 21.925v7.585c0.644 2.856 0.996 5.834 0.996 8.906V394.396H529.792V-19.71h264.012c0.058 0 0.118-0.004 0.178-0.004zM172.228 615.06H120.67c-12.109 0-21.925-9.816-21.925-21.924v-168.829h370.42V609.23c13.635 1.323 25.706 2.927 35.542 4.25 0.288 0 0.574 0.268 0.612 0.307l0.01-0.01h1.279v0.352h-1.587l-0.017 0.012h1.618v-0.341c7.597-1.28 16.5-2.322 25.71-3.247v-186.226h370.402V533.103c0.324 1.502 0.5 3.06 0.5 4.658v55.375c0 12.108-9.815 21.924-21.924 21.924h-51.557c-1.091 0-2.164-0.082-3.213-0.236H695.455c44.125 9.84 78.756 30.227 84.442 67.647 6.672 42.698-45.049 107.419-107.629 99.212-74.886-10.203-129.785-74.925-168.52-125.155-38.402 49.27-88.539 106.775-160.297 123.48-69.512 16.115-117.123-54.507-115.843-98.2 1.244-37.087 35.256-57.171 80.59-66.998h-132.65a22.05 22.05 0 0 1-3.32 0.25zM656.75 741.931c50.149 24.281 96.802-41.409 72.997-72.963-18.4-23.952-76.484-26.235-107.917-27.554-25.723-1.293-51.77-0.684-77.445 1.634 29.832 37.474 64.415 75.535 112.365 98.883zM277.76 668.674c-12.664 13.781-4.124 32.524 3.82 46.619 14.598 24.96 34.883 40.119 69.514 25.99 48.234-19.734 83.772-61.492 112.68-98.879-61.299-6.602-152.698-9.219-186.014 26.27z"  horiz-adv-x="1024" />

    
    <glyph glyph-name="anquanjianliribao" unicode="&#58986;" d="M364.8 115.2h15.999c9.6 0 16 6.4 16 16v28.8h230.4v-28.8c0-9.6 6.4-16 16-16h15.999c9.6 0 16 6.4 16 16v438.399c0 9.6-6.4 16-16 16h-294.399c-9.6 0-16-6.4-16-16v-438.399c0-9.6 6.4-16 16-16zM400 534.4h230.4v-134.4h-230.4v134.4zM400 348.8h230.4v-140.799h-230.4v140.799zM697.6 710.4c19.2 0 32.001 12.8 32.001 25.6v102.399c0 16-12.801 25.6-32.001 25.6s-32-12.8-32-25.6v-102.399c0-16 16-25.6 32-25.6zM313.6 710.4c19.2 0 32.001 12.8 32.001 25.6v102.399c0 16-16 25.6-32.001 25.6-19.2 0-32-12.8-32-25.6v-102.399c0-16 16-25.6 32-25.6zM409.6 745.6h192c16 0 28.8 15.999 28.8 32 0 19.2-12.8 32-28.8 32h-192c-15.999 0-28.8-15.999-28.8-32 3.201-19.2 16-32 28.8-32zM816 812.8h-19.2c-19.2 0-32.001-16-32.001-32.001 0-19.2 16-32 32.001-32h19.2c60.8 0 111.999-48 111.999-112v-540.8c0-60.8-51.2-112-111.999-112h-604.8c-60.801 0-112 51.201-112 112v537.6c0 60.8 51.2 112 112 112 19.2 0 32 15.999 32 32 0 19.2-16 32-32 32-99.201 3.201-179.2-76.8-179.2-176v-540.8c0-99.201 80-179.2 179.2-179.2h604.8c99.2 0 176 80 176 179.2v540.8c0 99.2-80 179.2-176 179.2z"  horiz-adv-x="1024" />

    
    <glyph glyph-name="xuanzhong" unicode="&#58883;" d="M512 896C230.4 896 0 665.6 0 384s230.4-512 512-512 512 230.4 512 512S793.6 896 512 896z m-35.84-737.28l-235.52 209.92L307.2 440.32l163.84-143.36 302.08 307.2 71.68-71.68-368.64-373.76z"  horiz-adv-x="1024" />

    
    <glyph glyph-name="shangcheng2" unicode="&#58915;" d="M945.220267 760.991289H78.756978L0 497.345422c0-81.282844 57.298489-147.160178 128-147.160178s128 65.877333 128 147.160178c0-81.282844 57.298489-147.160178 128-147.160178 70.678756 0 128 65.877333 128 147.160178 0-81.282844 57.321244-147.160178 128-147.160178s128 65.877333 128 147.160178c0-81.282844 57.298489-147.160178 128-147.160178 70.678756 0 128 65.877333 128 147.160178L945.220267 760.991289zM165.410133 807.094044H858.567111c26.100622 0 47.263289 19.888356 47.263289 44.4416S884.690489 896 858.567111 896H165.410133C139.332267 896 118.146844 876.088889 118.146844 851.535644s21.185422-44.4416 47.263289-44.4416zM768 343.062756c-34.724978-37.455644-79.963022-57.981156-128-57.981156-48.059733 0-93.297778 20.525511-128 58.003911-34.724978-37.455644-79.940267-58.003911-128-58.003911s-93.275022 20.525511-128 57.981156c-34.724978-37.455644-79.940267-57.981156-128-57.981156-3.299556 0-6.576356 0.091022-9.853156 0.295822v-324.494222C118.146844-93.206756 160.5632-128 196.926578-128h630.146844c47.422578 0 78.779733 40.3456 78.779734 88.8832v324.494222a157.741511 157.741511 0 0 0-9.853156-0.295822c-48.059733 0-93.275022 20.548267-128 57.981156z"  horiz-adv-x="1024" />

    
    <glyph glyph-name="baojiadan" unicode="&#58942;" d="M54.272 539.2384L214.7328 856.7296a27.904 27.904 0 0 0 28.16 16.2304l356.7616-20.2752a27.5968 27.5968 0 0 0 20.992-13.568l347.8528-599.552a27.392 27.392 0 0 0-10.24-37.5296L440.7808-95.3856a27.648 27.648 0 0 0-37.7344 10.0352L55.552 514.4064a27.2384 27.2384 0 0 0-1.2288 24.832zM331.264 446.464c0.2048-4.096 1.3824-8.8576 3.5328-14.3872a37.2736 37.2736 0 0 1 18.5856-16.0768l108.4928-60.4672-53.8624-30.208a25.2416 25.2416 0 0 1-11.264-14.9504 27.5456 27.5456 0 0 1 2.1504-18.5344c4.0448-6.0928 9.216-10.24 15.4112-12.544a24.4736 24.4736 0 0 1 19.3024 1.2288l70.144 38.8096 12.544-22.3744-70.2976-39.3728a23.7568 23.7568 0 0 1-10.9568-15.7184 31.3856 31.3856 0 0 1 2.6112-19.2512c4.0448-6.0928 9.1136-10.24 15.1552-12.4416a24.064 24.064 0 0 1 18.9952 1.28l70.144 39.7312 21.76-38.8096c12.5952-20.224 29.7472-24.2176 51.5072-12.0832 10.752 6.0416 17.664 13.312 20.736 21.76 3.1232 8.4992 1.9968 18.1248-3.3792 28.8768l-21.3504 38.0928 70.656 39.5776a22.2208 22.2208 0 0 1 10.5984 16.7936 41.0112 41.0112 0 0 1-2.9184 20.224 30.208 30.208 0 0 1-14.848 11.4176 24.9344 24.9344 0 0 1-18.8416-1.8944l-70.7072-39.5776-12.9024 23.04 70.4512 39.936a24.1152 24.1152 0 0 1 11.3152 15.5136 32.8704 32.8704 0 0 1-2.4064 19.3536 30.208 30.208 0 0 1-14.848 11.4176 24.9344 24.9344 0 0 1-18.8416-1.9456l-52.736-29.5424 0.6144 113.9712c0.8192 4.3008 1.024 9.3184 0.7168 15.0528a34.6624 34.6624 0 0 1-5.376 16.4864 39.3728 39.3728 0 0 1-16.64 12.544c-6.0928 2.2528-14.4384 1.1264-25.1392-3.2256a33.792 33.792 0 0 1-12.3904-14.848c-2.6112-6.144-4.2496-12.1344-4.864-17.92l1.3312-133.0176-118.5792 68.3008a50.8416 50.8416 0 0 1-17.5104 4.608 40.2944 40.2944 0 0 1-19.0464-2.9184c-3.5328-2.304-6.656-4.6592-9.216-7.168a25.344 25.344 0 0 1-6.0416-8.1408 22.8864 22.8864 0 0 1-1.7408-10.5984z m-7.2704 150.3744A73.984 73.984 0 0 1 414.3104 648.704a72.8064 72.8064 0 0 1-51.9168 89.4976 73.984 73.984 0 0 1-90.3168-51.9168 72.8064 72.8064 0 0 1 51.9168-89.4976z"  horiz-adv-x="1024" />

    
    <glyph glyph-name="shouye3" unicode="&#58885;" d="M786.34142 777.831758h113.298049v-113.186981c0-20.826708 16.898674-37.725381 37.763308-37.725381 20.845671 0 37.766016 16.898674 37.766016 37.725381V815.559848c0 20.82129-16.920346 37.725381-37.766016 37.725382h-151.061357c-20.861925 0-37.766016-16.904092-37.766016-37.725382 0-20.826708 16.904092-37.730799 37.766016-37.730799m281.220153-390.582041L574.549948 878.335251a29.836805 29.836805 0 0 1-5.174169 6.981065C560.281702 894.407683 549.182974 897.243995 538.170934 895.523787c-8.479136-0.471364-16.822822-3.922616-24.150638-11.242305-0.243809-0.246518-0.379258-0.547216-0.601395-0.815405-1.327405-1.132357-2.681899-2.150937-3.930743-3.413327L14.065532 386.531835c-17.508196-17.483815-19.282584-31.822494-1.758134-49.290056 17.505487-17.505487 35.368561-19.260912 52.871339-1.771679l476.028973 467.40897 478.732545-466.691088c17.52445-17.508196 35.363143-15.733808 52.887593 1.771679 17.483815 17.467561 12.255466 31.784568-5.268984 49.290056m-205.685411-5.564264c-20.864634 0-37.763307-16.898674-37.763307-37.725381v-333.817885c-2.76046-50.761037-16.695499-61.610538-65.541281-63.875252l-427.524525-0.32237c-56.000222 1.571214-71.22474 11.431934-73.413603 71.157015V343.960072c0 20.826708-16.917637 37.725381-37.763307 37.725381-20.870052 0-37.768725-16.898674-37.768726-37.725381v-397.614577c0-49.482394 37.392176-73.947274 86.936877-73.947274h44.847314V-128l451.157744 0.300698v0.097523h44.847314c49.531156 0 89.653993 24.46488 89.653993 73.947274v47.553594h0.113777V343.960072c-0.016254 20.842962-16.9366 37.725381-37.78227 37.725381"  horiz-adv-x="1083" />

    
    <glyph glyph-name="zixun" unicode="&#59437;" d="M917.32992 704v-640c0-47.12448-38.20032-85.32992-85.32992-85.32992H192.00512c-47.1296 0-85.33504 38.20544-85.33504 85.32992v640c0 47.1296 38.20544 85.32992 85.33504 85.32992H832c47.1296 0.00512 85.32992-38.1952 85.32992-85.32992zM256.00512 394.67008a32 32 0 0 1 32-32h149.32992a32 32 0 0 1 32 32V544a32 32 0 0 1-32 32H288.00512a32 32 0 0 1-32-32v-149.32992zM768 224a32 32 0 0 1-32 32H288.00512a32 32 0 1 1 0-64h447.99488a32.00512 32.00512 0 0 1 32 32z m0 170.67008a32.00512 32.00512 0 0 1-32 32h-149.32992a32.00512 32.00512 0 0 1 0-64h149.32992a32.00512 32.00512 0 0 1 32 32z m0 149.32992a32.00512 32.00512 0 0 1-32 32h-149.32992a32.00512 32.00512 0 0 1 0-64h149.32992a32.00512 32.00512 0 0 1 32 32z"  horiz-adv-x="1024" />

    
    <glyph glyph-name="kan" unicode="&#59192;" d="M959.5 382.1V378.4c-1-7.6-4.3-14.6-9.3-20.3-9.4-12.3-19.7-23.8-30-35.1a785.357 785.357 0 0 0-189.9-155c-44.2-25.9-92.2-44.6-142.3-55.4-54-10.9-109.8-10.1-163.5 2.5-94.8 26-181.8 74.8-253.5 142.1-35.6 30.4-68.1 64.1-97.1 100.9-12.5 15.1-12.5 37 0 52.1 9.4 12.2 19.6 23.8 29.9 35.1 54.8 61.3 118.9 113.6 189.9 155C337.9 626 386 644.7 436 655.5c54.1 10.9 109.8 10 163.5-2.5 94.8-26 181.8-74.8 253.4-142.1C888.5 480.5 921 446.7 950 410c5-5.7 8.3-12.7 9.3-20.3v-5.6c0.1-0.6 0.2-1.4 0.2-2zM512 572.4c-99.9 7.7-187.1-67.1-194.7-167-7.7-99.9 67.1-187.1 167-194.7 99.9-7.7 187.1 67.1 194.7 167 0.4 4.6 0.5 9.2 0.5 13.8 3.5 96.1-71.4 177-167.5 180.9z m0-271.5c-50-3.9-93.6 33.5-97.5 83.5-3.9 50 33.5 93.6 83.5 97.5 50 3.9 93.6-33.5 97.5-83.5 0.2-2.3 0.3-4.7 0.3-7 1.7-48-35.8-88.5-83.8-90.5z"  horiz-adv-x="1024" />

    
    <glyph glyph-name="zhong" unicode="&#59035;" d="M512 812.544c-247.808 0-449.536-201.216-449.536-448 0-247.296 201.728-448 449.536-448S961.536 117.248 961.536 364.544s-201.728 448-449.536 448z m-27.648-103.936c0 11.776 9.728 21.504 21.504 21.504h16.896c11.776 0 21.504-9.728 21.504-21.504v-46.592c0-11.776-9.728-21.504-21.504-21.504h-16.896c-11.776 0-21.504 9.728-21.504 21.504v46.592z m-249.344-354.816c0-11.776-9.728-21.504-21.504-21.504h-47.104c-11.776 0-21.504 9.728-21.504 21.504v16.896c0 11.776 9.728 21.504 21.504 21.504h47.104c11.776 0 21.504-9.728 21.504-21.504v-16.896z m308.224-334.848c0-11.776-9.728-21.504-21.504-21.504h-16.896c-11.776 0-21.504 9.728-21.504 21.504v46.592c0 11.776 9.728 21.504 21.504 21.504h16.896c11.776 0 21.504-9.728 21.504-21.504v-46.592z m144.896 419.84c-1.536-5.632-5.12-10.24-10.24-12.8l-120.832-69.12 16.896-29.184c6.144-10.24 2.56-23.552-7.68-29.184l-14.336-8.192c-3.584-2.048-7.68-3.072-11.264-3.072-2.048 0-3.584 0-5.632 0.512-5.632 1.536-10.24 5.12-12.8 9.728l-13.824 24.064-9.216 1.536-19.456-11.264c-2.56-2.048-6.144-3.072-9.728-3.072-2.048 0-3.584 0-5.632 0.512-5.632 1.536-10.24 5.12-12.8 10.24l-8.192 14.336c-6.144 10.24-2.56 23.552 7.68 29.184l19.456 11.264c0.512 2.56 1.536 5.12 2.56 7.68l-86.528 149.504c-6.144 10.24-2.56 23.552 7.68 29.184l14.336 8.192c3.072 2.048 7.168 3.072 10.752 3.072 2.048 0 3.584 0 5.632-0.512 5.632-1.536 10.24-5.12 13.312-10.24l89.6-154.112 120.832 69.632c3.584 2.048 7.168 3.072 10.752 3.072 7.168 0 14.848-4.096 18.432-10.752l8.192-14.336c3.072-4.608 3.584-10.24 2.048-15.872z m169.472-104.448h-46.592c-11.776 0-21.504 9.728-21.504 21.504v16.896c0 11.776 9.728 21.504 21.504 21.504h46.592c11.776 0 21.504-9.728 21.504-21.504v-16.896c0-11.776-9.728-21.504-21.504-21.504z"  horiz-adv-x="1024" />

    
    <glyph glyph-name="shangxia" unicode="&#58918;" d="M210.373 510.902c-10.476 0-20.95 3.995-28.943 11.99-15.985 15.984-15.985 41.9 0 57.886L482.638 881.985a40.934 40.934 0 0 0 57.887 0L840.467 582.04c15.985-15.985 15.985-41.9 0-57.886-15.986-15.985-41.902-15.985-57.886 0l-270.999 271L239.318 522.89c-7.992-7.99-18.47-11.987-28.945-11.988z m299.944-638.838c-10.476 0-20.952 3.996-28.944 11.99L181.43 183.996c-15.985 15.985-15.985 41.901 0 57.886s41.901 15.985 57.887 0l271-270.999L782.58 243.147c15.985 15.985 41.9 15.985 57.886 0s15.985-41.901 0-57.886L539.26-115.947c-7.992-7.993-18.467-11.989-28.943-11.989z"  horiz-adv-x="1024" />

    
    <glyph glyph-name="wode" unicode="&#58627;" d="M625.302 333.382c95.411 44.138 161.804 139.986 161.804 251.127 0 152.924-125.324 277.353-279.382 277.353-153.971 0-279.36-124.429-279.36-277.309 0-111.186 66.414-207.033 161.804-251.171-181.898-52.822-316.626-224.378-322.102-429.382h879.382c-5.498 205.004-140.204 376.56-322.146 429.382z"  horiz-adv-x="1024" />

    
    <glyph glyph-name="sousuo" unicode="&#58900;" d="M788.878222 175.104l203.776-203.776a28.444444 28.444444 0 1 0-40.220444-40.220444l-201.955556 201.955555a426.666667 426.666667 0 1 0 38.4 42.097778zM455.111111 71.111111a369.777778 369.777778 0 1 1 0 739.555556 369.777778 369.777778 0 0 1 0-739.555556z"  horiz-adv-x="1024" />

    
    <glyph glyph-name="wode1" unicode="&#58910;" d="M709.629925-128a25.599731 25.599731 0 1 0 0 51.199462c162.302296 0 211.965774 0 211.965774 223.485654V442.362011A406.011737 406.011737 0 0 1 512 844.789786 406.011737 406.011737 0 0 1 102.404301 442.362011v-295.676895C102.404301-76.800538 152.067779-76.800538 314.370075-76.800538a25.599731 25.599731 0 1 0 0-51.199462C123.39608-128 51.204838-104.448247 51.204838 146.685116V442.362011A457.723194 457.723194 0 0 0 512 895.989248a457.723194 457.723194 0 0 0 460.795162-453.627237v-295.676895C972.795162-104.448247 900.60392-128 709.629925-128zM512-13.313204c-179.198118 0-324.348594 152.062403-324.348594 338.940441v79.871161a25.599731 25.599731 0 0 0 25.599731 25.599731 1009.397401 1009.397401 0 0 1 275.709105 45.567522l17.407817 4.607952a1009.909396 1009.909396 0 0 0 120.318737 27.135715 638.457296 638.457296 0 0 0 187.134035 9.727898 25.599731 25.599731 0 0 0 22.783761-25.599732v-167.166244C836.348594 138.749199 691.198118-13.313204 512-13.313204zM239.61886 380.666659v-55.039422c0-158.462336 122.110718-287.484981 272.38114-287.484981s272.38114 127.998656 272.38114 287.484981v143.614492a659.449076 659.449076 0 0 1-149.246433-11.519879 966.133856 966.133856 0 0 1-115.19879-25.599731l-17.15182-4.607952a1069.044775 1069.044775 0 0 0-263.165237-46.847508z"  horiz-adv-x="1024" />

    
    <glyph glyph-name="dituzuobiaodingwei" unicode="&#58903;" d="M512 893.906c-215.035 0-389.354-174.32-389.354-389.355 0-40.969 6.327-80.459 18.059-117.548C190.547 229.421 512-125.906 512-125.906S833.452 229.42 883.295 387.001c11.732 37.09 18.059 76.581 18.059 117.551C901.354 719.586 727.034 893.906 512 893.906z m0-541.388c-83.966 0-152.034 68.068-152.034 152.034S428.034 656.586 512 656.586s152.034-68.068 152.034-152.034S595.966 352.518 512 352.518z"  horiz-adv-x="1024" />

    
    <glyph glyph-name="baogao" unicode="&#58628;" d="M371.983 627.9069999999999h276.429c47.0886 0 85.4579 38.2976 85.4579 85.3606v4.58752c0 2.90816-0.14336 5.8112-0.4608 8.64768-3.95776 39.2806-34.6931 70.7123-73.5693 75.9501a85.1354 85.1354 0 0 1-11.4278 0.89088h-37.0483v6.84032c0 47.0886-38.2976 85.4579-85.4579 85.4579h-31.4573c-47.1142 0-85.4374-38.3744-85.4374-85.4579v-6.84032h-37.0739c-3.8656 0-7.63392-0.38912-11.4074-0.89088-38.8506-5.23264-69.6115-36.6182-73.5488-75.904a86.5997 86.5997 0 0 1-0.45568-8.64256v-4.58752c-0.00512-47.1091 38.3693-85.4118 85.4579-85.4118Zm502.067 197.069h-125.844v-45.0202h125.844a15.4931 15.4931 0 0 0 15.488-15.488v-831.544a15.4931 15.4931 0 0 0-15.488-15.4829H146.34a15.5034 15.5034 0 0 0-15.488 15.5341V764.513a15.4931 15.4931 0 0 0 15.488 15.4675h125.804v45.0458H146.34c-33.3773 0-60.4826-27.1616-60.4826-60.4621v-831.493c0-33.3824 27.1104-60.5133 60.4826-60.5133h727.711c33.3824 0 60.4877 27.1155 60.4877 60.4672v831.488c0 33.3517-27.1104 60.4621-60.4877 60.4621ZM305.249 436.695h409.892c25.3286 0 45.8598 20.5517 45.8598 45.8854a45.8598 45.8598 0 0 1-45.8598 45.865H305.249c-25.3338 0-45.8854-20.5312-45.8854-45.865s20.5517-45.8854 45.8854-45.8854Zm409.892-98.4269H305.249c-25.3338 0-45.8854-20.5312-45.8854-45.8598s20.5517-45.8906 45.8854-45.8906h409.892c25.3286 0 45.8598 20.5619 45.8598 45.8906s-20.5312 45.8598-45.8598 45.8598Zm0-190.172H305.249c-25.3338 0-45.8854-20.5261-45.8854-45.865a45.8854 45.8854 0 0 1 45.8854-45.8906h409.892c25.3286 0 45.8598 20.5619 45.8598 45.8906a45.8598 45.8598 0 0 1-45.8598 45.865Z"  horiz-adv-x="1024" />

    
    <glyph glyph-name="meirongyongju" unicode="&#58888;" d="M568.1 198.2c2.5-3.5 14.2-9.1 24.2-13.5 35.2-15.7 92.4-32.5 92.4-32.5s84.4 86.4 84.3 258.1c0 4.9-72.5-2.1-72.8 2.8-0.2 4.5 72.9 6.6 72.5 11.2-1.6 18.1-4.6 47.2-9.3 65.5 0 0-22.9 125.9-115.8 198-62.4 48.5-94.8 49.2-129 48.1-26.4-0.8-77.6-18.1-104.4-41.8-26.8-23.7-76.2-98.7-112.7-224.2-36.6-125.5-63.4-274.2-63.4-274.2s-1.2-8.7 0-19.4c1.2-10.6 17.1 20.6 17.1 20.6l30.5 55.6 3.1 13.1 3.7 4.4-1.8-15.6-4.3-10.6-42.6-79.3s-0.6-16.9 9.1-29.4 26.3-26.6 54.2-42.5c25.1-14.2 70.1-18.1 70.1-18.1l3.1 45.6 20.1-49.3s42-11.9 131.6 4.4c89.6 16.2 145.4 66.3 145.4 66.3s-66 28.9-100 48.3c-17 9.7-13 14.2-14.6 17.2-0.1-0.1-0.8 5.4 9.3-8.8M338.4 509.6c1.3 11.5 9.3 21.9 12.2 25.2 5.1 5.8 16.7 13.7 33.5 13.9 16.3 0.2 26.8-1.5 37.2-13.3 10.4-11.9 7.3-33.7 0-51.2C413.9 466.7 406 468 406 468s-7.7-3.1-22.9 0c-11.7 2.4-27.1 7.5-27.1 7.5-10.6 2.9-16.1 14-16.1 14-1.4 5.2-2.7 9.3-1.5 20.1m78-287.1c-64 0.6-85.9 30-90.8 35.6-4.9 5.6-16.2 28.2-9.1 38.1 2.2 3.1 6.7 6.2 6.7 6.2s17.4 8.2 50 3.7c33.3-4.6 60.9-11.9 76.2-18.7 15.2-6.9 35.3-20.6 34.7-33.7-0.1 0.1-3.8-31.8-67.7-31.2m51.7 103.7s-12.8-3.7-28 0-26.8 13.7-41.4 15c-11.9 0.9-23.7 2.5-35.4 4.8-9.1 1.9-15.2 5.1-15.2 19.5 0 17.8 15.9 37.2 16.9 39.3 0 0.1 0.1 0.2 0.1 0.2 0.8 1.1 7.3 10.7 9.1 11.8 2.6 1.7 7.3 0 4.9-4.4-2.4-4.4-6.5-9-11-19.4-4.1-9.4-12.7-22-7.2-31.4 5.5-9.4 30.5-9.8 30.5-9.8 27 0.8 43.9-15.6 57.3-16.9 13.4-1.2 20.8 0 26.5 10.6 5.7 10.6 2.7 38.3 2.7 38.3v12.9s2.4 5.6 6.7 0c4.3-5.6 6.9-35.6 6.9-35.6s2-25.3-23.4-34.9M487 449.9c-16.4 6.2-11 20-11 20l4.8 12.5c0.5 1.4 1.2 2.8 2.1 4 4.8 7.1 22.3 29.7 51.1 32.9 34.1 3.8 68.2-20 68.2-20 31.5-19.6 31.1-40 31.1-40 1.2-11.7-9.8-26.9-9.8-26.9-11.6-15.6-26.2-11.9-26.2-11.9-54.8 6.9-110.3 29.4-110.3 29.4"  horiz-adv-x="1024" />

    
    <glyph glyph-name="fuwu1" unicode="&#58904;" d="M275 813.1c-111 0-200.9-90-200.9-200.9 0-111 90-200.9 200.9-200.9h201V612.2c0 111-90 200.9-201 200.9z m664.7-200.9c0 111-90 200.9-200.9 200.9s-201-90-201-200.9v-200.9h201c110.9 0 200.9 89.9 200.9 200.9zM74.1 148.5c0-111 90-200.9 200.9-200.9 111 0 200.9 89.9 200.9 200.9V349.4H275c-110.9 0-200.9-89.9-200.9-200.9z m664.6 200.9h-201v-200.9c0-111 90-200.9 201-200.9s200.9 90 200.9 200.9c0.1 111-89.9 200.9-200.9 200.9z"  horiz-adv-x="1024" />

    


  </font>
</defs>
</svg>
